SplineFontDB: 3.0
FontName: NeutonCursive-Regular
FullName: Neuton Cursive
FamilyName: Neuton Cursive
Weight: Book
Copyright: Copyright (c) 2010, 2011 Brian M Zick (http://21326.info/), \nwith Reserved Font Name 'Neuton Cursive'.\n\nThis Font Software is licensed under the SIL Open Font License, Version 1.1.\nThis license is available with a FAQ at: http://scripts.sil.org/OFL\n   WITHOUT WARRANTIES OR CONDITIONS OF ANY KIND, either express or implied.\n   See the License for the specific language governing permissions and\n   limitations under the License.
Version: 1.45
ItalicAngle: 0
UnderlinePosition: -361
UnderlineWidth: 0
Ascent: 1638
Descent: 410
LayerCount: 2
Layer: 0 1 "Back"  1
Layer: 1 1 "Fore"  0
XUID: [1021 467 2011608612 8622985]
FSType: 1
OS2Version: 1
OS2_WeightWidthSlopeOnly: 0
OS2_UseTypoMetrics: 0
CreationTime: 1300472668
ModificationTime: 1329964630
PfmFamily: 17
TTFWeight: 500
TTFWidth: 5
LineGap: 0
VLineGap: 0
OS2TypoAscent: 2106
OS2TypoAOffset: 0
OS2TypoDescent: -485
OS2TypoDOffset: 0
OS2TypoLinegap: 0
OS2WinAscent: 2106
OS2WinAOffset: 0
OS2WinDescent: 485
OS2WinDOffset: 0
HheadAscent: 2106
HheadAOffset: 0
HheadDescent: -485
HheadDOffset: 0
OS2SubXSize: 1095
OS2SubYSize: 1179
OS2SubXOff: 0
OS2SubYOff: 235
OS2SupXSize: 1095
OS2SupYSize: 1179
OS2SupXOff: 0
OS2SupYOff: 809
OS2StrikeYSize: 84
OS2StrikeYPos: 436
OS2Vendor: 'PfEd'
OS2CodePages: 20000093.00000000
OS2UnicodeRanges: a00000ef.0000204a.00000000.00000000
Lookup: 1 0 0 "'onum' Oldstyle Figures lookup 1"  {"'onum' Oldstyle Figures lookup 1-1" ("osf" ) } ['onum' ('DFLT' <'dflt' > 'hebr' <'dflt' > 'latn' <'dflt' > ) ]
MarkAttachClasses: 1
DEI: 91125
TtTable: prep
PUSHW_1
 511
SCANCTRL
PUSHB_1
 4
SCANTYPE
EndTTInstrs
ShortTable: maxp 16
  1
  0
  367
  132
  7
  0
  0
  2
  0
  1
  1
  0
  64
  0
  0
  0
EndShort

StartChar: exclam
Encoding: 33 33 1
Width: 341
VWidth: 1655
GlyphClass: 2
Flags: MW
LayerCount: 2
Fore
SplineSet
188 206 m 0,0,1
 207 197 207 197 220 178 c 0,2,3
 234 159 234 159 238 143 c 0,4,5
 242 128 242 128 242 120 c 0,6,7
 242 109 242 109 234 73 c 0,8,9
 225 33 225 33 191 -1 c 128,-1,10
 157 -35 157 -35 111 -35 c 1,11,12
 72 -32 72 -32 48 -8 c 0,13,14
 26 14 26 14 21 42 c 0,15,16
 17 66 17 66 17 71 c 0,17,18
 17 77 17 77 24 108 c 0,19,20
 32 144 32 144 64 176 c 0,21,22
 99 211 99 211 134 212 c 0,23,24
 173 214 173 214 188 206 c 0,0,1
59 1257 m 1,25,26
 105 1290 105 1290 167 1290 c 0,27,28
 229 1290 229 1290 268 1254 c 0,29,30
 306 1219 306 1219 318 1152 c 1,31,32
 324 1126 324 1126 323 1085 c 0,33,34
 320 950 320 950 269 699 c 1,35,-1
 194 338 l 1,36,-1
 123 325 l 1,37,-1
 135 495 l 2,38,39
 142 587 142 587 142 811 c 2,40,-1
 142 874 l 1,41,42
 134 1099 134 1099 59 1257 c 1,25,26
EndSplineSet
Colour: ffff
EndChar

StartChar: quotedbl
Encoding: 34 34 2
Width: 442
VWidth: 1655
GlyphClass: 2
Flags: MW
LayerCount: 2
Fore
SplineSet
237 1308 m 1,0,1
 247 1311 247 1311 296 1310 c 0,2,3
 353 1308 353 1308 420 1292 c 1,4,-1
 335 906 l 1,5,6
 299 894 299 894 260 895 c 1,7,-1
 240 895 l 1,8,-1
 237 1308 l 1,0,1
28 1308 m 1,9,10
 38 1311 38 1311 86 1310 c 0,11,12
 145 1308 145 1308 211 1292 c 1,13,-1
 126 906 l 1,14,15
 90 894 90 894 51 895 c 1,16,-1
 30 895 l 1,17,-1
 28 1308 l 1,9,10
EndSplineSet
Colour: ffff
EndChar

StartChar: numbersign
Encoding: 35 35 3
Width: 895
VWidth: 1655
GlyphClass: 2
Flags: MW
LayerCount: 2
Fore
SplineSet
317 455 m 1,0,-1
 516 455 l 1,1,-1
 581 662 l 1,2,-1
 380 662 l 1,3,-1
 317 455 l 1,0,-1
284 355 m 1,4,-1
 233 174 l 1,5,-1
 128 167 l 1,6,-1
 183 355 l 1,7,-1
 17 355 l 1,8,-1
 58 455 l 1,9,-1
 216 455 l 1,10,-1
 279 662 l 1,11,-1
 121 662 l 1,12,-1
 160 760 l 1,13,-1
 312 760 l 1,14,-1
 369 931 l 1,15,-1
 470 941 l 1,16,-1
 413 760 l 1,17,-1
 613 760 l 1,18,-1
 667 931 l 1,19,-1
 770 940 l 1,20,-1
 713 760 l 1,21,-1
 878 760 l 1,22,-1
 839 662 l 1,23,-1
 681 662 l 1,24,-1
 619 455 l 1,25,-1
 775 455 l 1,26,-1
 736 355 l 1,27,-1
 584 355 l 1,28,-1
 533 174 l 1,29,-1
 428 167 l 1,30,-1
 484 355 l 1,31,-1
 284 355 l 1,4,-1
EndSplineSet
Colour: ffff
EndChar

StartChar: dollar
Encoding: 36 36 4
Width: 877
VWidth: 1655
GlyphClass: 2
Flags: MW
LayerCount: 2
Fore
SplineSet
242 401 m 1,0,1
 211 316 211 316 214 256 c 1,2,3
 214 163 214 163 309 113 c 1,4,5
 330 100 330 100 362 88 c 1,6,-1
 436 525 l 1,7,8
 311 626 311 626 249 702 c 1,9,10
 165 808 165 808 165 906 c 2,11,-1
 165 928 l 1,12,13
 171 987 171 987 200 1043 c 0,14,15
 252 1143 252 1143 339 1200 c 0,16,17
 427 1258 427 1258 527 1273 c 1,18,-1
 552 1417 l 1,19,-1
 685 1426 l 1,20,-1
 660 1271 l 1,21,22
 781 1249 781 1249 862 1178 c 1,23,-1
 797 832 l 1,24,-1
 709 851 l 1,25,-1
 702 1101 l 1,26,27
 668 1150 668 1150 609 1171 c 1,28,-1
 536 741 l 1,29,30
 654 642 654 642 700 600 c 1,31,32
 802 499 802 499 819 376 c 1,33,34
 821 370 821 370 820 346 c 1,35,36
 820 217 820 217 726 120 c 1,37,38
 650 39 650 39 531 0 c 0,39,40
 497 -12 497 -12 441 -19 c 1,41,-1
 418 -157 l 1,42,-1
 289 -167 l 1,43,-1
 314 -19 l 1,44,45
 207 -7 207 -7 120 49 c 1,46,47
 74 81 74 81 48 123 c 0,48,49
 22 166 22 166 17 207 c 1,50,51
 15 211 15 211 15 232 c 0,52,53
 15 257 15 257 23 286 c 1,54,55
 50 365 50 365 127 395 c 1,56,57
 160 411 160 411 200 411 c 0,58,59
 224 411 224 411 242 401 c 1,0,1
425 80 m 1,60,61
 490 85 490 85 537 116 c 0,62,63
 618 168 618 168 618 262 c 0,64,65
 618 355 618 355 553 423 c 1,66,67
 534 446 534 446 493 479 c 1,68,-1
 425 80 l 1,60,61
545 1184 m 1,69,-1
 541 1184 l 2,70,71
 476 1184 476 1184 418 1138 c 0,72,73
 362 1094 362 1094 356 1016 c 1,74,-1
 356 1003 l 2,75,76
 356 916 356 916 416 850 c 0,77,78
 430 835 430 835 479 788 c 1,79,-1
 545 1184 l 1,69,-1
EndSplineSet
Colour: ffff
EndChar

StartChar: percent
Encoding: 37 37 5
Width: 1063
VWidth: 1655
GlyphClass: 2
Flags: MW
LayerCount: 2
Fore
SplineSet
676 202 m 0,0,1
 676 68 676 68 788 68 c 0,2,3
 909 68 909 68 927 220 c 1,4,5
 929 226 929 226 929 254 c 0,6,7
 929 316 929 316 898 350 c 0,8,9
 866 385 866 385 814 385 c 0,10,11
 696 385 696 385 678 240 c 1,12,13
 676 234 676 234 676 202 c 0,0,1
1046 274 m 0,14,15
 1046 265 1046 265 1042 233 c 0,16,17
 1028 116 1028 116 953 47 c 0,18,19
 876 -24 876 -24 770 -24 c 128,-1,20
 664 -24 664 -24 611 37 c 128,-1,21
 558 98 558 98 558 191 c 0,22,23
 558 312 558 312 646 394 c 128,-1,24
 734 476 734 476 840 476 c 0,25,26
 945 476 945 476 996 421 c 0,27,28
 1046 367 1046 367 1046 274 c 0,14,15
274 883 m 0,29,30
 134 883 134 883 136 699 c 1,31,32
 136 564 136 564 247 562 c 1,33,34
 369 562 369 562 387 733 c 0,35,36
 389 745 389 745 389 754 c 0,37,38
 389 815 389 815 359 848 c 0,39,40
 327 883 327 883 274 883 c 0,29,30
504 770 m 0,41,42
 504 754 504 754 502 727 c 1,43,44
 487 609 487 609 413 541 c 0,45,46
 337 471 337 471 231 471 c 0,47,48
 124 471 124 471 71 530 c 128,-1,49
 18 589 18 589 18 686 c 0,50,51
 18 810 18 810 102 893 c 0,52,53
 185 975 185 975 293 975 c 0,54,55
 402 975 402 975 453 920 c 0,56,57
 504 864 504 864 504 770 c 0,41,42
859 962 m 1,58,-1
 995 971 l 1,59,-1
 186 -23 l 1,60,-1
 44 -31 l 1,61,-1
 859 962 l 1,58,-1
EndSplineSet
Colour: ffff
EndChar

StartChar: ampersand
Encoding: 38 38 6
Width: 1130
VWidth: 1655
GlyphClass: 2
Flags: MW
LayerCount: 2
Fore
SplineSet
763 617 m 1,0,1
 820 701 820 701 919 701 c 0,2,3
 1000 701 1000 701 1056 629 c 128,-1,4
 1112 557 1112 557 1112 460 c 0,5,6
 1112 338 1112 338 1046.5 241.5 c 128,-1,7
 981 145 981 145 869 78 c 1,8,9
 913 -11 913 -11 913 -79 c 0,10,11
 913 -135 913 -135 885 -182 c 128,-1,12
 857 -229 857 -229 811.5 -258.5 c 128,-1,13
 766 -288 766 -288 711.5 -305 c 128,-1,14
 657 -322 657 -322 599.5 -320.5 c 128,-1,15
 542 -319 542 -319 494 -301 c 1,16,-1
 487 -265 l 1,17,18
 539 -256 539 -256 574.5 -246 c 128,-1,19
 610 -236 610 -236 647 -219 c 128,-1,20
 684 -202 684 -202 703 -175 c 128,-1,21
 722 -148 722 -148 722 -112 c 0,22,23
 722 -82 722 -82 715.5 -60 c 128,-1,24
 709 -38 709 -38 691 -2 c 1,25,26
 536 -52 536 -52 380 -52 c 0,27,28
 306 -52 306 -52 243.5 -35 c 128,-1,29
 181 -18 181 -18 129 18.5 c 128,-1,30
 77 55 77 55 47 119 c 128,-1,31
 17 183 17 183 17 270 c 0,32,33
 17 326 17 326 41 378.5 c 128,-1,34
 65 431 65 431 108.5 475.5 c 128,-1,35
 152 520 152 520 203.5 556.5 c 128,-1,36
 255 593 255 593 319 626 c 1,37,38
 237 773 237 773 237 872 c 0,39,40
 237 961 237 961 286.5 1041 c 128,-1,41
 336 1121 336 1121 423.5 1170.5 c 128,-1,42
 511 1220 511 1220 613 1220 c 0,43,44
 727 1220 727 1220 799 1155 c 128,-1,45
 871 1090 871 1090 871 985 c 0,46,47
 871 932 871 932 850.5 882.5 c 128,-1,48
 830 833 830 833 797 795.5 c 128,-1,49
 764 758 764 758 719 725.5 c 128,-1,50
 674 693 674 693 629 671 c 128,-1,51
 584 649 584 649 535 633 c 1,52,-1
 821 165 l 1,53,54
 928 252 928 252 928 400 c 0,55,56
 928 470 928 470 885 529.5 c 128,-1,57
 842 589 842 589 763 617 c 1,0,1
363 551 m 1,58,59
 284 498 284 498 256.5 441.5 c 128,-1,60
 229 385 229 385 229 309 c 0,61,62
 229 196 229 196 309.5 134 c 128,-1,63
 390 72 390 72 512 72 c 0,64,65
 580 72 580 72 643 86 c 1,66,-1
 363 551 l 1,58,59
496 698 m 1,67,68
 574 723 574 723 631 796 c 128,-1,69
 688 869 688 869 688 933 c 0,70,71
 688 1026 688 1026 647.5 1076.5 c 128,-1,72
 607 1127 607 1127 544 1127 c 0,73,74
 486 1127 486 1127 448 1079 c 128,-1,75
 410 1031 410 1031 410 971 c 0,76,77
 410 893 410 893 429 836 c 128,-1,78
 448 779 448 779 496 698 c 1,67,68
520 628 m 1,79,80
 519 628 519 628 517 627 c 1,81,82
 521 621 521 621 521 623 c 0,83,84
 521 625 521 625 520 628 c 1,79,80
EndSplineSet
Colour: ffff
EndChar

StartChar: quotesingle
Encoding: 39 39 7
Width: 233
VWidth: 1655
GlyphClass: 2
Flags: MW
LayerCount: 2
Fore
SplineSet
28 1308 m 1,0,1
 38 1311 38 1311 86 1310 c 0,2,3
 145 1308 145 1308 211 1292 c 1,4,-1
 126 906 l 1,5,6
 90 894 90 894 51 895 c 1,7,-1
 30 895 l 1,8,-1
 28 1308 l 1,0,1
EndSplineSet
Colour: ffff
EndChar

StartChar: parenleft
Encoding: 40 40 8
Width: 526
VWidth: 1655
GlyphClass: 2
Flags: MW
LayerCount: 2
Fore
SplineSet
260 -378 m 1,0,1
 19 -104 19 -104 17 287 c 0,2,3
 17 369 17 369 30 477 c 0,4,5
 44 593 44 593 88 724 c 0,6,7
 132 853 132 853 182 940 c 0,8,9
 227 1017 227 1017 295 1098 c 0,10,11
 362 1178 362 1178 402 1212 c 0,12,13
 434 1240 434 1240 467 1266 c 1,14,-1
 509 1199 l 1,15,16
 267 930 267 930 209 460 c 0,17,18
 199 384 199 384 197 282 c 1,19,20
 200 -32 200 -32 337 -320 c 1,21,-1
 260 -378 l 1,0,1
EndSplineSet
Colour: ffff
EndChar

StartChar: parenright
Encoding: 41 41 9
Width: 544
VWidth: 1655
GlyphClass: 2
Flags: MW
LayerCount: 2
Fore
SplineSet
17 -320 m 1,0,1
 350 135 350 135 352 685 c 1,2,3
 352 986 352 986 220 1199 c 1,4,-1
 278 1266 l 1,5,6
 527 1033 527 1033 526 621 c 0,7,8
 526 392 526 392 449 170 c 1,9,10
 401 37 401 37 355 -45 c 0,11,12
 310 -125 310 -125 251 -197 c 0,13,14
 186 -275 186 -275 166 -298 c 0,15,16
 133 -335 133 -335 79 -378 c 1,17,-1
 17 -320 l 1,0,1
EndSplineSet
Colour: ffff
EndChar

StartChar: asterisk
Encoding: 42 42 10
Width: 751
VWidth: 0
GlyphClass: 2
Flags: MW
LayerCount: 2
Fore
SplineSet
304 1292 m 1,0,-1
 440 1279 l 1,1,-1
 414 988 l 1,2,-1
 703 1119 l 1,3,-1
 732 989 l 1,4,-1
 447 921 l 1,5,-1
 666 692 l 1,6,-1
 548 623 l 1,7,-1
 395 870 l 1,8,-1
 240 593 l 1,9,-1
 138 685 l 1,10,-1
 331 904 l 1,11,-1
 19 964 l 1,12,-1
 74 1091 l 1,13,-1
 341 977 l 1,14,-1
 304 1292 l 1,0,-1
EndSplineSet
Colour: ffff
EndChar

StartChar: plus
Encoding: 43 43 11
Width: 608
VWidth: 1655
GlyphClass: 2
Flags: MW
LayerCount: 2
Fore
SplineSet
353 413 m 1,0,-1
 325 174 l 1,1,-1
 216 186 l 1,2,-1
 244 413 l 1,3,-1
 20 413 l 1,4,-1
 45 514 l 1,5,-1
 254 514 l 1,6,-1
 284 747 l 1,7,-1
 390 734 l 1,8,-1
 365 514 l 1,9,-1
 588 514 l 1,10,-1
 562 413 l 1,11,-1
 353 413 l 1,0,-1
EndSplineSet
Colour: ffff
EndChar

StartChar: comma
Encoding: 44 44 12
Width: 378
VWidth: 1655
GlyphClass: 2
Flags: MW
LayerCount: 2
Fore
SplineSet
212 227 m 2,0,-1
 227 227 l 1,1,2
 305 218 305 218 338 127 c 1,3,4
 351 95 351 95 353 57 c 1,5,6
 353 -93 353 -93 204 -209 c 1,7,8
 140 -261 140 -261 55 -303 c 1,9,-1
 23 -251 l 1,10,11
 113 -204 113 -204 149 -149 c 0,12,13
 186 -93 186 -93 186 -39 c 0,14,15
 186 -37 186 -37 180 -4 c 0,16,17
 173 33 173 33 145 64 c 0,18,19
 115 97 115 97 78 116 c 1,20,21
 93 171 93 171 132 198 c 0,22,23
 173 227 173 227 212 227 c 2,0,-1
EndSplineSet
Colour: ffff
EndChar

StartChar: hyphen
Encoding: 45 45 13
Width: 460
VWidth: 1655
GlyphClass: 2
Flags: MW
LayerCount: 2
Fore
SplineSet
35 489 m 1,0,-1
 435 507 l 1,1,-1
 423 408 l 1,2,-1
 24 390 l 1,3,-1
 35 489 l 1,0,-1
EndSplineSet
Colour: ffff
EndChar

StartChar: period
Encoding: 46 46 14
Width: 274
VWidth: 1655
GlyphClass: 2
Flags: MW
LayerCount: 2
Fore
SplineSet
195 206 m 0,0,1
 214 197 214 197 227 178 c 0,2,3
 241 159 241 159 245 143 c 0,4,5
 249 128 249 128 249 120 c 0,6,7
 249 109 249 109 241 73 c 0,8,9
 232 33 232 33 198 -1 c 128,-1,10
 164 -35 164 -35 118 -35 c 1,11,12
 79 -32 79 -32 55 -8 c 0,13,14
 33 14 33 14 28 42 c 0,15,16
 24 66 24 66 24 71 c 0,17,18
 24 77 24 77 31 108 c 0,19,20
 39 144 39 144 71 176 c 0,21,22
 106 211 106 211 141 212 c 0,23,24
 180 214 180 214 195 206 c 0,0,1
EndSplineSet
Colour: ffff
EndChar

StartChar: slash
Encoding: 47 47 15
Width: 634
VWidth: 1655
GlyphClass: 2
Flags: MW
LayerCount: 2
Fore
SplineSet
483 1245 m 1,0,-1
 617 1252 l 1,1,-1
 148 -357 l 1,2,-1
 17 -367 l 1,3,-1
 483 1245 l 1,0,-1
EndSplineSet
Colour: ffff
EndChar

StartChar: zero
Encoding: 48 48 16
Width: 873
VWidth: 1655
GlyphClass: 2
Flags: MW
LayerCount: 2
Fore
SplineSet
207 864 m 1,0,1
 177 768 177 768 178 653 c 1,2,3
 178 438 178 438 273 251 c 1,4,5
 351 101 351 101 473 101 c 0,6,7
 566 101 566 101 615 173 c 0,8,9
 647 219 647 219 672 317 c 0,10,11
 696 409 696 409 696 517 c 0,12,13
 696 675 696 675 629 829 c 0,14,15
 562 982 562 982 463 1022 c 1,16,17
 430 1034 430 1034 411 1036 c 0,18,19
 399 1037 399 1037 365 1032 c 1,20,21
 247 1006 247 1006 207 864 c 1,0,1
498 1158 m 1,22,23
 597 1152 597 1152 669 1092 c 0,24,25
 744 1029 744 1029 790 931 c 0,26,27
 855 793 855 793 855 618 c 0,28,29
 855 600 855 600 851 543 c 0,30,31
 833 330 833 330 731 181 c 0,32,33
 675 100 675 100 600 45 c 0,34,35
 527 -8 527 -8 467 -16 c 0,36,37
 411 -23 411 -23 403 -23 c 0,38,39
 309 -23 309 -23 224 30 c 0,40,41
 140 83 140 83 87 191 c 0,42,43
 35 298 35 298 23 437 c 1,44,45
 18 473 18 473 18 548 c 0,46,47
 18 619 18 619 38 702 c 0,48,49
 79 878 79 878 193 1011 c 0,50,51
 259 1088 259 1088 330 1123 c 0,52,53
 400 1158 400 1158 481 1158 c 2,54,-1
 498 1158 l 1,22,23
EndSplineSet
Substitution2: "'onum' Oldstyle Figures lookup 1-1" zero.osf
Colour: ffff
EndChar

StartChar: one
Encoding: 49 49 17
Width: 551
VWidth: 1655
GlyphClass: 2
Flags: MW
LayerCount: 2
Fore
SplineSet
214 -14 m 1,0,1
 283 381 283 381 302 516 c 0,2,3
 306 547 306 547 315 613.5 c 128,-1,4
 324 680 324 680 328 707 c 0,5,6
 331 723 331 723 349 857 c 0,7,8
 351 869 351 869 359 932.5 c 128,-1,9
 367 996 367 996 373 1036 c 1,10,-1
 364 1032 l 1,11,12
 324 921 324 921 281 879 c 0,13,14
 239 838 239 838 200 826 c 0,15,16
 166 815 166 815 137 815 c 0,17,18
 112 815 112 815 81 830 c 0,19,20
 19 860 19 860 17 935 c 0,21,22
 17 939 17 939 21 959 c 1,23,24
 177 970 177 970 304 1053 c 0,25,26
 357 1088 357 1088 407 1138 c 1,27,-1
 533 1154 l 1,28,-1
 434 -8 l 1,29,-1
 214 -14 l 1,0,1
EndSplineSet
Substitution2: "'onum' Oldstyle Figures lookup 1-1" one.osf
Colour: ffff
EndChar

StartChar: two
Encoding: 50 50 18
Width: 871
VWidth: 1655
GlyphClass: 2
Flags: MW
LayerCount: 2
Fore
SplineSet
390 664 m 1,0,1
 344 607 344 607 288 607 c 0,2,3
 180 607 180 607 138 702 c 1,4,5
 122 735 122 735 122 802 c 0,6,7
 122 867 122 867 178 961 c 0,8,9
 234 1054 234 1054 325 1114 c 0,10,11
 418 1175 418 1175 531 1178 c 1,12,-1
 545 1178 l 2,13,14
 678 1178 678 1178 759 1094 c 1,15,16
 852 1001 852 1001 854 845 c 1,17,18
 852 624 852 624 638 424 c 0,19,20
 549 341 549 341 345 200 c 1,21,-1
 232 123 l 1,22,-1
 232 113 l 1,23,-1
 433 121 l 1,24,25
 468 121 468 121 492 123 c 128,-1,26
 516 125 516 125 539 125 c 1,27,28
 644 134 644 134 695 212 c 1,29,30
 714 239 714 239 738 296 c 2,31,-1
 771 376 l 1,32,-1
 845 349 l 2,33,34
 845 348 845 348 842.5 331.5 c 128,-1,35
 840 315 840 315 835 281.5 c 128,-1,36
 830 248 830 248 824 210 c 0,37,38
 803 77 803 77 775 -16 c 1,39,-1
 620 -16 l 1,40,41
 366 -13 366 -13 180 -3 c 2,42,-1
 17 5 l 1,43,-1
 28 101 l 1,44,-1
 209 211 l 2,45,46
 388 320 388 320 456 381 c 0,47,48
 529 447 529 447 565 499 c 128,-1,49
 601 551 601 551 629 621 c 0,50,51
 657 690 657 690 660 786 c 1,52,-1
 660 797 l 2,53,54
 660 896 660 896 618 974 c 128,-1,55
 576 1052 576 1052 502 1078 c 1,56,57
 475 1086 475 1086 436 1086 c 0,58,59
 401 1086 401 1086 355 1054 c 0,60,61
 314 1026 314 1026 293 973 c 0,62,63
 274 926 274 926 274 885 c 0,64,65
 274 753 274 753 390 664 c 1,0,1
EndSplineSet
Substitution2: "'onum' Oldstyle Figures lookup 1-1" two.osf
Colour: ffff
EndChar

StartChar: three
Encoding: 51 51 19
Width: 804
VWidth: 1655
GlyphClass: 2
Flags: MW
LayerCount: 2
Fore
SplineSet
322 589 m 1,0,1
 364 610 364 610 388.5 623 c 128,-1,2
 413 636 413 636 452.5 660.5 c 128,-1,3
 492 685 492 685 516 708.5 c 128,-1,4
 540 732 540 732 564.5 763.5 c 128,-1,5
 589 795 589 795 601 833.5 c 128,-1,6
 613 872 613 872 613 915 c 0,7,8
 613 998 613 998 572.5 1048.5 c 128,-1,9
 532 1099 532 1099 461 1099 c 0,10,11
 395 1099 395 1099 351 1063.5 c 128,-1,12
 307 1028 307 1028 307 969 c 0,13,14
 307 879 307 879 381 815 c 1,15,16
 350 757 350 757 288 757 c 1,17,18
 286 755 286 755 281 755 c 0,19,20
 230 755 230 755 195 794.5 c 128,-1,21
 160 834 160 834 160 888 c 0,22,23
 160 970 160 970 221 1038.5 c 128,-1,24
 282 1107 282 1107 369 1143 c 128,-1,25
 456 1179 456 1179 543 1179 c 0,26,27
 659 1179 659 1179 722.5 1123.5 c 128,-1,28
 786 1068 786 1068 786 961 c 0,29,30
 786 758 786 758 521 625 c 1,31,-1
 521 621 l 1,32,33
 624 621 624 621 698.5 551.5 c 128,-1,34
 773 482 773 482 773 372 c 0,35,36
 773 282 773 282 731 205 c 128,-1,37
 689 128 689 128 620 78 c 128,-1,38
 551 28 551 28 464 0 c 128,-1,39
 377 -28 377 -28 286 -28 c 0,40,41
 179 -28 179 -28 99 25.5 c 128,-1,42
 19 79 19 79 17 167 c 1,43,44
 17 244 17 244 69.5 288.5 c 128,-1,45
 122 333 122 333 197 332 c 1,46,47
 173 222 173 222 221 142.5 c 128,-1,48
 269 63 269 63 366 63 c 0,49,50
 462 63 462 63 526 120 c 128,-1,51
 590 177 590 177 590 283 c 0,52,53
 590 410 590 410 506 479 c 128,-1,54
 422 548 422 548 316 530 c 1,55,-1
 322 589 l 1,0,1
EndSplineSet
Substitution2: "'onum' Oldstyle Figures lookup 1-1" three.osf
Colour: ffff
EndChar

StartChar: four
Encoding: 52 52 20
Width: 867
VWidth: 1655
GlyphClass: 2
Flags: MW
LayerCount: 2
Fore
SplineSet
352 532 m 1,0,-1
 162 353 l 1,1,-1
 508 360 l 1,2,-1
 529 585 l 1,3,-1
 699 702 l 1,4,-1
 655 365 l 1,5,-1
 850 369 l 1,6,-1
 817 233 l 1,7,-1
 646 241 l 1,8,-1
 627 14 l 1,9,-1
 469 -12 l 1,10,-1
 500 246 l 1,11,-1
 32 267 l 1,12,-1
 17 323 l 1,13,-1
 206 510 l 2,14,15
 338 641 338 641 384 695 c 0,16,17
 535 874 535 874 564 1068 c 0,18,19
 572 1124 572 1124 571 1184 c 1,20,21
 646 1198 646 1198 695.5 1157 c 128,-1,22
 745 1116 745 1116 745 1046 c 0,23,24
 745 1013 745 1013 730 973.5 c 128,-1,25
 715 934 715 934 682.5 888.5 c 128,-1,26
 650 843 650 843 618.5 804 c 128,-1,27
 587 765 587 765 534 710.5 c 128,-1,28
 481 656 481 656 446 622.5 c 128,-1,29
 411 589 411 589 352 532 c 1,0,-1
EndSplineSet
Substitution2: "'onum' Oldstyle Figures lookup 1-1" four.osf
Colour: ffff
EndChar

StartChar: five
Encoding: 53 53 21
Width: 835
VWidth: 1655
GlyphClass: 2
Flags: MW
LayerCount: 2
Fore
SplineSet
818 1092 m 1,0,1
 804 951 804 951 617 951 c 0,2,3
 523 951 523 951 445 962 c 128,-1,4
 367 973 367 973 352 973 c 1,5,-1
 299 750 l 1,6,-1
 307 747 l 1,7,8
 316 747 316 747 320 748 c 1,9,-1
 336 748 l 2,10,11
 509 748 509 748 627 641 c 1,12,13
 740 530 740 530 742 380 c 1,14,15
 742 232 742 232 647 114 c 1,16,17
 576 28 576 28 469 -5 c 1,18,19
 401 -31 401 -31 339 -31 c 0,20,21
 279 -31 279 -31 273 -30 c 0,22,23
 177 -24 177 -24 112 18 c 1,24,25
 19 76 19 76 17 184 c 0,26,27
 17 192 17 192 21 216 c 1,28,29
 34 266 34 266 68 303 c 0,30,31
 104 341 104 341 164 346 c 1,32,33
 177 283 177 283 180 269 c 1,34,35
 229 108 229 108 358 81 c 1,36,37
 392 78 392 78 395 78 c 0,38,39
 454 78 454 78 508 111 c 128,-1,40
 562 144 562 144 575 193 c 0,41,42
 588 241 588 241 588 267 c 0,43,44
 588 298 588 298 586 311 c 0,45,46
 582 336 582 336 562 383 c 1,47,48
 528 470 528 470 460 524 c 0,49,50
 394 577 394 577 307 592 c 1,51,52
 260 602 260 602 208 602 c 1,53,-1
 185 620 l 1,54,-1
 320 1115 l 1,55,56
 336 1113 336 1113 427 1113 c 0,57,58
 652 1113 652 1113 808 1160 c 1,59,60
 818 1131 818 1131 818 1104 c 2,61,-1
 818 1092 l 1,0,1
EndSplineSet
Substitution2: "'onum' Oldstyle Figures lookup 1-1" five.osf
Colour: ffff
EndChar

StartChar: six
Encoding: 54 54 22
Width: 798
VWidth: 1655
GlyphClass: 2
Flags: MW
LayerCount: 2
Fore
SplineSet
75 675 m 0,0,1
 179 961 179 961 405 1104 c 1,2,3
 506 1166 506 1166 589 1164 c 1,4,5
 667 1164 667 1164 716 1124 c 1,6,7
 781 1068 781 1068 780 995 c 0,8,9
 780 949 780 949 757 912 c 0,10,11
 732 872 732 872 686 853 c 1,12,13
 646 956 646 956 571 1003 c 0,14,15
 538 1023 538 1023 503 1029 c 1,16,-1
 487 1029 l 2,17,18
 399 1029 399 1029 336 945 c 0,19,20
 274 862 274 862 242 752 c 0,21,22
 211 646 211 646 205 604 c 1,23,24
 248 660 248 660 318 690 c 0,25,26
 385 719 385 719 463 717 c 0,27,28
 540 715 540 715 595 682 c 0,29,30
 653 647 653 647 684 594 c 0,31,32
 714 543 714 543 720 487 c 0,33,34
 726 433 726 433 726 427 c 0,35,36
 726 344 726 344 687 249 c 0,37,38
 649 156 649 156 579 91 c 1,39,40
 462 -14 462 -14 327 -16 c 0,41,42
 301 -16 301 -16 296 -14 c 1,43,44
 135 0 135 0 56 158 c 1,45,46
 20 238 20 238 18 344 c 0,47,48
 18 390 18 390 20 398 c 1,49,50
 29 549 29 549 75 675 c 0,0,1
189 423 m 2,51,-1
 189 388 l 1,52,53
 198 201 198 201 263 129 c 1,54,55
 314 69 314 69 375 70 c 0,56,57
 380 70 380 70 384 72 c 1,58,-1
 391 72 l 1,59,60
 433 78 433 78 466 104 c 1,61,62
 532 164 532 164 547 310 c 1,63,64
 553 344 553 344 551 385 c 1,65,66
 551 459 551 459 524 514 c 1,67,68
 511 544 511 544 481 566 c 0,69,70
 436 599 436 599 376 601 c 0,71,72
 318 602 318 602 266 584 c 128,-1,73
 214 566 214 566 194 534 c 1,74,75
 189 489 189 489 189 423 c 2,51,-1
EndSplineSet
Substitution2: "'onum' Oldstyle Figures lookup 1-1" six.osf
Colour: ffff
EndChar

StartChar: seven
Encoding: 55 55 23
Width: 858
VWidth: 1655
GlyphClass: 2
Flags: MW
LayerCount: 2
Fore
SplineSet
420 537 m 0,0,1
 362 414 362 414 362 282 c 0,2,3
 362 151 362 151 455 49 c 1,4,5
 428 15 428 15 378 -3 c 1,6,7
 364 -10 364 -10 339 -10 c 0,8,9
 316 -10 316 -10 277 2 c 0,10,11
 236 15 236 15 203 58 c 128,-1,12
 170 101 170 101 164 153 c 0,13,14
 158 202 158 202 158 228 c 0,15,16
 158 288 158 288 223 427 c 1,17,18
 293 561 293 561 430 738 c 2,19,-1
 650 1022 l 1,20,21
 455 1015 455 1015 328 1005 c 0,22,23
 169 992 169 992 158 990 c 1,24,-1
 92 830 l 1,25,-1
 17 851 l 1,26,-1
 51 1142 l 1,27,28
 62 1143 62 1143 226 1153 c 0,29,30
 362 1161 362 1161 486 1161 c 1,31,-1
 841 1148 l 1,32,-1
 838 1090 l 1,33,-1
 604 812 l 1,34,35
 480 663 480 663 420 537 c 0,0,1
EndSplineSet
Substitution2: "'onum' Oldstyle Figures lookup 1-1" seven.osf
Colour: ffff
EndChar

StartChar: eight
Encoding: 56 56 24
Width: 749
VWidth: 1655
GlyphClass: 2
Flags: MW
LayerCount: 2
Fore
SplineSet
316 557 m 1,0,1
 193 419 193 419 190 286 c 1,2,-1
 190 269 l 2,3,4
 190 144 190 144 278 89 c 1,5,6
 316 64 316 64 360 61 c 1,7,-1
 364 61 l 2,8,9
 434 61 434 61 480 110 c 128,-1,10
 526 159 526 159 526 246 c 0,11,12
 526 331 526 331 434 437 c 1,13,14
 409 470 409 470 316 557 c 1,0,1
255 618 m 1,15,16
 147 741 147 741 145 864 c 0,17,18
 145 886 145 886 146 890 c 0,19,20
 162 1026 162 1026 300 1117 c 1,21,22
 392 1175 392 1175 493 1175 c 128,-1,23
 594 1175 594 1175 663 1106 c 0,24,25
 731 1038 731 1038 731 941 c 0,26,27
 731 915 731 915 730 911 c 0,28,29
 721 821 721 821 662 740 c 0,30,31
 602 657 602 657 526 608 c 1,32,33
 620 514 620 514 656 443 c 0,34,35
 694 369 694 369 694 296 c 0,36,37
 694 270 694 270 692 265 c 1,38,39
 686 207 686 207 658 160 c 0,40,41
 628 109 628 109 582 75 c 1,42,43
 500 7 500 7 378 -18 c 0,44,45
 342 -26 342 -26 291 -26 c 0,46,47
 123 -26 123 -26 48 99 c 1,48,49
 17 148 17 148 17 216 c 0,50,51
 17 240 17 240 19 242 c 1,52,53
 25 310 25 310 56 363 c 0,54,55
 88 415 88 415 155 492 c 1,56,57
 216 553 216 553 273 599 c 1,58,-1
 255 618 l 1,15,16
480 653 m 1,59,60
 571 734 571 734 570 882 c 0,61,62
 570 963 570 963 544 1012 c 0,63,64
 517 1064 517 1064 484 1077 c 0,65,66
 452 1090 452 1090 428 1090 c 1,67,-1
 407 1089 l 1,68,69
 371 1083 371 1083 346 1059 c 0,70,71
 321 1036 321 1036 310 997 c 0,72,73
 300 963 300 963 300 941 c 2,74,-1
 300 931 l 1,75,76
 306 850 306 850 368 775 c 1,77,78
 422 708 422 708 480 653 c 1,59,60
EndSplineSet
Substitution2: "'onum' Oldstyle Figures lookup 1-1" eight.osf
Colour: ffff
EndChar

StartChar: nine
Encoding: 57 57 25
Width: 741
VWidth: 1655
GlyphClass: 2
Flags: MW
LayerCount: 2
Fore
SplineSet
723 739 m 2,0,1
 723 577 723 577 686 445 c 0,2,3
 649 312 649 312 555 188 c 1,4,5
 398 -14 398 -14 220 -14 c 2,6,-1
 213 -14 l 2,7,8
 163 -14 163 -14 117 6 c 0,9,10
 74 25 74 25 45 64 c 0,11,12
 17 102 17 102 17 153 c 0,13,14
 17 160 17 160 21 184 c 1,15,16
 39 253 39 253 100 284 c 1,17,18
 130 231 130 231 177 191 c 1,19,20
 253 140 253 140 307 141 c 0,21,22
 329 141 329 141 332 142 c 0,23,24
 423 151 423 151 481 242 c 1,25,26
 522 311 522 311 543 448 c 0,27,28
 543 450 543 450 544.5 461 c 128,-1,29
 546 472 546 472 548.5 501 c 128,-1,30
 551 530 551 530 554 557 c 1,31,32
 517 505 517 505 454 472 c 0,33,34
 393 440 393 440 326 434 c 1,35,36
 321 432 321 432 278 432 c 128,-1,37
 235 432 235 432 179 460 c 0,38,39
 120 489 120 489 90 534 c 1,40,41
 36 608 36 608 37 726 c 1,42,43
 37 878 37 878 118 1005 c 0,44,45
 168 1082 168 1082 242 1130 c 0,46,47
 314 1177 314 1177 401 1180 c 1,48,-1
 410 1180 l 2,49,50
 487 1180 487 1180 553 1143 c 0,51,52
 617 1107 617 1107 658 1039 c 0,53,54
 715 945 715 945 723 788 c 1,55,-1
 723 739 l 2,0,1
358 1090 m 0,56,57
 211 1090 211 1090 190 830 c 1,58,-1
 190 812 l 1,59,60
 188 806 188 806 188 794 c 0,61,62
 188 626 188 626 288 574 c 0,63,64
 325 555 325 555 369 555 c 0,65,66
 374 555 374 555 415 561 c 0,67,68
 459 568 459 568 489 583 c 0,69,70
 529 604 529 604 535 609 c 0,71,72
 546 619 546 619 559 636 c 1,73,-1
 559 681 l 2,74,75
 559 833 559 833 526 933 c 1,76,77
 477 1090 477 1090 358 1090 c 0,56,57
EndSplineSet
Substitution2: "'onum' Oldstyle Figures lookup 1-1" nine.osf
Colour: ffff
EndChar

StartChar: colon
Encoding: 58 58 26
Width: 329
VWidth: 1655
GlyphClass: 2
Flags: MW
LayerCount: 2
Fore
SplineSet
202 165 m 1,0,1
 219 141 219 141 221 120 c 0,2,3
 222 103 222 103 218 77 c 1,4,5
 208 37 208 37 177 5 c 0,6,7
 145 -28 145 -28 104 -28 c 1,8,9
 68 -25 68 -25 48 -3 c 1,10,11
 17 28 17 28 20 68 c 1,12,13
 20 121 20 121 58 159 c 0,14,15
 93 194 93 194 125 196 c 0,16,17
 157 198 157 198 170 191 c 0,18,19
 185 184 185 184 202 165 c 1,0,1
309 755 m 0,20,21
 309 753 309 753 306 726 c 1,22,23
 295 682 295 682 264 653 c 0,24,25
 235 625 235 625 195 625 c 0,26,27
 155 625 155 625 135 646 c 0,28,29
 117 665 117 665 111 696 c 1,30,31
 109 698 109 698 109 708 c 0,32,33
 109 723 109 723 114 750 c 0,34,35
 120 783 120 783 152 815 c 0,36,37
 182 845 182 845 225 847 c 0,38,39
 265 849 265 849 288 820 c 0,40,41
 309 793 309 793 309 755 c 0,20,21
EndSplineSet
Colour: ffff
EndChar

StartChar: semicolon
Encoding: 59 59 27
Width: 410
VWidth: 1655
GlyphClass: 2
Flags: MW
LayerCount: 2
Fore
SplineSet
371 815 m 1,0,1
 388 791 388 791 390 770 c 0,2,3
 391 755 391 755 388 726 c 1,4,5
 376 681 376 681 347 653 c 128,-1,6
 318 625 318 625 278 625 c 0,7,8
 239 625 239 625 218 646 c 0,9,10
 188 678 188 678 189 719 c 1,11,12
 189 773 189 773 226 810 c 0,13,14
 261 845 261 845 294 847 c 0,15,16
 323 848 323 848 338 841 c 0,17,18
 357 832 357 832 371 815 c 1,0,1
127 181 m 1,19,20
 161 200 161 200 192 200 c 2,21,-1
 202 200 l 1,22,23
 272 191 272 191 302 109 c 1,24,25
 314 72 314 72 316 51 c 0,26,27
 317 39 317 39 310 -11 c 0,28,29
 304 -52 304 -52 269 -103 c 0,30,31
 197 -206 197 -206 48 -280 c 1,32,-1
 19 -230 l 1,33,34
 69 -199 69 -199 86 -187 c 0,35,36
 99 -177 99 -177 134 -134 c 0,37,38
 166 -94 166 -94 166 -40 c 0,39,40
 166 -38 166 -38 160 -9 c 128,-1,41
 154 20 154 20 127 50 c 0,42,43
 99 81 99 81 69 101 c 1,44,45
 81 150 81 150 127 181 c 1,19,20
EndSplineSet
Colour: ffff
EndChar

StartChar: less
Encoding: 60 60 28
Width: 693
VWidth: 1655
GlyphClass: 2
Flags: MW
LayerCount: 2
Fore
SplineSet
17 419 m 1,0,-1
 24 446 l 1,1,-1
 632 952 l 1,2,-1
 676 883 l 1,3,-1
 252 446 l 1,4,-1
 555 -13 l 1,5,-1
 482 -81 l 1,6,-1
 17 419 l 1,0,-1
EndSplineSet
Colour: ffff
EndChar

StartChar: equal
Encoding: 61 61 29
Width: 710
VWidth: 1655
GlyphClass: 2
Flags: MW
LayerCount: 2
Fore
SplineSet
88 651 m 1,0,-1
 689 651 l 1,1,-1
 661 546 l 1,2,-1
 60 546 l 1,3,-1
 88 651 l 1,0,-1
47 416 m 1,4,-1
 650 416 l 1,5,-1
 622 311 l 1,6,-1
 20 311 l 1,7,-1
 47 416 l 1,4,-1
EndSplineSet
Colour: ffff
EndChar

StartChar: greater
Encoding: 62 62 30
Width: 711
VWidth: 1655
GlyphClass: 2
Flags: MW
LayerCount: 2
Fore
SplineSet
691 419 m 1,0,-1
 67 -81 l 1,1,-1
 17 -13 l 1,2,-1
 462 446 l 1,3,-1
 177 883 l 1,4,-1
 243 952 l 1,5,-1
 693 446 l 1,6,-1
 691 419 l 1,0,-1
EndSplineSet
Colour: ffff
EndChar

StartChar: question
Encoding: 63 63 31
Width: 585
VWidth: 1655
GlyphClass: 2
Flags: MW
LayerCount: 2
Fore
SplineSet
96 504 m 1,0,-1
 91 555 l 1,1,2
 91 616 91 616 125 662 c 0,3,4
 158 707 158 707 194 730 c 0,5,6
 223 749 223 749 285 775 c 0,7,8
 345 800 345 800 370 816 c 0,9,10
 397 833 397 833 427 866 c 0,11,12
 455 897 455 897 460 941 c 0,13,14
 460 947 460 947 461 951 c 1,15,-1
 461 959 l 2,16,17
 461 1040 461 1040 388 1092 c 1,18,19
 359 1111 359 1111 338 1114 c 0,20,21
 318 1117 318 1117 317 1118 c 1,22,-1
 308 1118 l 2,23,24
 254 1118 254 1118 200 1093 c 0,25,26
 141 1066 141 1066 119 1045 c 1,27,28
 102 1053 102 1053 90 1069 c 1,29,30
 64 1098 64 1098 64 1125 c 0,31,32
 64 1153 64 1153 66 1156 c 1,33,34
 78 1229 78 1229 159 1269 c 0,35,36
 205 1292 205 1292 261 1292 c 2,37,-1
 282 1292 l 1,38,39
 372 1286 372 1286 437 1234 c 0,40,41
 503 1181 503 1181 535 1101 c 0,42,43
 567 1020 567 1020 567 957 c 0,44,45
 567 892 567 892 560 864 c 1,46,47
 540 769 540 769 460 699 c 0,48,49
 410 656 410 656 333 628 c 1,50,51
 280 607 280 607 267 594 c 0,52,53
 247 574 247 574 237 562 c 0,54,55
 212 535 212 535 210 472 c 0,56,57
 210 457 210 457 212 451 c 1,58,-1
 212 430 l 2,59,60
 212 421 212 421 217 385 c 1,61,-1
 139 369 l 1,62,63
 105 455 105 455 96 504 c 1,0,-1
188 206 m 0,64,65
 207 197 207 197 220 178 c 0,66,67
 234 159 234 159 238 143 c 0,68,69
 242 128 242 128 242 120 c 0,70,71
 242 109 242 109 234 73 c 0,72,73
 225 33 225 33 191 -1 c 128,-1,74
 157 -35 157 -35 111 -35 c 1,75,76
 72 -32 72 -32 48 -8 c 0,77,78
 26 14 26 14 21 42 c 0,79,80
 17 66 17 66 17 71 c 0,81,82
 17 77 17 77 24 108 c 0,83,84
 32 144 32 144 64 176 c 0,85,86
 99 211 99 211 134 212 c 0,87,88
 173 214 173 214 188 206 c 0,64,65
EndSplineSet
Colour: ffff
EndChar

StartChar: at
Encoding: 64 64 32
Width: 1298
VWidth: 1655
GlyphClass: 2
Flags: MW
LayerCount: 2
Fore
SplineSet
712 83 m 0,0,1
 695 104 695 104 695 159 c 0,2,3
 695 211 695 211 725 305 c 1,4,-1
 713 307 l 1,5,6
 675 227 675 227 640 177 c 0,7,8
 604 127 604 127 554 93 c 0,9,10
 504 60 504 60 453 60 c 0,11,12
 401 60 401 60 366 104 c 0,13,14
 332 146 332 146 326 204 c 1,15,16
 324 210 324 210 324 249 c 0,17,18
 324 291 324 291 347 395 c 0,19,20
 392 600 392 600 552 738 c 1,21,22
 619 790 619 790 676 790 c 0,23,24
 732 790 732 790 785 733 c 1,25,-1
 799 731 l 1,26,-1
 805 802 l 1,27,-1
 824 809 l 1,28,-1
 929 778 l 1,29,-1
 868 463 l 1,30,31
 845 298 845 298 844 296 c 2,32,-1
 841 253 l 2,33,34
 838 201 838 201 838 199 c 2,35,-1
 838 188 l 2,36,37
 838 182 838 182 844 176 c 0,38,39
 852 168 852 168 858 168 c 0,40,41
 866 168 866 168 868 170 c 1,42,-1
 876 170 l 1,43,44
 905 174 905 174 909 175 c 0,45,46
 912 176 912 176 918.5 177 c 128,-1,47
 925 178 925 178 928 179 c 0,48,49
 940 182 940 182 941 183 c 0,50,51
 943 184 943 184 952 187 c 0,52,53
 963 191 963 191 965 192 c 0,54,55
 971 196 971 196 976 199 c 0,56,57
 986 205 986 205 989 208 c 0,58,59
 991 210 991 210 1003 218 c 1,60,61
 1081 283 1081 283 1113 362 c 0,62,63
 1144 439 1144 439 1144 553 c 0,64,65
 1146 804 1146 804 936 913 c 1,66,67
 836 962 836 962 721 961 c 1,68,69
 564 961 564 961 435 876 c 128,-1,70
 306 791 306 791 242 651 c 1,71,72
 174 509 174 509 174 355 c 128,-1,73
 174 201 174 201 237 90 c 0,74,75
 299 -19 299 -19 416 -78 c 0,76,77
 532 -137 532 -137 674 -137 c 2,78,-1
 695 -137 l 1,79,80
 765 -135 765 -135 837 -117 c 0,81,82
 916 -97 916 -97 970 -67 c 1,83,84
 1038 -32 1038 -32 1051 -21 c 1,85,-1
 1087 -75 l 1,86,-1
 1078 -80 l 1,87,88
 988 -167 988 -167 864 -199 c 0,89,90
 743 -230 743 -230 660 -230 c 2,91,-1
 646 -230 l 2,92,93
 487 -230 487 -230 343 -170 c 0,94,95
 202 -111 202 -111 115 3 c 1,96,97
 16 139 16 139 17 331 c 0,98,99
 19 527 19 527 112 692 c 0,100,101
 205 856 205 856 374 955 c 0,102,103
 540 1052 540 1052 747 1052 c 2,104,-1
 756 1052 l 1,105,106
 903 1047 903 1047 1022 991 c 0,107,108
 1142 934 1142 934 1211 828 c 0,109,110
 1278 724 1278 724 1280 594 c 1,111,-1
 1280 583 l 2,112,113
 1280 455 1280 455 1218 340 c 0,114,115
 1156 225 1156 225 1049 148 c 0,116,117
 941 70 941 70 818 52 c 1,118,119
 813 50 813 50 792 51 c 2,120,-1
 759 54 l 1,121,122
 729 61 729 61 712 83 c 0,0,1
773 602 m 1,123,124
 712 693 712 693 650 693 c 2,125,-1
 643 693 l 2,126,127
 613 693 613 693 583 673 c 0,128,129
 552 652 552 652 536 625 c 1,130,131
 511 589 511 589 487 485 c 0,132,133
 464 387 464 387 464 320 c 2,134,-1
 464 307 l 2,135,136
 464 269 464 269 468 244 c 0,137,138
 472 218 472 218 476 210 c 0,139,140
 479 204 479 204 484 199 c 2,141,-1
 490 193 l 2,142,143
 491 192 l 128,-1,144
 492 191 492 191 493.5 190 c 128,-1,145
 495 189 495 189 497 188 c 0,146,147
 504 181 504 181 522 181 c 0,148,149
 541 181 541 181 564 198 c 0,150,151
 588 216 588 216 619 253 c 0,152,153
 651 291 651 291 703 398 c 0,154,155
 755 504 755 504 773 602 c 1,123,124
EndSplineSet
Colour: ffff
EndChar

StartChar: A
Encoding: 65 65 33
Width: 1273
VWidth: 1655
GlyphClass: 2
Flags: MW
LayerCount: 2
Fore
SplineSet
868 1271 m 1,0,-1
 1076 132 l 1,1,-1
 1254 81 l 1,2,-1
 1231 0 l 1,3,-1
 655 0 l 1,4,-1
 678 72 l 1,5,-1
 876 108 l 1,6,-1
 824 432 l 1,7,-1
 533 446 l 1,8,9
 522 402 522 402 500.5 344.5 c 128,-1,10
 479 287 479 287 445 220.5 c 128,-1,11
 411 154 411 154 372 99.5 c 128,-1,12
 333 45 333 45 283.5 8.5 c 128,-1,13
 234 -28 234 -28 186 -28 c 0,14,15
 127 -28 127 -28 79 10 c 128,-1,16
 31 48 31 48 13 101 c 1,17,18
 108 138 108 138 191.5 204 c 128,-1,19
 275 270 275 270 340 359.5 c 128,-1,20
 405 449 405 449 458.5 548.5 c 128,-1,21
 512 648 512 648 555 768.5 c 128,-1,22
 598 889 598 889 629 1000.5 c 128,-1,23
 660 1112 660 1112 688 1241 c 1,24,-1
 868 1271 l 1,0,-1
812 505 m 1,25,-1
 724 1062 l 1,26,-1
 720 1062 l 1,27,28
 679 861 679 861 564 536 c 1,29,-1
 812 505 l 1,25,-1
EndSplineSet
Colour: ffff
EndChar

StartChar: B
Encoding: 66 66 34
Width: 1158
VWidth: 1655
GlyphClass: 2
Flags: MW
LayerCount: 2
Fore
SplineSet
13 0 m 1,0,-1
 35 75 l 1,1,-1
 245 129 l 1,2,-1
 374 1062 l 1,3,-1
 151 1078 l 1,4,-1
 170 1155 l 1,5,6
 557 1259 557 1259 732 1260 c 128,-1,7
 907 1261 907 1261 1015 1184 c 1,8,9
 1120 1104 1120 1104 1122 985 c 1,10,11
 1122 921 1122 921 1079 845 c 1,12,13
 991 704 991 704 835 667 c 1,14,-1
 835 660 l 1,15,16
 874 653 874 653 926 634 c 0,17,18
 984 613 984 613 1021 583 c 1,19,20
 1077 541 1077 541 1108 481 c 0,21,22
 1138 423 1138 423 1138 379 c 1,23,24
 1137 350 1137 350 1137 328 c 1,25,26
 1126 231 1126 231 1059 161 c 0,27,28
 989 88 989 88 894 54 c 0,29,30
 803 21 803 21 727 10 c 0,31,32
 660 0 660 0 535 0 c 2,33,-1
 13 0 l 1,0,-1
430 101 m 1,34,35
 506 91 506 91 594 91 c 2,36,-1
 626 91 l 1,37,38
 767 94 767 94 844 144 c 1,39,40
 945 215 945 215 945 318 c 0,41,42
 945 341 945 341 943 346 c 1,43,44
 933 425 933 425 870 486 c 0,45,46
 806 548 806 548 714 572 c 0,47,48
 625 595 625 595 493 595 c 1,49,-1
 430 101 l 1,34,35
504 678 m 1,50,-1
 600 674 l 1,51,52
 706 674 706 674 766 693 c 128,-1,53
 826 712 826 712 878 767 c 0,54,55
 928 820 928 820 934 897 c 0,56,57
 934 905 934 905 936 908 c 1,58,-1
 936 920 l 2,59,60
 936 1031 936 1031 859 1100 c 0,61,62
 783 1168 783 1168 667 1176 c 1,63,64
 661 1178 661 1178 637 1178 c 0,65,66
 616 1178 616 1178 565 1175 c 1,67,-1
 504 678 l 1,50,-1
EndSplineSet
Colour: ffff
EndChar

StartChar: C
Encoding: 67 67 35
Width: 968
VWidth: 1655
GlyphClass: 2
Flags: MW
LayerCount: 2
Fore
SplineSet
728 927 m 2,0,1
 728 977 728 977 719 1014 c 0,2,3
 710 1053 710 1053 680 1081 c 1,4,5
 632 1138 632 1138 545 1135 c 1,6,7
 391 1126 391 1126 311 971 c 1,8,9
 234 831 234 831 232 571 c 1,10,11
 232 425 232 425 269 338 c 0,12,13
 307 248 307 248 363 195 c 0,14,15
 442 122 442 122 549 125 c 1,16,17
 680 125 680 125 790 241 c 1,18,19
 820 271 820 271 845 310 c 1,20,-1
 887 248 l 1,21,22
 864 190 864 190 824 142 c 0,23,24
 734 34 734 34 598 -10 c 1,25,26
 538 -28 538 -28 472 -30 c 0,27,28
 416 -31 416 -31 343 -12 c 1,29,30
 204 31 204 31 113 151 c 0,31,32
 23 269 23 269 14 455 c 1,33,-1
 14 486 l 2,34,35
 14 819 14 819 225 1064 c 0,36,37
 393 1258 393 1258 612 1255 c 1,38,39
 764 1255 764 1255 859 1170 c 1,40,41
 897 1138 897 1138 924 1088 c 0,42,43
 949 1042 949 1042 949 982 c 2,44,-1
 949 971 l 1,45,46
 944 910 944 910 910 864 c 128,-1,47
 876 818 876 818 833 806 c 0,48,49
 791 794 791 794 768 794 c 1,50,-1
 716 802 l 1,51,52
 725 838 725 838 728 904 c 1,53,-1
 728 927 l 2,0,1
EndSplineSet
Colour: ffff
EndChar

StartChar: D
Encoding: 68 68 36
Width: 1407
VWidth: 1655
GlyphClass: 2
Flags: MW
LayerCount: 2
Fore
SplineSet
13 0 m 1,0,-1
 33 77 l 1,1,-1
 242 129 l 1,2,-1
 369 1068 l 1,3,-1
 152 1085 l 1,4,-1
 173 1156 l 1,5,6
 425 1250 425 1250 750 1250 c 0,7,8
 811 1250 811 1250 822 1249 c 0,9,10
 1093 1235 1093 1235 1225 1127 c 0,11,12
 1286 1077 1286 1077 1324 1009 c 0,13,14
 1389 892 1389 892 1388 752 c 0,15,16
 1388 712 1388 712 1383 681 c 1,17,18
 1356 420 1356 420 1155 234 c 0,19,20
 968 62 968 62 685 18 c 0,21,22
 566 0 566 0 341 0 c 2,23,-1
 13 0 l 1,0,-1
439 106 m 1,24,25
 1014 106 1014 106 1148 450 c 0,26,27
 1185 546 1185 546 1185 672 c 0,28,29
 1185 795 1185 795 1132 904 c 0,30,31
 1095 982 1095 982 1031 1037 c 0,32,33
 970 1089 970 1089 854 1132 c 0,34,35
 741 1173 741 1173 673 1175 c 0,36,37
 602 1177 602 1177 566 1171 c 1,38,-1
 439 106 l 1,24,25
EndSplineSet
Colour: ffff
EndChar

StartChar: E
Encoding: 69 69 37
Width: 1221
VWidth: 1655
GlyphClass: 2
Flags: MW
LayerCount: 2
Fore
SplineSet
1063 0 m 1,0,1
 511 3 511 3 445 3 c 2,2,-1
 13 -3 l 1,3,-1
 36 80 l 1,4,-1
 254 134 l 1,5,-1
 379 1094 l 1,6,-1
 152 1117 l 1,7,-1
 172 1192 l 1,8,9
 269 1212 269 1212 505 1233 c 0,10,11
 717 1252 717 1252 905 1252 c 1,12,-1
 1202 1246 l 1,13,-1
 1122 835 l 1,14,-1
 1036 848 l 1,15,-1
 1004 1111 l 1,16,-1
 976 1117 l 1,17,18
 831 1146 831 1146 607 1143 c 1,19,-1
 574 1143 l 1,20,-1
 519 680 l 1,21,-1
 974 714 l 1,22,-1
 940 569 l 1,23,-1
 507 578 l 1,24,-1
 445 98 l 1,25,-1
 662 108 l 1,26,27
 855 119 855 119 913 132 c 1,28,29
 945 183 945 183 993 292 c 0,30,31
 1035 388 1035 388 1053 451 c 1,32,-1
 1140 440 l 1,33,-1
 1140 434 l 2,34,35
 1140 302 1140 302 1119 182 c 0,36,37
 1097 59 1097 59 1063 0 c 1,0,1
EndSplineSet
Colour: ffff
EndChar

StartChar: F
Encoding: 70 70 38
Width: 1221
VWidth: 1655
GlyphClass: 2
Flags: MW
LayerCount: 2
Fore
SplineSet
905 1252 m 1,0,-1
 1202 1246 l 1,1,-1
 1122 818 l 1,2,-1
 1027 832 l 1,3,-1
 999 1102 l 1,4,-1
 967 1107 l 1,5,6
 836 1129 836 1129 636 1142 c 1,7,-1
 574 1143 l 1,8,-1
 519 637 l 1,9,-1
 974 670 l 1,10,-1
 940 519 l 1,11,-1
 505 537 l 1,12,-1
 451 109 l 1,13,-1
 701 80 l 1,14,-1
 681 -2 l 1,15,-1
 13 -2 l 1,16,-1
 36 80 l 1,17,-1
 254 134 l 1,18,-1
 379 1094 l 1,19,-1
 152 1117 l 1,20,-1
 172 1192 l 1,21,22
 267 1212 267 1212 505 1233 c 0,23,24
 715 1252 715 1252 905 1252 c 1,0,-1
EndSplineSet
Colour: ffff
EndChar

StartChar: G
Encoding: 71 71 39
Width: 1258
VWidth: 1655
GlyphClass: 2
Flags: MW
LayerCount: 2
Fore
SplineSet
1113 843 m 1,0,-1
 1025 858 l 1,1,-1
 1014 1050 l 1,2,3
 981 1100 981 1100 900 1132 c 0,4,5
 818 1164 818 1164 701 1164 c 0,6,7
 520 1164 520 1164 387 1041 c 1,8,9
 319 976 319 976 281 861 c 0,10,11
 243 745 243 745 243 602 c 2,12,-1
 243 540 l 1,13,14
 254 334 254 334 364 206 c 0,15,16
 475 77 475 77 664 77 c 0,17,18
 796 77 796 77 854 123 c 1,19,-1
 891 437 l 1,20,-1
 659 474 l 1,21,-1
 681 557 l 1,22,-1
 1239 557 l 1,23,-1
 1218 483 l 1,24,-1
 1087 440 l 1,25,-1
 1045 88 l 1,26,27
 863 -31 863 -31 530 -33 c 0,28,29
 372 -33 372 -33 257 33 c 0,30,31
 31 160 31 160 16 468 c 1,32,-1
 16 492 l 1,33,34
 14 499 14 499 14 514 c 0,35,36
 14 649 14 649 57 771 c 0,37,38
 100 892 100 892 174 983 c 0,39,40
 325 1166 325 1166 546 1233 c 0,41,42
 656 1266 656 1266 763 1266 c 0,43,44
 1043 1266 1043 1266 1179 1166 c 1,45,-1
 1113 843 l 1,0,-1
EndSplineSet
Colour: ffff
EndChar

StartChar: H
Encoding: 72 72 40
Width: 1583
VWidth: 1655
GlyphClass: 2
Flags: MW
LayerCount: 2
Fore
SplineSet
1153 1113 m 1,0,-1
 925 1122 l 1,1,-1
 943 1197 l 1,2,3
 1178 1243 1178 1243 1412 1245 c 0,4,5
 1490 1245 1490 1245 1564 1239 c 1,6,-1
 1546 1163 l 1,7,-1
 1341 1109 l 1,8,-1
 1225 129 l 1,9,-1
 1436 81 l 1,10,-1
 1415 0 l 1,11,-1
 788 0 l 1,12,-1
 807 78 l 1,13,-1
 1029 113 l 1,14,-1
 1090 600 l 1,15,-1
 502 567 l 1,16,-1
 445 106 l 1,17,-1
 656 81 l 1,18,-1
 632 0 l 1,19,-1
 13 0 l 1,20,-1
 31 78 l 1,21,-1
 254 129 l 1,22,-1
 377 1090 l 1,23,-1
 151 1123 l 1,24,-1
 170 1199 l 1,25,26
 328 1233 328 1233 433 1239 c 0,27,28
 532 1245 532 1245 618 1245 c 128,-1,29
 704 1245 704 1245 791 1239 c 1,30,-1
 771 1164 l 1,31,-1
 572 1142 l 1,32,-1
 517 680 l 1,33,-1
 1102 701 l 1,34,-1
 1153 1113 l 1,0,-1
EndSplineSet
Colour: ffff
EndChar

StartChar: I
Encoding: 73 73 41
Width: 810
VWidth: 1655
GlyphClass: 2
Flags: MW
LayerCount: 2
Fore
SplineSet
639 0 m 1,0,-1
 13 0 l 1,1,-1
 31 78 l 1,2,-1
 254 129 l 1,3,-1
 377 1090 l 1,4,-1
 151 1123 l 1,5,-1
 170 1199 l 1,6,7
 394 1246 394 1246 634 1246 c 0,8,9
 704 1246 704 1246 791 1239 c 1,10,-1
 771 1164 l 1,11,-1
 572 1142 l 1,12,-1
 445 106 l 1,13,-1
 663 81 l 1,14,-1
 639 0 l 1,0,-1
EndSplineSet
Colour: ffff
EndChar

StartChar: J
Encoding: 74 74 42
Width: 979
VWidth: 1655
GlyphClass: 2
Flags: MW
LayerCount: 2
Fore
SplineSet
270 -365 m 0,0,1
 246 -373 246 -373 210 -375 c 0,2,3
 182 -376 182 -376 177 -374 c 1,4,5
 124 -368 124 -368 85 -339 c 128,-1,6
 46 -310 46 -310 26 -259 c 1,7,8
 13 -230 13 -230 13 -191 c 0,9,10
 13 -151 13 -151 29 -113 c 1,11,12
 119 -155 119 -155 203 -163 c 1,13,-1
 215 -163 l 1,14,15
 219 -165 219 -165 226 -165 c 0,16,17
 335 -165 335 -165 381 -89 c 1,18,19
 404 -53 404 -53 416 -17 c 0,20,21
 424 8 424 8 435 74 c 0,22,23
 439 96 439 96 443 131 c 128,-1,24
 447 166 447 166 448 172 c 0,25,26
 450 189 450 189 452 211 c 128,-1,27
 454 233 454 233 455 238 c 2,28,-1
 464 340 l 2,29,30
 473 436 473 436 491 589 c 2,31,-1
 548 1087 l 1,32,-1
 323 1117 l 1,33,-1
 339 1194 l 1,34,35
 498 1232 498 1232 678 1243 c 1,36,37
 737 1248 737 1248 820 1248 c 0,38,39
 902 1248 902 1248 960 1243 c 1,40,-1
 941 1166 l 1,41,-1
 746 1142 l 1,42,-1
 651 385 l 1,43,44
 612 103 612 103 560 -33 c 0,45,46
 509 -167 509 -167 439 -251 c 0,47,48
 372 -332 372 -332 270 -365 c 0,0,1
EndSplineSet
Colour: ffff
EndChar

StartChar: K
Encoding: 75 75 43
Width: 1341
VWidth: 1655
GlyphClass: 2
Flags: MW
LayerCount: 2
Fore
SplineSet
406 125 m 1,0,-1
 590 81 l 1,1,-1
 567 0 l 1,2,-1
 13 0 l 1,3,-1
 33 75 l 1,4,-1
 212 129 l 1,5,-1
 333 1122 l 1,6,-1
 151 1171 l 1,7,-1
 173 1248 l 1,8,-1
 724 1248 l 1,9,-1
 704 1171 l 1,10,-1
 525 1127 l 1,11,-1
 406 125 l 1,0,-1
565 512 m 1,12,13
 519 584 519 584 494 607 c 1,14,-1
 497 631 l 1,15,16
 574 687 574 687 620 738 c 2,17,-1
 962 1127 l 1,18,-1
 806 1171 l 1,19,-1
 823 1248 l 1,20,-1
 1322 1248 l 1,21,-1
 1303 1171 l 1,22,-1
 1118 1127 l 1,23,-1
 688 657 l 1,24,-1
 882 385 l 1,25,26
 999 223 999 223 1056 167 c 0,27,28
 1114 110 1114 110 1197 83 c 2,29,-1
 1231 72 l 1,30,-1
 1212 2 l 1,31,32
 1143 -21 1143 -21 1079 -23 c 1,33,34
 968 -23 968 -23 882 47 c 0,35,36
 798 115 798 115 711 263 c 2,37,-1
 565 512 l 1,12,13
EndSplineSet
Colour: ffff
EndChar

StartChar: L
Encoding: 76 76 44
Width: 1164
VWidth: 1655
GlyphClass: 2
Flags: MW
LayerCount: 2
Fore
SplineSet
1063 0 m 1,0,1
 511 3 511 3 445 3 c 2,2,-1
 13 -3 l 1,3,-1
 36 80 l 1,4,-1
 254 134 l 1,5,-1
 379 1094 l 1,6,-1
 152 1117 l 1,7,-1
 172 1192 l 1,8,9
 349 1246 349 1246 610 1246 c 0,10,11
 680 1246 680 1246 749 1241 c 128,-1,12
 818 1236 818 1236 839 1236 c 1,13,-1
 825 1155 l 1,14,-1
 578 1132 l 1,15,-1
 445 106 l 1,16,-1
 662 116 l 1,17,18
 819 126 819 126 898 139 c 1,19,20
 960 205 960 205 1048 470 c 1,21,-1
 1140 456 l 1,22,23
 1140 441 1140 441 1142 434 c 1,24,-1
 1142 408 l 2,25,26
 1142 302 1142 302 1119 179 c 128,-1,27
 1096 56 1096 56 1063 0 c 1,0,1
EndSplineSet
Colour: ffff
EndChar

StartChar: M
Encoding: 77 77 45
Width: 1715
VWidth: 1655
GlyphClass: 2
Flags: MW
LayerCount: 2
Fore
SplineSet
1380 186 m 0,0,1
 1380 134 1380 134 1412 134 c 0,2,3
 1413 134 1413 134 1434 140 c 0,4,5
 1453 145 1453 145 1484 178 c 128,-1,6
 1515 211 1515 211 1566 279 c 1,7,-1
 1614 244 l 1,8,9
 1575 95 1575 95 1442 13 c 0,10,11
 1374 -28 1374 -28 1305 -29 c 0,12,13
 1235 -30 1235 -30 1205 0 c 0,14,15
 1176 29 1176 29 1176 89 c 0,16,17
 1176 99 1176 99 1178 103 c 1,18,-1
 1178 114 l 1,19,20
 1181 192 1181 192 1201 343 c 1,21,-1
 1283 999 l 1,22,23
 1169 721 1169 721 1058 492 c 0,24,25
 953 275 953 275 872 146 c 0,26,27
 870 144 870 144 861.5 131 c 128,-1,28
 853 118 853 118 849.5 113 c 130,-1,29
 809 52 l 1,30,-1
 681 33 l 1,31,-1
 440 999 l 1,32,-1
 437 999 l 1,33,-1
 418 486 l 1,34,35
 410 312 410 312 395 236 c 0,36,37
 378 153 378 153 330 78 c 0,38,39
 260 -29 260 -29 168 -31 c 0,40,41
 127 -31 127 -31 93 -12 c 0,42,43
 60 7 60 7 38 41 c 0,44,45
 20 69 20 69 13 94 c 1,46,47
 127 145 127 145 191 233 c 1,48,49
 308 399 308 399 332 864 c 1,50,51
 334 930 334 930 336 1071 c 1,52,-1
 109 1125 l 1,53,-1
 132 1201 l 1,54,55
 365 1245 365 1245 573 1248 c 1,56,-1
 628 1055 l 1,57,-1
 812 343 l 1,58,-1
 1205 1068 l 1,59,-1
 1298 1231 l 1,60,61
 1308 1233 1308 1233 1387 1240 c 0,62,63
 1458 1246 1458 1246 1533 1246 c 0,64,65
 1612 1246 1612 1246 1696 1236 c 1,66,-1
 1673 1158 l 1,67,-1
 1456 1101 l 1,68,-1
 1385 287 l 1,69,70
 1382 235 1382 235 1382 227 c 2,71,-1
 1382 207 l 1,72,73
 1380 201 1380 201 1380 186 c 0,0,1
EndSplineSet
Colour: ffff
EndChar

StartChar: N
Encoding: 78 78 46
Width: 1525
VWidth: 1655
GlyphClass: 2
Flags: MW
LayerCount: 2
Fore
SplineSet
1016 -31 m 1,0,-1
 461 999 l 1,1,-1
 458 999 l 1,2,-1
 439 486 l 1,3,4
 414 -31 414 -31 156 -31 c 1,5,6
 68 -22 68 -22 31 49 c 1,7,8
 21 72 21 72 13 103 c 1,9,10
 142 162 142 162 202 242 c 0,11,12
 245 299 245 299 275 395 c 128,-1,13
 305 491 305 491 321 617 c 128,-1,14
 337 743 337 743 344.5 841 c 128,-1,15
 352 939 352 939 358 1071 c 1,16,-1
 132 1125 l 1,17,-1
 154 1201 l 1,18,19
 279 1226 279 1226 361.5 1235 c 128,-1,20
 444 1244 444 1244 563 1246 c 1,21,-1
 651 1078 l 1,22,-1
 1086 274 l 1,23,-1
 1157 1106 l 1,24,-1
 930 1122 l 1,25,-1
 950 1197 l 1,26,27
 1079 1225 1079 1225 1162 1235 c 128,-1,28
 1245 1245 1245 1245 1363 1245 c 0,29,30
 1434 1245 1434 1245 1506 1239 c 1,31,-1
 1485 1163 l 1,32,-1
 1280 1109 l 1,33,-1
 1176 2 l 1,34,-1
 1016 -31 l 1,0,-1
EndSplineSet
Colour: ffff
EndChar

StartChar: O
Encoding: 79 79 47
Width: 1099
VWidth: 1655
GlyphClass: 2
Flags: MW
LayerCount: 2
Fore
SplineSet
1080 744 m 1,0,1
 1077 523 1077 523 975 325 c 1,2,3
 860 108 860 108 681 21 c 0,4,5
 582 -28 582 -28 458 -28 c 128,-1,6
 334 -28 334 -28 230 45 c 0,7,8
 125 118 125 118 70 238 c 0,9,10
 14 359 14 359 14 505 c 0,11,12
 14 711 14 711 92 886 c 0,13,14
 170 1062 170 1062 313 1169 c 0,15,16
 455 1275 455 1275 637 1275 c 0,17,18
 773 1275 773 1275 879 1196 c 0,19,20
 987 1115 987 1115 1033 998 c 0,21,22
 1080 878 1080 878 1080 748 c 2,23,-1
 1080 744 l 1,0,1
257 888 m 0,24,25
 223 783 223 783 223 639 c 0,26,27
 223 494 223 494 263 375 c 0,28,29
 304 254 304 254 377 188 c 0,30,31
 453 120 453 120 546 120 c 0,32,33
 690 120 690 120 782 260 c 0,34,35
 873 399 873 399 873 625 c 0,36,37
 873 768 873 768 833 881 c 0,38,39
 793 995 793 995 712 1063 c 0,40,41
 633 1130 633 1130 531 1130 c 128,-1,42
 429 1130 429 1130 361 1063 c 0,43,44
 292 995 292 995 257 888 c 0,24,25
EndSplineSet
Colour: ffff
EndChar

StartChar: P
Encoding: 80 80 48
Width: 1182
VWidth: 1655
GlyphClass: 2
Flags: MW
LayerCount: 2
Fore
SplineSet
545 534 m 1,0,1
 614 541 614 541 658 553 c 1,2,3
 807 588 807 588 888 670 c 128,-1,4
 969 752 969 752 969 881 c 0,5,6
 969 1009 969 1009 880 1100 c 128,-1,7
 791 1191 791 1191 636 1191 c 0,8,9
 602 1191 602 1191 578 1186 c 1,10,-1
 444 116 l 1,11,-1
 672 84 l 1,12,-1
 648 0 l 1,13,-1
 13 0 l 1,14,-1
 31 78 l 1,15,-1
 247 132 l 1,16,-1
 370 1066 l 1,17,-1
 154 1089 l 1,18,-1
 170 1158 l 1,19,20
 463 1260 463 1260 732 1262 c 1,21,22
 941 1262 941 1262 1052 1172 c 128,-1,23
 1163 1082 1163 1082 1163 913 c 0,24,25
 1163 740 1163 740 1006 610 c 1,26,27
 928 547 928 547 813 506 c 128,-1,28
 698 465 698 465 551 451 c 1,29,-1
 545 534 l 1,0,1
EndSplineSet
Colour: ffff
EndChar

StartChar: Q
Encoding: 81 81 49
Width: 1109
VWidth: 1655
GlyphClass: 2
Flags: MW
LayerCount: 2
Fore
SplineSet
338 1052 m 0,0,1
 212 920 212 920 215 651 c 1,2,3
 215 420 215 420 279 293 c 0,4,5
 331 191 331 191 425 144 c 1,6,7
 477 116 477 116 518 116 c 0,8,9
 559 116 559 116 564 118 c 1,10,11
 640 127 640 127 697 168 c 0,12,13
 800 244 800 244 839 395 c 1,14,15
 865 480 865 480 865 602 c 0,16,17
 865 610 865 610 862 683 c 1,18,19
 841 967 841 967 690 1078 c 1,20,21
 620 1134 620 1134 528 1132 c 1,22,23
 416 1133 416 1133 338 1052 c 0,0,1
631 1275 m 2,24,-1
 652 1275 l 1,25,26
 867 1263 867 1263 975 1085 c 0,27,28
 1066 934 1066 934 1066 736 c 0,29,30
 1066 649 1066 649 1046 555 c 0,31,32
 1007 364 1007 364 908 223 c 0,33,34
 808 81 808 81 653 14 c 1,35,36
 666 -89 666 -89 746 -155 c 0,37,38
 804 -202 804 -202 873 -202 c 2,39,-1
 878 -202 l 2,40,41
 919 -202 919 -202 970 -183 c 0,42,43
 1025 -162 1025 -162 1068 -134 c 1,44,-1
 1090 -216 l 1,45,46
 978 -367 978 -367 805 -385 c 1,47,-1
 790 -385 l 1,48,49
 784 -387 784 -387 775 -386 c 1,50,51
 660 -386 660 -386 594 -314 c 128,-1,52
 528 -242 528 -242 519 -120 c 1,53,-1
 519 -103 l 1,54,55
 516 -97 516 -97 518 -74 c 0,56,57
 521 -33 521 -33 523 -21 c 1,58,59
 498 -26 498 -26 450 -26 c 0,60,61
 408 -26 408 -26 364 -14 c 1,62,63
 229 19 229 19 131 135 c 1,64,65
 12 279 12 279 14 534 c 1,66,67
 14 888 14 888 244 1109 c 0,68,69
 342 1202 342 1202 467 1246 c 1,70,71
 542 1275 542 1275 631 1275 c 2,24,-1
EndSplineSet
Colour: ffff
EndChar

StartChar: R
Encoding: 82 82 50
Width: 1255
VWidth: 1655
GlyphClass: 2
Flags: MW
LayerCount: 2
Fore
SplineSet
429 106 m 1,0,-1
 613 72 l 1,1,-1
 594 0 l 1,2,-1
 13 0 l 1,3,-1
 31 75 l 1,4,-1
 245 127 l 1,5,-1
 370 1065 l 1,6,-1
 149 1078 l 1,7,-1
 163 1155 l 1,8,9
 263 1189 263 1189 429 1224 c 0,10,11
 596 1259 596 1259 672 1259 c 0,12,13
 752 1259 752 1259 760 1257 c 1,14,15
 1029 1238 1029 1238 1106 1048 c 0,16,17
 1124 1003 1124 1003 1123 967 c 1,18,19
 1123 854 1123 854 1055 765 c 1,20,21
 1004 702 1004 702 923 654 c 0,22,23
 836 603 836 603 760 574 c 1,24,-1
 760 571 l 1,25,-1
 907 325 l 1,26,27
 954 242 954 242 984 206 c 128,-1,28
 1014 170 1014 170 1054 144 c 0,29,30
 1091 120 1091 120 1157 106 c 1,31,-1
 1236 91 l 1,32,-1
 1229 31 l 1,33,34
 1147 -18 1147 -18 1057 -18 c 0,35,36
 904 -18 904 -18 809 108 c 0,37,38
 785 140 785 140 743 218 c 2,39,-1
 618 453 l 2,40,41
 612 463 612 463 604.5 474 c 128,-1,42
 597 485 597 485 593.5 491 c 128,-1,43
 590 497 590 497 588 500 c 2,44,-1
 551 546 l 1,45,-1
 534 567 l 1,46,-1
 545 597 l 1,47,-1
 623 615 l 1,48,49
 795 650 795 650 862 739 c 0,50,51
 889 775 889 775 906 821 c 0,52,53
 920 860 920 860 920 908 c 0,54,55
 920 1017 920 1017 848 1098 c 128,-1,56
 776 1179 776 1179 665 1179 c 0,57,58
 610 1179 610 1179 574 1168 c 1,59,-1
 429 106 l 1,0,-1
EndSplineSet
Colour: ffff
EndChar

StartChar: S
Encoding: 83 83 51
Width: 919
VWidth: 1655
GlyphClass: 2
Flags: MW
LayerCount: 2
Fore
SplineSet
235 415 m 1,0,1
 225 368 225 368 221.5 325.5 c 128,-1,2
 218 283 218 283 224.5 236.5 c 128,-1,3
 231 190 231 190 250.5 157 c 128,-1,4
 270 124 270 124 312 102 c 128,-1,5
 354 80 354 80 416 80 c 0,6,7
 498 80 498 80 557 134 c 128,-1,8
 616 188 616 188 616 262 c 0,9,10
 616 316 616 316 569 377 c 128,-1,11
 522 438 522 438 455.5 496 c 128,-1,12
 389 554 389 554 322.5 616 c 128,-1,13
 256 678 256 678 209 754 c 128,-1,14
 162 830 162 830 162 906 c 0,15,16
 162 1009 162 1009 224 1095.5 c 128,-1,17
 286 1182 286 1182 383.5 1230 c 128,-1,18
 481 1278 481 1278 586 1278 c 0,19,20
 768 1278 768 1278 900 1178 c 1,21,-1
 795 832 l 1,22,-1
 707 851 l 1,23,-1
 700 1101 l 1,24,25
 680 1134 680 1134 636 1159 c 128,-1,26
 592 1184 592 1184 541 1184 c 0,27,28
 464 1184 464 1184 409 1133 c 128,-1,29
 354 1082 354 1082 354 1005 c 0,30,31
 354 962 354 962 379.5 915 c 128,-1,32
 405 868 405 868 446 825 c 128,-1,33
 487 782 487 782 536.5 737 c 128,-1,34
 586 692 586 692 635.5 645.5 c 128,-1,35
 685 599 685 599 726 552.5 c 128,-1,36
 767 506 767 506 792.5 452.5 c 128,-1,37
 818 399 818 399 818 348 c 0,38,39
 818 265 818 265 779.5 194 c 128,-1,40
 741 123 741 123 677.5 76 c 128,-1,41
 614 29 614 29 535 2.5 c 128,-1,42
 456 -24 456 -24 374 -24 c 0,43,44
 285 -24 285 -24 205 2.5 c 128,-1,45
 125 29 125 29 69 89 c 128,-1,46
 13 149 13 149 13 232 c 0,47,48
 13 333 13 333 84.5 386.5 c 128,-1,49
 156 440 156 440 235 415 c 1,0,1
EndSplineSet
Colour: ffff
EndChar

StartChar: T
Encoding: 84 84 52
Width: 1121
VWidth: 1655
GlyphClass: 2
Flags: MW
LayerCount: 2
Fore
SplineSet
440 1123 m 1,0,1
 310 1141 310 1141 267 1140 c 0,2,3
 256 1140 256 1140 241 1139.5 c 128,-1,4
 226 1139 226 1139 217.5 1139 c 128,-1,5
 209 1139 209 1139 205 1138 c 1,6,-1
 109 818 l 1,7,-1
 14 832 l 1,8,-1
 14 1224 l 1,9,10
 279 1247 279 1247 626 1252 c 1,11,-1
 737 1252 l 1,12,-1
 1102 1246 l 1,13,-1
 1021 818 l 1,14,-1
 926 832 l 1,15,-1
 896 1117 l 1,16,17
 762 1140 762 1140 642 1143 c 1,18,-1
 518 109 l 1,19,-1
 768 80 l 1,20,-1
 750 -2 l 1,21,-1
 81 -2 l 1,22,-1
 104 80 l 1,23,-1
 321 134 l 1,24,-1
 440 1123 l 1,0,1
EndSplineSet
Colour: ffff
EndChar

StartChar: U
Encoding: 85 85 53
Width: 1445
VWidth: 1655
GlyphClass: 2
Flags: MW
LayerCount: 2
Fore
SplineSet
235 1087 m 1,0,-1
 13 1123 l 1,1,-1
 35 1201 l 1,2,3
 279 1245 279 1245 527 1245 c 1,4,-1
 651 1243 l 1,5,-1
 633 1166 l 1,6,-1
 434 1138 l 1,7,-1
 386 745 l 1,8,9
 386 735 386 735 384 721 c 0,10,11
 383 717 383 717 380.5 692 c 128,-1,12
 378 667 378 667 375 647 c 0,13,14
 372 626 372 626 370 596 c 2,15,-1
 367 566 l 2,16,17
 365 547 365 547 365 487 c 0,18,19
 365 433 365 433 369 404 c 0,20,21
 375 362 375 362 383 329 c 1,22,23
 406 246 406 246 477 188 c 1,24,25
 553 123 553 123 656 123 c 0,26,27
 760 123 760 123 831 170 c 0,28,29
 900 216 900 216 938 291 c 0,30,31
 975 365 975 365 999 534 c 1,32,-1
 1073 1111 l 1,33,-1
 848 1120 l 1,34,-1
 866 1197 l 1,35,36
 1075 1243 1075 1243 1314 1243 c 0,37,38
 1337 1243 1337 1243 1426 1239 c 1,39,-1
 1406 1163 l 1,40,-1
 1199 1096 l 1,41,-1
 1114 517 l 2,42,43
 1080 286 1080 286 1010 178 c 0,44,45
 971 119 971 119 930 85 c 0,46,47
 891 53 891 53 825 19 c 1,48,49
 713 -34 713 -34 594 -34 c 2,50,-1
 584 -34 l 1,51,52
 391 -25 391 -25 285 83 c 1,53,54
 164 204 164 204 163 425 c 0,55,56
 163 510 163 510 189 702 c 1,57,-1
 235 1087 l 1,0,-1
EndSplineSet
Colour: ffff
EndChar

StartChar: V
Encoding: 86 86 54
Width: 1095
VWidth: 1655
GlyphClass: 2
Flags: MW
LayerCount: 2
Fore
SplineSet
724 1201 m 1,0,1
 787 1264 787 1264 871 1264 c 0,2,3
 992 1264 992 1264 1050 1150 c 1,4,5
 1076 1102 1076 1102 1076 1024 c 0,6,7
 1076 1018 1076 1018 1073 962 c 1,8,9
 1053 772 1053 772 952 547 c 0,10,11
 849 319 849 319 711 142 c 1,12,13
 635 51 635 51 588 5 c 1,14,-1
 444 -26 l 1,15,-1
 235 1081 l 1,16,-1
 13 1122 l 1,17,-1
 33 1197 l 1,18,19
 233 1243 233 1243 423 1246 c 1,20,-1
 610 188 l 1,21,-1
 618 188 l 1,22,23
 675 248 675 248 726 327 c 0,24,25
 834 497 834 497 869 716 c 0,26,27
 876 754 876 754 876 817 c 0,28,29
 876 950 876 950 827 1058 c 1,30,31
 783 1150 783 1150 724 1201 c 1,0,1
EndSplineSet
Colour: ffff
EndChar

StartChar: W
Encoding: 87 87 55
Width: 1562
VWidth: 1655
GlyphClass: 2
Flags: MW
LayerCount: 2
Fore
SplineSet
840 -28 m 1,0,-1
 811 621 l 1,1,-1
 801 621 l 1,2,3
 712 371 712 371 590 158 c 1,4,5
 549 89 549 89 496 5 c 1,6,-1
 322 -26 l 1,7,-1
 230 1081 l 1,8,-1
 13 1122 l 1,9,-1
 40 1197 l 1,10,11
 248 1243 248 1243 437 1246 c 1,12,-1
 504 237 l 1,13,-1
 514 237 l 1,14,15
 664 454 664 454 755 752 c 1,16,17
 793 881 793 881 822 999 c 1,18,-1
 971 1034 l 1,19,-1
 1023 195 l 1,20,-1
 1031 195 l 1,21,22
 1234 410 1234 410 1297 709 c 1,23,24
 1316 807 1316 807 1316 888 c 0,25,26
 1316 1048 1316 1048 1248 1207 c 1,27,28
 1313 1254 1313 1254 1388 1252 c 1,29,-1
 1394 1252 l 1,30,31
 1512 1243 1512 1243 1536 1130 c 1,32,33
 1543 1102 1543 1102 1543 1041 c 0,34,35
 1543 976 1543 976 1523 892 c 1,36,37
 1487 712 1487 712 1372 517 c 1,38,39
 1267 331 1267 331 1123 162 c 1,40,41
 1089 116 1089 116 982 3 c 1,42,-1
 840 -28 l 1,0,-1
EndSplineSet
Colour: ffff
EndChar

StartChar: X
Encoding: 88 88 56
Width: 1317
VWidth: 1655
GlyphClass: 2
Flags: MW
LayerCount: 2
Fore
SplineSet
340 1071 m 1,0,-1
 98 1122 l 1,1,-1
 117 1197 l 1,2,3
 268 1231 268 1231 347 1237 c 0,4,5
 421 1243 421 1243 492 1246 c 1,6,-1
 725 729 l 1,7,8
 748 792 748 792 768 829 c 1,9,10
 811 925 811 925 880 1036 c 128,-1,11
 949 1147 949 1147 1003 1192 c 1,12,13
 1078 1252 1078 1252 1154 1252 c 128,-1,14
 1230 1252 1230 1252 1270 1194 c 1,15,16
 1293 1157 1293 1157 1296 1140 c 0,17,18
 1298 1130 1298 1130 1298 1092 c 0,19,20
 1298 1056 1298 1056 1275 1019 c 1,21,22
 1236 1029 1236 1029 1195 1029 c 1,23,-1
 1149 1026 l 1,24,25
 971 1002 971 1002 842 797 c 1,26,27
 803 730 803 730 768 639 c 1,28,-1
 896 357 l 2,29,30
 954 231 954 231 999 184 c 0,31,32
 1022 161 1022 161 1050 162 c 0,33,34
 1079 164 1079 164 1101 184 c 1,35,36
 1147 218 1147 218 1198 298 c 1,37,-1
 1247 264 l 1,38,39
 1228 194 1228 194 1201 151 c 0,40,41
 1129 37 1129 37 1026 -2 c 1,42,43
 987 -16 987 -16 955 -14 c 1,44,45
 882 -14 882 -14 829 39 c 0,46,47
 802 65 802 65 789 88 c 0,48,49
 771 117 771 117 725 220 c 2,50,-1
 587 529 l 1,51,52
 535 388 535 388 434 211 c 1,53,54
 360 85 360 85 295 35 c 1,55,56
 236 -12 236 -12 171 -10 c 1,57,-1
 146 -8 l 1,58,59
 92 1 92 1 59 39 c 0,60,61
 15 88 15 88 13 142 c 0,62,63
 12 194 12 194 28 228 c 1,64,65
 58 225 58 225 92 225 c 1,66,-1
 154 228 l 1,67,68
 351 249 351 249 460 446 c 0,69,70
 493 504 493 504 542 623 c 1,71,-1
 340 1071 l 1,0,-1
EndSplineSet
Colour: ffff
EndChar

StartChar: Y
Encoding: 89 89 57
Width: 1097
VWidth: 1655
GlyphClass: 2
Flags: MW
LayerCount: 2
Fore
SplineSet
613 680 m 1,0,1
 569 532 569 532 548 359 c 1,2,-1
 519 106 l 1,3,-1
 732 81 l 1,4,-1
 711 0 l 1,5,-1
 85 0 l 1,6,-1
 104 83 l 1,7,-1
 325 129 l 1,8,-1
 364 423 l 1,9,10
 374 490 374 490 374 569 c 0,11,12
 374 749 374 749 307 893 c 1,13,14
 215 1083 215 1083 13 1111 c 1,15,16
 28 1186 28 1186 78 1221 c 0,17,18
 130 1257 130 1257 196 1262 c 1,19,-1
 207 1262 l 2,20,21
 368 1262 368 1262 451 1086 c 0,22,23
 505 970 505 970 517 812 c 1,24,25
 520 714 520 714 519 702 c 1,26,-1
 519 664 l 1,27,-1
 535 664 l 1,28,29
 570 815 570 815 637 962 c 1,30,31
 762 1249 762 1249 938 1249 c 2,32,-1
 956 1249 l 1,33,34
 1013 1243 1013 1243 1045 1204 c 0,35,36
 1078 1164 1078 1164 1078 1118 c 0,37,38
 1078 1098 1078 1098 1074 1087 c 1,39,40
 1010 1084 1010 1084 941 1063 c 0,41,42
 863 1040 863 1040 804 995 c 1,43,44
 734 938 734 938 693 869 c 0,45,46
 655 804 655 804 613 680 c 1,0,1
EndSplineSet
Colour: ffff
EndChar

StartChar: Z
Encoding: 90 90 58
Width: 1109
VWidth: 1655
GlyphClass: 2
Flags: MW
LayerCount: 2
Fore
SplineSet
167 1248 m 1,0,-1
 1090 1248 l 1,1,-1
 1081 1171 l 1,2,-1
 235 94 l 1,3,-1
 445 103 l 1,4,5
 685 117 685 117 811 139 c 1,6,7
 886 316 886 316 913 453 c 1,8,-1
 1004 440 l 1,9,10
 1004 418 1004 418 1006 409 c 1,11,-1
 1006 378 l 1,12,13
 1003 165 1003 165 976 42 c 1,14,-1
 966 0 l 1,15,-1
 13 0 l 1,16,-1
 18 103 l 1,17,-1
 853 1152 l 1,18,-1
 328 1135 l 1,19,-1
 253 874 l 1,20,-1
 151 900 l 1,21,-1
 167 1248 l 1,0,-1
EndSplineSet
Colour: ffff
EndChar

StartChar: bracketleft
Encoding: 91 91 59
Width: 592
VWidth: 1655
GlyphClass: 2
Flags: MW
LayerCount: 2
Fore
SplineSet
378 -378 m 1,0,-1
 17 -380 l 1,1,-1
 220 1266 l 1,2,-1
 575 1266 l 1,3,-1
 575 1175 l 1,4,-1
 358 1154 l 1,5,-1
 183 -263 l 1,6,-1
 401 -282 l 1,7,-1
 378 -378 l 1,0,-1
EndSplineSet
Colour: ffff
EndChar

StartChar: backslash
Encoding: 92 92 60
Width: 430
VWidth: 1655
GlyphClass: 2
Flags: MW
LayerCount: 2
Fore
SplineSet
150 1275 m 1,0,-1
 413 -380 l 1,1,-1
 284 -372 l 1,2,-1
 17 1283 l 1,3,-1
 150 1275 l 1,0,-1
EndSplineSet
Colour: ffff
EndChar

StartChar: bracketright
Encoding: 93 93 61
Width: 595
VWidth: 1655
GlyphClass: 2
Flags: MW
LayerCount: 2
Fore
SplineSet
17 -378 m 1,0,-1
 19 -282 l 1,1,-1
 239 -263 l 1,2,-1
 413 1154 l 1,3,-1
 200 1175 l 1,4,-1
 223 1266 l 1,5,-1
 578 1266 l 1,6,-1
 378 -380 l 1,7,-1
 17 -378 l 1,0,-1
EndSplineSet
Colour: ffff
EndChar

StartChar: asciicircum
Encoding: 94 94 62
Width: 668
VWidth: 1655
GlyphClass: 2
Flags: MW
LayerCount: 2
Fore
SplineSet
406 1224 m 1,0,-1
 648 808 l 1,1,-1
 586 771 l 1,2,-1
 353 1052 l 1,3,-1
 344 1052 l 1,4,-1
 66 776 l 1,5,-1
 20 809 l 1,6,-1
 353 1212 l 1,7,-1
 406 1224 l 1,0,-1
EndSplineSet
Colour: ffff
EndChar

StartChar: underscore
Encoding: 95 95 63
Width: 916
VWidth: 1655
GlyphClass: 2
Flags: MW
LayerCount: 2
Fore
SplineSet
53 -28 m 1,0,-1
 887 -28 l 1,1,-1
 863 -134 l 1,2,-1
 28 -134 l 1,3,-1
 53 -28 l 1,0,-1
EndSplineSet
Colour: ffff
EndChar

StartChar: grave
Encoding: 96 96 64
Width: 322
VWidth: 1655
GlyphClass: 2
Flags: MW
LayerCount: 2
Fore
SplineSet
40 1626 m 1,0,-1
 154 1663 l 1,1,-1
 282 1336 l 1,2,-1
 226 1303 l 1,3,-1
 40 1626 l 1,0,-1
EndSplineSet
Colour: ffff
EndChar

StartChar: a
Encoding: 97 97 65
Width: 859
VWidth: 1655
GlyphClass: 2
Flags: MW
LayerCount: 2
Fore
SplineSet
167 288 m 0,0,1
 167 198 167 198 180 166 c 0,2,3
 194 132 194 132 232 132 c 0,4,5
 304 132 304 132 399 285 c 0,6,7
 493 437 493 437 532 660 c 1,8,9
 517 702 517 702 473 736 c 128,-1,10
 429 770 429 770 381 770 c 0,11,12
 334 770 334 770 289 722 c 0,13,14
 245 675 245 675 219 595 c 0,15,16
 167 440 167 440 167 288 c 0,0,1
592 918 m 1,17,-1
 711 881 l 1,18,-1
 639 491 l 1,19,-1
 609 253 l 2,20,21
 602 198 602 198 602 168 c 0,22,23
 602 116 602 116 646 116 c 0,24,25
 673 116 673 116 718 166 c 0,26,27
 766 218 766 218 799 275 c 1,28,-1
 840 240 l 1,29,30
 784 100 784 100 719 35 c 0,31,32
 653 -31 653 -31 548 -31 c 0,33,34
 499 -31 499 -31 471 6 c 0,35,36
 445 41 445 41 445 113 c 128,-1,37
 445 185 445 185 481 287 c 1,38,-1
 468 287 l 1,39,40
 416 162 416 162 330 70 c 0,41,42
 245 -21 245 -21 162 -21 c 128,-1,43
 79 -21 79 -21 46 41 c 0,44,45
 13 102 13 102 13 225 c 0,46,47
 13 349 13 349 70 505 c 0,48,49
 128 663 128 663 223 779 c 128,-1,50
 318 895 318 895 414 895 c 0,51,52
 508 895 508 895 558 820 c 1,53,-1
 567 820 l 1,54,-1
 581 909 l 1,55,-1
 592 918 l 1,17,-1
EndSplineSet
Colour: ffff
EndChar

StartChar: b
Encoding: 98 98 66
Width: 752
VWidth: 1655
GlyphClass: 2
Flags: MW
LayerCount: 2
Back
SplineSet
442 762 m 4,0,1
 374.5 762 374.5 762 298 618 c 128,-1,2
 223 477 223 477 196 249 c 1,3,-1
 183 153 l 1,4,5
 230 85 230 85 346 88 c 1,6,7
 433 88 433 88 499 184 c 128,-1,8
 565 280 565 280 565 505 c 0,9,10
 565 620 565 620 534 691 c 128,-1,11
 503 762 503 762 442 762 c 4,0,1
318 1245 m 5,12,-1
 269 845 l 1,13,-1
 219 592 l 1,14,-1
 228 592 l 1,15,16
 258 719 258 719 336 806 c 128,-1,17
 414 893 414 893 511 893 c 128,-1,18
 608 893 608 893 670 792 c 128,-1,19
 732 691 732 691 732 535 c 128,-1,20
 732 378 732 378 672 250 c 128,-1,21
 613 125 613 125 500 50 c 128,-1,22
 388 -24 388 -24 244 -24 c 128,-1,23
 99 -24 99 -24 17 49 c 1,24,-1
 149 1142 l 1,25,-1
 13 1170 l 1,26,-1
 24 1243 l 1,27,-1
 303 1266 l 1,28,-1
 318 1245 l 5,12,-1
10 0 m 5,29,-1
 21 79 l 1,30,-1
 175 116 l 1,31,-1
 175 1147 l 1,32,-1
 15 1201 l 1,33,-1
 27 1277 l 1,34,-1
 316 1299 l 1,35,-1
 341 1275 l 1,36,-1
 341 850 l 1,37,-1
 325 744 l 1,38,-1
 335 744 l 1,39,40
 476 900 476 900 629 900 c 0,41,42
 684 900 684 900 725.5 886.5 c 0
 767 873 767 873 801.5 841 c 0
 836 809 836 809 854 748 c 0
 872 687 872 687 872 599 c 2,43,-1
 872 114 l 1,44,-1
 1017 79 l 1,45,-1
 1005 0 l 1,46,-1
 556 0 l 1,47,-1
 568 74 l 1,48,-1
 703 114 l 1,49,-1
 706 580 l 2,50,51
 706 677 706 677 655 720.5 c 0
 604 764 604 764 534 764 c 0,52,53
 426 764 426 764 341 675 c 1,54,-1
 341 116 l 1,55,-1
 487 80 l 1,56,-1
 475 0 l 1,57,-1
 10 0 l 5,29,-1
EndSplineSet
Fore
SplineSet
320 1278 m 1,0,-1
 269 845 l 1,1,-1
 219 592 l 1,2,-1
 228 592 l 1,3,4
 258 719 258 719 336 806 c 128,-1,5
 414 893 414 893 511 893 c 128,-1,6
 608 893 608 893 670 792 c 128,-1,7
 732 691 732 691 732 535 c 0,8,9
 732 378 732 378 672 250 c 0,10,11
 613 125 613 125 500 50 c 0,12,13
 388 -24 388 -24 244 -24 c 0,14,15
 99 -24 99 -24 17 49 c 1,16,-1
 151 1175 l 1,17,-1
 15 1203 l 1,18,-1
 26 1276 l 1,19,-1
 305 1299 l 1,20,-1
 320 1278 l 1,0,-1
442 762 m 0,21,22
 374 762 374 762 298 618 c 0,23,24
 223 477 223 477 196 249 c 1,25,-1
 183 153 l 1,26,27
 230 85 230 85 346 88 c 1,28,29
 433 88 433 88 499 184 c 128,-1,30
 565 280 565 280 565 505 c 0,31,32
 565 620 565 620 534 691 c 128,-1,33
 503 762 503 762 442 762 c 0,21,22
EndSplineSet
Colour: ffff
EndChar

StartChar: c
Encoding: 99 99 67
Width: 620
VWidth: 1655
GlyphClass: 2
Flags: MW
LayerCount: 2
Fore
SplineSet
462 592 m 1,0,1
 462 609 462 609 452 663 c 0,2,3
 433 766 433 766 392 790 c 1,4,5
 377 797 377 797 360 796 c 1,6,7
 270 796 270 796 222 686 c 0,8,9
 174 577 174 577 174 392 c 0,10,11
 174 296 174 296 189 237 c 0,12,13
 204 180 204 180 246 139 c 0,14,15
 289 98 289 98 359 98 c 2,16,-1
 361 98 l 2,17,18
 407 98 407 98 456 133 c 0,19,20
 504 167 504 167 536 227 c 1,21,-1
 572 195 l 1,22,23
 552 106 552 106 462 38 c 0,24,25
 370 -31 370 -31 271 -31 c 0,26,27
 145 -31 145 -31 79 68 c 0,28,29
 14 166 14 166 14 332 c 0,30,31
 14 443 14 443 50 548 c 0,32,33
 85 649 85 649 144 727 c 0,34,35
 201 801 201 801 275 847 c 0,36,37
 350 893 350 893 428 893 c 0,38,39
 507 893 507 893 554 847 c 128,-1,40
 601 801 601 801 601 732 c 0,41,42
 601 664 601 664 568 632 c 0,43,44
 536 601 536 601 462 592 c 1,0,1
EndSplineSet
Colour: ffff
EndChar

StartChar: d
Encoding: 100 100 68
Width: 854
VWidth: 1655
GlyphClass: 2
Flags: MW
LayerCount: 2
Back
SplineSet
168 287 m 2,0,1
 168 191 168 191 178 151 c 128,-1,2
 188.5 109 188.5 109 223 109 c 0,3,4
 282 109 282 109 346 188 c 128,-1,5
 408 265 408 265 455 398 c 128,-1,6
 502 532 502 532 517 678 c 1,7,8
 470 776 470 776 385 775 c 0,9,10
 323 775 323 775 271 705 c 128,-1,11
 218 634 218 634 193 529 c 128,-1,12
 168 425 168 425 168 305 c 2,13,-1
 168 287 l 2,0,1
608 284 m 1,14,15
 597 216 597 216 598 185 c 128,-1,16
 600 148 600 148 609 136 c 128,-1,17
 619 123 619 123 643 123 c 128,-1,18
 666 123 666 123 713 170 c 0,19,20
 759 215 759 215 790 270 c 1,21,-1
 830 242 l 1,22,23
 752 -25 752 -25 534 -24 c 0,24,25
 450 -24 450 -24 450 98 c 0,26,27
 450 174 450 174 476 259 c 1,28,-1
 463 263 l 1,29,30
 414 129 414 129 338 51 c 128,-1,31
 263 -26 263 -26 176 -26 c 128,-1,32
 89 -26 89 -26 48 41 c 128,-1,33
 8 106 8 106 8 225 c 128,-1,34
 8 345 8 345 63 494 c 128,-1,35
 119 646 119 646 217 763 c 128,-1,36
 316 882 316 882 434 882 c 0,37,38
 512 882 512 882 527 851 c 1,39,-1
 541 855 l 1,40,-1
 561 1142 l 1,41,-1
 427 1170 l 1,42,-1
 437 1243 l 1,43,-1
 712 1269 l 1,44,-1
 731 1245 l 1,45,-1
 608 284 l 1,14,15
EndSplineSet
Fore
SplineSet
228 109 m 0,0,1
 358 109 358 109 460 398 c 0,2,3
 507 532 507 532 522 678 c 1,4,5
 476 775 476 775 390 775 c 0,6,7
 331 775 331 775 286.5 727 c 128,-1,8
 242 679 242 679 218.5 603.5 c 128,-1,9
 195 528 195 528 184 452.5 c 128,-1,10
 173 377 173 377 173 305 c 0,11,12
 173 252 173 252 174 225 c 128,-1,13
 175 198 175 198 180 166.5 c 128,-1,14
 185 135 185 135 197 122 c 128,-1,15
 209 109 209 109 228 109 c 0,0,1
736 1275 m 1,16,-1
 613 284 l 1,17,18
 602 216 602 216 603 185 c 0,19,20
 605 148 605 148 614 136 c 0,21,22
 624 123 624 123 648 123 c 0,23,24
 671 123 671 123 718 170 c 0,25,26
 764 215 764 215 795 270 c 1,27,-1
 835 242 l 1,28,29
 757 -25 757 -25 539 -24 c 0,30,31
 455 -24 455 -24 455 98 c 0,32,33
 455 174 455 174 481 259 c 1,34,-1
 468 263 l 1,35,36
 448 208 448 208 423.5 161.5 c 128,-1,37
 399 115 399 115 364 70 c 128,-1,38
 329 25 329 25 282 -0.5 c 128,-1,39
 235 -26 235 -26 181 -26 c 0,40,41
 13 -26 13 -26 13 225 c 0,42,43
 13 301 13 301 33 389.5 c 128,-1,44
 53 478 53 478 91.5 565 c 128,-1,45
 130 652 130 652 180.5 723 c 128,-1,46
 231 794 231 794 299 838 c 128,-1,47
 367 882 367 882 439 882 c 0,48,49
 517 882 517 882 532 851 c 1,50,-1
 546 855 l 1,51,-1
 566 1172 l 1,52,-1
 432 1200 l 1,53,-1
 442 1273 l 1,54,-1
 717 1299 l 1,55,-1
 736 1275 l 1,16,-1
EndSplineSet
Colour: ffff
EndChar

StartChar: e
Encoding: 101 101 69
Width: 617
VWidth: 1655
GlyphClass: 2
Flags: MW
LayerCount: 2
Fore
SplineSet
446 698 m 0,0,1
 446 744 446 744 426 767.5 c 128,-1,2
 406 791 406 791 366 790 c 1,3,4
 198 790 198 790 174 414 c 1,5,6
 446 515 446 515 446 698 c 0,0,1
554 849 m 0,7,8
 598 802 598 802 598 726 c 0,9,10
 598 582 598 582 450 477 c 0,11,12
 330 391 330 391 174 341 c 1,13,14
 180 103 180 103 336 103 c 0,15,16
 452 103 452 103 542 246 c 1,17,-1
 579 214 l 1,18,19
 545 115 545 115 456 41 c 0,20,21
 369 -31 369 -31 255 -31 c 0,22,23
 142 -31 142 -31 78 56 c 0,24,25
 14 142 14 142 14 293 c 0,26,27
 14 443 14 443 72 580 c 0,28,29
 132 720 132 720 228 808 c 0,30,31
 326 897 326 897 431 897 c 0,32,33
 509 897 509 897 554 849 c 0,7,8
EndSplineSet
Colour: ffff
EndChar

StartChar: f
Encoding: 102 102 70
Width: 990
VWidth: 1655
GlyphClass: 2
Flags: MW
LayerCount: 2
Fore
SplineSet
72 -132 m 1,0,1
 171 -228 171 -228 273 -228 c 0,2,3
 305 -228 305 -228 321 -218 c 1,4,5
 353 -203 353 -203 365 -150 c 1,6,7
 387 -21 387 -21 395 102 c 0,8,9
 398 145 398 145 400.5 198.5 c 128,-1,10
 403 252 403 252 404 260 c 0,11,12
 405 273 405 273 405.5 286 c 128,-1,13
 406 299 406 299 406.5 305 c 128,-1,14
 407 311 407 311 407 313 c 2,15,-1
 439 775 l 1,16,-1
 331 766 l 1,17,-1
 343 871 l 1,18,-1
 451 855 l 1,19,20
 461 914 461 914 461 925 c 1,21,22
 485 1049 485 1049 550 1152 c 1,23,24
 620 1246 620 1246 721 1288 c 1,25,26
 775 1309 775 1309 821 1309 c 2,27,-1
 829 1309 l 1,28,29
 887 1306 887 1306 922 1274 c 0,30,31
 973 1228 973 1228 973 1165 c 0,32,33
 973 1140 973 1140 966 1126 c 1,34,35
 947 1072 947 1072 899 1041 c 1,36,37
 815 1139 815 1139 781 1157 c 0,38,39
 750 1174 750 1174 717 1174 c 0,40,41
 688 1174 688 1174 666 1153 c 0,42,43
 645 1134 645 1134 639 1116 c 0,44,45
 637 1111 637 1111 635.5 1104.5 c 128,-1,46
 634 1098 634 1098 632 1087.5 c 128,-1,47
 630 1077 630 1077 628 1069 c 0,48,49
 622 1041 622 1041 612 947 c 0,50,51
 605 884 605 884 605 850 c 1,52,-1
 835 871 l 1,53,-1
 816 760 l 1,54,-1
 599 771 l 1,55,-1
 557 178 l 1,56,57
 543 12 543 12 517 -83 c 0,58,59
 490 -181 490 -181 448 -233 c 0,60,61
 367 -335 367 -335 263 -365 c 1,62,63
 214 -381 214 -381 168 -381 c 2,64,-1
 157 -381 l 1,65,66
 52 -372 52 -372 22 -296 c 0,67,68
 15 -277 15 -277 13 -253 c 1,69,-1
 13 -242 l 1,70,71
 16 -215 16 -215 31 -187 c 0,72,73
 48 -155 48 -155 72 -132 c 1,0,1
EndSplineSet
Colour: ffff
EndChar

StartChar: g
Encoding: 103 103 71
Width: 904
VWidth: 1655
GlyphClass: 2
Flags: MW
LayerCount: 2
Fore
SplineSet
370 754 m 0,0,1
 337 681 337 681 335 593 c 0,2,3
 333 504 333 504 339 471 c 0,4,5
 346 432 346 432 363 401 c 1,6,7
 396 349 396 349 431 349 c 0,8,9
 467 349 467 349 499 372 c 1,10,11
 576 438 576 438 576 585 c 0,12,13
 576 645 576 645 559 699 c 1,14,15
 542 759 542 759 514.5 789 c 128,-1,16
 487 819 487 819 450 818 c 0,17,18
 422 818 422 818 401 800 c 0,19,20
 383 784 383 784 370 754 c 0,0,1
323 205 m 0,21,22
 323 194 323 194 341 188 c 2,23,-1
 388 170 l 2,24,25
 585 95 585 95 593 91 c 0,26,27
 729 31 729 31 776 -56 c 1,28,29
 797 -90 797 -90 797 -137 c 0,30,31
 797 -140 797 -140 794 -170 c 1,32,33
 776 -263 776 -263 666 -322 c 0,34,35
 555 -382 555 -382 420 -388 c 1,36,-1
 396 -388 l 2,37,38
 309 -388 309 -388 236 -369 c 0,39,40
 152 -347 152 -347 122 -331 c 0,41,42
 80 -309 80 -309 48 -272 c 0,43,44
 13 -232 13 -232 13 -173 c 128,-1,45
 13 -114 13 -114 49 -72 c 0,46,47
 84 -32 84 -32 169 8 c 1,48,49
 181 15 181 15 267 49 c 1,50,51
 209 76 209 76 194 95 c 0,52,53
 180 113 180 113 180 131 c 0,54,55
 180 151 180 151 182 158 c 0,56,57
 185 168 185 168 204 196 c 0,58,59
 224 226 224 226 258 255 c 0,60,61
 295 287 295 287 313 300 c 1,62,63
 293 311 293 311 266 336 c 1,64,65
 200 406 200 406 194 515 c 1,66,-1
 194 525 l 2,67,68
 194 598 194 598 225 670 c 0,69,70
 257 746 257 746 308 802 c 1,71,72
 396 895 396 895 492 895 c 128,-1,73
 588 895 588 895 645 824 c 1,74,75
 736 896 736 896 800 895 c 1,76,-1
 819 893 l 1,77,78
 848 887 848 887 867 865 c 0,79,80
 885 844 885 844 885 817 c 2,81,-1
 885 812 l 1,82,83
 882 809 882 809 884 806 c 1,84,85
 873 744 873 744 806 702 c 1,86,87
 751 749 751 749 727 766 c 0,88,89
 705 781 705 781 673 781 c 1,90,91
 706 716 706 716 708 623 c 1,92,93
 708 486 708 486 618 385 c 0,94,95
 585 349 585 349 534 318 c 1,96,97
 461 276 461 276 398 277 c 0,98,99
 376 277 376 277 374 279 c 1,100,101
 339 250 339 250 325 214 c 1,102,-1
 325 211 l 1,103,104
 323 209 323 209 323 205 c 0,21,22
336 23 m 1,105,106
 242 -11 242 -11 207 -60 c 128,-1,107
 172 -109 172 -109 172 -158 c 0,108,109
 172 -178 172 -178 184 -205 c 0,110,111
 208 -255 208 -255 255 -279 c 0,112,113
 334 -318 334 -318 441 -317 c 1,114,-1
 469 -317 l 2,115,116
 540 -317 540 -317 587 -280 c 1,117,118
 633 -241 633 -241 632 -177 c 128,-1,119
 631 -113 631 -113 564 -73 c 0,120,121
 517 -46 517 -46 469 -29 c 0,122,123
 432 -16 432 -16 411 -8 c 0,124,125
 406 -6 406 -6 376 7 c 2,126,-1
 336 23 l 1,105,106
EndSplineSet
Colour: ffff
EndChar

StartChar: h
Encoding: 104 104 72
Width: 901
VWidth: 1655
GlyphClass: 2
Flags: MW
LayerCount: 2
Back
SplineSet
183 1142 m 5,0,-1
 47 1170 l 1,1,-1
 57 1243 l 1,2,-1
 344 1266 l 1,3,-1
 360 1245 l 1,4,-1
 298 825 l 1,5,-1
 235 564 l 1,6,-1
 247 561 l 1,7,8
 294 700 294 700 380 795 c 128,-1,9
 466 890 466 890 547 890 c 128,-1,10
 625 890 625 890 666 849 c 128,-1,11
 706 809 706 809 706 741 c 128,-1,12
 706 668 706 668 698 608 c 2,13,-1
 653 256 l 2,14,15
 648 220 648 220 648 183 c 0,16,17
 648 123 648 123 682 123 c 128,-1,18
 716 123 716 123 763 157 c 128,-1,19
 812 192 812 192 841 246 c 1,20,-1
 882 217 l 1,21,22
 835 96 835 96 764 37 c 128,-1,23
 692 -23 692 -23 581 -23 c 0,24,25
 482 -23 482 -23 484 103 c 0,26,27
 484 162 484 162 504 298 c 1,28,-1
 525 481 l 1,29,30
 538 579 538 579 540 638 c 128,-1,31
 541 679 541 679 529 698 c 128,-1,32
 517 716 517 716 488 716 c 0,33,34
 409 716 409 716 348 631 c 128,-1,35
 287 546 287 546 242 346 c 1,36,37
 236 139 236 139 197 60 c 128,-1,38
 156 -23 156 -23 72 -23 c 0,39,40
 65 -23 65 -23 28 -19 c 1,41,-1
 13 8 l 1,42,-1
 93 434 l 1,43,-1
 183 1142 l 5,0,-1
EndSplineSet
Fore
SplineSet
191 1180 m 1,0,-1
 55 1208 l 1,1,-1
 65 1281 l 1,2,-1
 352 1304 l 1,3,-1
 368 1283 l 1,4,-1
 298 825 l 1,5,-1
 235 564 l 1,6,-1
 247 561 l 1,7,8
 294 700 294 700 380 795 c 128,-1,9
 466 890 466 890 547 890 c 0,10,11
 625 890 625 890 666 849 c 0,12,13
 706 809 706 809 706 741 c 0,14,15
 706 668 706 668 698 608 c 2,16,-1
 653 256 l 2,17,18
 648 220 648 220 648 183 c 0,19,20
 648 123 648 123 682 123 c 128,-1,21
 716 123 716 123 763 157 c 0,22,23
 812 192 812 192 841 246 c 1,24,-1
 882 217 l 1,25,26
 835 96 835 96 764 37 c 0,27,28
 692 -23 692 -23 581 -23 c 0,29,30
 482 -23 482 -23 484 103 c 0,31,32
 484 162 484 162 504 298 c 1,33,-1
 525 481 l 1,34,35
 538 579 538 579 540 638 c 0,36,37
 541 679 541 679 529 698 c 0,38,39
 517 716 517 716 488 716 c 0,40,41
 409 716 409 716 348 631 c 128,-1,42
 287 546 287 546 242 346 c 1,43,44
 236 139 236 139 197 60 c 0,45,46
 156 -23 156 -23 72 -23 c 0,47,48
 65 -23 65 -23 28 -19 c 1,49,-1
 13 8 l 1,50,-1
 93 434 l 1,51,-1
 191 1180 l 1,0,-1
EndSplineSet
Colour: ffff
EndChar

StartChar: i
Encoding: 105 105 73
Width: 603
VWidth: 1655
GlyphClass: 2
Flags: MW
LayerCount: 2
Fore
SplineSet
353 254 m 1,0,1
 348 218 348 218 348 181 c 0,2,3
 348 123 348 123 382 123 c 0,4,5
 417 123 417 123 464 157 c 0,6,7
 513 192 513 192 542 246 c 1,8,-1
 584 217 l 1,9,10
 494 -23 494 -23 296 -23 c 0,11,12
 234 -23 234 -23 208 15 c 0,13,14
 183 52 183 52 183 108 c 0,15,16
 183 169 183 169 196 296 c 1,17,-1
 232 611 l 2,18,19
 249 761 249 761 199 749 c 0,20,21
 154 738 154 738 61 599 c 1,22,-1
 13 631 l 1,23,24
 30 676 30 676 58 722 c 128,-1,25
 86 768 86 768 123.5 810.5 c 128,-1,26
 161 853 161 853 209.5 879.5 c 128,-1,27
 258 906 258 906 307 906 c 0,28,29
 328 906 328 906 343.5 900.5 c 128,-1,30
 359 895 359 895 369 883 c 128,-1,31
 379 871 379 871 386 858 c 128,-1,32
 393 845 393 845 395.5 823 c 128,-1,33
 398 801 398 801 398.5 782.5 c 128,-1,34
 399 764 399 764 397 734 c 128,-1,35
 395 704 395 704 393 683 c 128,-1,36
 391 662 391 662 387 626.5 c 128,-1,37
 383 591 383 591 381 569 c 2,38,-1
 353 254 l 1,0,1
417 1278 m 0,39,40
 442 1249 442 1249 442 1203 c 0,41,42
 442 1156 442 1156 409 1119 c 0,43,44
 376 1081 376 1081 333 1081 c 0,45,46
 291 1081 291 1081 267 1108 c 0,47,48
 242 1136 242 1136 242 1180 c 0,49,50
 242 1225 242 1225 276 1266 c 0,51,52
 310 1308 310 1308 350 1308 c 0,53,54
 392 1308 392 1308 417 1278 c 0,39,40
EndSplineSet
Colour: ffff
EndChar

StartChar: j
Encoding: 106 106 74
Width: 689
VWidth: 1655
GlyphClass: 2
Flags: MW
LayerCount: 2
Fore
SplineSet
624 1291 m 0,0,1
 648 1273 648 1273 659 1249 c 0,2,3
 670 1226 670 1226 670 1199 c 0,4,5
 670 1170 670 1170 655 1141 c 0,6,7
 639 1110 639 1110 611 1091 c 0,8,9
 582 1071 582 1071 552 1071 c 0,10,11
 491 1071 491 1071 470 1120 c 0,12,13
 457 1150 457 1150 457 1176 c 128,-1,14
 457 1202 457 1202 474 1235 c 0,15,16
 493 1271 493 1271 522 1289 c 0,17,18
 553 1308 553 1308 576 1308 c 0,19,20
 601 1308 601 1308 624 1291 c 0,0,1
72 -132 m 1,21,22
 171 -228 171 -228 271 -228 c 0,23,24
 305 -228 305 -228 322 -218 c 1,25,26
 358 -202 358 -202 366 -143 c 0,27,28
 368 -129 368 -129 402 232 c 1,29,-1
 438 634 l 2,30,31
 439 644 439 644 439 681 c 0,32,33
 439 716 439 716 433.5 733.5 c 128,-1,34
 428 751 428 751 417 750 c 1,35,36
 415 752 415 752 402 752 c 0,37,38
 385 752 385 752 355 722 c 1,39,-1
 312 667 l 1,40,41
 275 613 275 613 266 595 c 1,42,-1
 215 631 l 1,43,44
 232 676 232 676 258 716 c 0,45,46
 323 820 323 820 413 877 c 1,47,48
 455 902 455 902 473 906 c 0,49,50
 488 909 488 909 512 909 c 128,-1,51
 536 909 536 909 561 893 c 0,52,53
 608 863 608 863 605 780 c 1,54,-1
 605 765 l 2,55,56
 605 722 605 722 595 621 c 1,57,-1
 556 160 l 2,58,59
 542 4 542 4 518 -85 c 0,60,61
 493 -177 493 -177 451 -230 c 0,62,63
 410 -282 410 -282 367 -313 c 1,64,65
 263 -381 263 -381 169 -381 c 2,66,-1
 158 -381 l 1,67,68
 52 -372 52 -372 22 -296 c 0,69,70
 15 -277 15 -277 13 -253 c 1,71,-1
 13 -242 l 1,72,73
 16 -215 16 -215 31 -187 c 0,74,75
 48 -155 48 -155 72 -132 c 1,21,22
EndSplineSet
Colour: ffff
EndChar

StartChar: k
Encoding: 107 107 75
Width: 814
VWidth: 1655
GlyphClass: 2
Flags: MW
LayerCount: 2
Back
SplineSet
298 411 m 5,0,1
 419 431 419 431 479 488.5 c 0
 539 546 539 546 538 641 c 0,2,3
 538 682 538 682 523 702 c 0
 508 722 508 722 477 721 c 1,4,5
 400 721 400 721 343 636 c 128,-1,6
 286 551 286 551 240 346 c 1,7,8
 234 143 234 143 199 60 c 128,-1,9
 163 -26 163 -26 84 -26 c 0,10,11
 56 -26 56 -26 14 -13 c 1,12,-1
 8 0 l 1,13,-1
 91 440 l 1,14,-1
 181 1142 l 1,15,-1
 46 1170 l 1,16,-1
 56 1243 l 1,17,-1
 343 1266 l 1,18,-1
 359 1245 l 1,19,-1
 298 832 l 1,20,-1
 233 571 l 1,21,-1
 246 566 l 1,22,23
 293 706 293 706 379 801 c 128,-1,24
 466 897 466 897 546 897 c 128,-1,25
 626 897 626 897 665 855 c 128,-1,26
 704 813 704 813 704 746 c 128,-1,27
 704 677 704 677 682 621 c 128,-1,28
 658 561 658 561 623 520 c 0,29,30
 549 433 549 433 450 395 c 1,31,-1
 493 282 l 1,32,33
 555 124 555 124 599 123 c 1,34,35
 677 123 677 123 748 246 c 1,36,-1
 790 216 l 1,37,38
 756 113 756 113 688 50 c 128,-1,39
 620.5 -13 620.5 -13 532 -13 c 0,40,41
 474 -13 474 -13 433 43 c 128,-1,42
 390 102 390 102 351 212 c 2,43,-1
 287 395 l 1,44,-1
 298 411 l 5,0,1
EndSplineSet
Fore
SplineSet
303 832 m 1,0,-1
 238 571 l 1,1,-1
 251 566 l 1,2,3
 298 706 298 706 384 801 c 0,4,5
 471 897 471 897 551 897 c 128,-1,6
 631 897 631 897 670 855 c 128,-1,7
 709 813 709 813 709 746 c 0,8,9
 709 677 709 677 687 621 c 0,10,11
 663 561 663 561 628 520 c 0,12,13
 554 433 554 433 455 395 c 1,14,-1
 498 282 l 1,15,16
 560 124 560 124 604 123 c 1,17,18
 682 123 682 123 753 246 c 1,19,-1
 795 216 l 1,20,21
 761 113 761 113 693 50 c 0,22,23
 625 -13 625 -13 537 -13 c 0,24,25
 479 -13 479 -13 438 43 c 0,26,27
 395 102 395 102 356 212 c 2,28,-1
 292 395 l 1,29,-1
 303 411 l 1,30,31
 424 431 424 431 484 488.5 c 128,-1,32
 544 546 544 546 543 641 c 0,33,34
 543 682 543 682 528 702 c 128,-1,35
 513 722 513 722 482 721 c 1,36,37
 405 721 405 721 348 636 c 128,-1,38
 291 551 291 551 245 346 c 1,39,40
 239 143 239 143 204 60 c 0,41,42
 168 -26 168 -26 89 -26 c 0,43,44
 61 -26 61 -26 19 -13 c 1,45,-1
 13 0 l 1,46,-1
 96 440 l 1,47,-1
303 411 m 1,48,49
 424 431 424 431 484 488.5 c 128,-1,50
 544 546 544 546 543 641 c 0,51,52
 543 682 543 682 528 702 c 128,-1,53
 513 722 513 722 482 721 c 1,54,55
 405 721 405 721 348 636 c 128,-1,56
 291 551 291 551 245 346 c 1,57,58
 239 143 239 143 204 60 c 0,59,60
 168 -26 168 -26 89 -26 c 0,61,62
 61 -26 61 -26 19 -13 c 1,63,-1
 13 0 l 1,64,-1
 96 440 l 1,65,-1
 183 1175 l 1,66,-1
 48 1203 l 1,67,-1
 58 1276 l 1,68,-1
 345 1299 l 1,69,-1
 361 1278 l 1,70,-1
 303 832 l 1,71,-1
 238 571 l 1,72,-1
 251 566 l 1,73,74
 298 706 298 706 384 801 c 0,75,76
 471 897 471 897 551 897 c 128,-1,77
 631 897 631 897 670 855 c 128,-1,78
 709 813 709 813 709 746 c 0,79,80
 709 677 709 677 687 621 c 0,81,82
 663 561 663 561 628 520 c 0,83,84
 554 433 554 433 455 395 c 1,85,-1
 498 282 l 1,86,87
 560 124 560 124 604 123 c 1,88,89
 682 123 682 123 753 246 c 1,90,-1
 795 216 l 1,91,92
 761 113 761 113 693 50 c 0,93,94
 625 -13 625 -13 537 -13 c 0,95,96
 479 -13 479 -13 438 43 c 0,97,98
 395 102 395 102 356 212 c 2,99,-1
 292 395 l 1,100,-1
 303 411 l 1,48,49
EndSplineSet
Colour: ffff
EndChar

StartChar: l
Encoding: 108 108 76
Width: 458
VWidth: 1655
GlyphClass: 2
Flags: MW
LayerCount: 2
Back
SplineSet
116 885 m 5,0,-1
 144 1142 l 1,1,-1
 8 1170 l 1,2,-1
 19 1243 l 1,3,-1
 298 1266 l 1,4,-1
 313 1245 l 1,5,-1
 240 623 l 1,6,-1
 200 253 l 2,7,8
 197 218 197 218 197 188 c 0,9,10
 197 121 197 121 231 121 c 128,-1,11
 264 121 264 121 313 156 c 128,-1,12
 360 190 360 190 392 246 c 1,13,-1
 434 216 l 1,14,15
 344 -24 344 -24 129 -24 c 0,16,17
 26 -24 26 -24 26 120 c 0,18,19
 26 180 26 180 42 295 c 1,20,-1
 116 885 l 5,0,-1
EndSplineSet
Fore
SplineSet
121 885 m 1,0,-1
 153 1175 l 1,1,-1
 17 1203 l 1,2,-1
 28 1276 l 1,3,-1
 307 1299 l 1,4,-1
 322 1278 l 1,5,-1
 245 623 l 1,6,-1
 205 253 l 2,7,8
 202 218 202 218 202 188 c 0,9,10
 202 121 202 121 236 121 c 0,11,12
 269 121 269 121 318 156 c 0,13,14
 365 190 365 190 397 246 c 1,15,-1
 439 216 l 1,16,17
 349 -24 349 -24 134 -24 c 0,18,19
 31 -24 31 -24 31 120 c 0,20,21
 31 180 31 180 47 295 c 1,22,-1
 121 885 l 1,0,-1
EndSplineSet
Colour: ffff
EndChar

StartChar: m
Encoding: 109 109 77
Width: 1425
VWidth: 1655
GlyphClass: 2
Flags: MW
LayerCount: 2
Fore
SplineSet
791 618 m 1,0,-1
 801 613 l 1,1,2
 910 890 910 890 1076 890 c 0,3,4
 1144 890 1144 890 1185 847 c 0,5,6
 1225 806 1225 806 1225 726 c 0,7,8
 1225 644 1225 644 1218 605 c 1,9,-1
 1175 253 l 2,10,11
 1171 227 1171 227 1169 179 c 1,12,13
 1169 117 1169 117 1204 119 c 128,-1,14
 1239 121 1239 121 1286 154 c 1,15,16
 1334 189 1334 189 1364 242 c 1,17,-1
 1406 214 l 1,18,19
 1316 -26 1316 -26 1102 -26 c 0,20,21
 1004 -26 1004 -26 1004 99 c 0,22,23
 1004 146 1004 146 1025 293 c 1,24,-1
 1048 477 l 2,25,26
 1061 575 1061 575 1063 631 c 1,27,28
 1063 715 1063 715 1008 716 c 1,29,30
 931 716 931 716 872 630 c 0,31,32
 814 545 814 545 769 343 c 1,33,34
 763 135 763 135 727 53 c 0,35,36
 689 -33 689 -33 604 -33 c 0,37,38
 601 -33 601 -33 562 -30 c 1,39,-1
 546 -2 l 1,40,-1
 625 378 l 1,41,42
 649 540 649 540 649 609 c 128,-1,43
 649 678 649 678 635 695 c 128,-1,44
 621 712 621 712 590 712 c 0,45,46
 518 712 518 712 459 628 c 128,-1,47
 400 544 400 544 354 344 c 1,48,49
 348 135 348 135 311 58 c 0,50,51
 272 -23 272 -23 186 -23 c 0,52,53
 179 -23 179 -23 142 -19 c 1,54,-1
 128 8 l 1,55,-1
 210 378 l 1,56,-1
 232 611 l 2,57,58
 235 653 235 653 235 686 c 0,59,60
 235 724 235 724 226 742.5 c 128,-1,61
 217 761 217 761 198 760 c 0,62,63
 180 760 180 760 136 710 c 0,64,65
 92 660 92 660 61 605 c 1,66,-1
 13 641 l 1,67,68
 53 749 53 749 139 832 c 0,69,70
 223 913 223 913 313 913 c 0,71,72
 392 913 392 913 390 811 c 0,73,74
 390 763 390 763 377 704 c 1,75,76
 366 661 366 661 359 616 c 0,77,78
 357 603 357 603 354.5 589.5 c 128,-1,79
 352 576 352 576 350.5 570 c 128,-1,80
 349 564 349 564 349 562 c 1,81,-1
 360 560 l 1,82,83
 405 696 405 696 494 793 c 0,84,85
 582 888 582 888 662 888 c 0,86,87
 741 888 741 888 774 858 c 128,-1,88
 807 828 807 828 807 746 c 0,89,90
 807 663 807 663 791 618 c 1,0,-1
EndSplineSet
Colour: ffff
EndChar

StartChar: n
Encoding: 110 110 78
Width: 1018
VWidth: 1655
GlyphClass: 2
Flags: MW
LayerCount: 2
Fore
SplineSet
354 344 m 1,0,1
 348 136 348 136 311 56 c 0,2,3
 272 -28 272 -28 184 -28 c 0,4,5
 177 -28 177 -28 142 -24 c 1,6,-1
 128 3 l 1,7,-1
 210 388 l 1,8,-1
 232 620 l 2,9,10
 235 662 235 662 235 696 c 0,11,12
 235 733 235 733 226 751 c 128,-1,13
 217 769 217 769 198 768 c 0,14,15
 180 768 180 768 136 718 c 0,16,17
 92 668 92 668 61 613 c 1,18,-1
 13 651 l 1,19,20
 52 757 52 757 139 841 c 0,21,22
 224 923 224 923 313 923 c 0,23,24
 392 923 392 923 390 818 c 0,25,26
 390 771 390 771 377 713 c 0,27,28
 367 671 367 671 359 627 c 1,29,30
 347 575 347 575 349 573 c 2,31,-1
 360 567 l 1,32,33
 405 705 405 705 494 801 c 0,34,35
 582 897 582 897 662 897 c 0,36,37
 742 897 742 897 781 856 c 0,38,39
 820 816 820 816 820 750 c 0,40,41
 820 686 820 686 811 615 c 2,42,-1
 767 253 l 2,43,44
 762 217 762 217 762 181 c 0,45,46
 762 121 762 121 796 121 c 0,47,48
 829 121 829 121 878 156 c 0,49,50
 926 190 926 190 956 246 c 1,51,-1
 999 216 l 1,52,53
 909 -24 909 -24 695 -24 c 0,54,55
 597 -24 597 -24 597 101 c 0,56,57
 597 118 597 118 618 295 c 2,58,-1
 641 488 l 2,59,60
 654 593 654 593 656 649 c 1,61,62
 656 686 656 686 642 704 c 128,-1,63
 628 722 628 722 600 721 c 1,64,65
 443 721 443 721 354 344 c 1,0,1
EndSplineSet
Colour: ffff
EndChar

StartChar: o
Encoding: 111 111 79
Width: 694
VWidth: 1655
GlyphClass: 2
Flags: MW
LayerCount: 2
Fore
SplineSet
236 733 m 1,0,1
 155 641 155 641 155 460 c 0,2,3
 155 259 155 259 247 146 c 0,4,5
 294 89 294 89 347 90 c 0,6,7
 403 92 403 92 446 139 c 1,8,9
 530 236 530 236 530 424 c 0,10,11
 530 623 530 623 441 730 c 1,12,13
 396 782 396 782 339 784 c 0,14,15
 284 785 284 785 236 733 c 1,0,1
85 79 m 0,16,17
 14 183 14 183 14 340 c 0,18,19
 14 494 14 494 67 620 c 0,20,21
 120 747 120 747 210 820 c 0,22,23
 302 895 302 895 411 895 c 0,24,25
 520 895 520 895 597 794 c 0,26,27
 673 694 673 694 673 546 c 0,28,29
 673 399 673 399 627 274 c 128,-1,30
 581 149 581 149 490 61 c 0,31,32
 400 -26 400 -26 279 -26 c 0,33,34
 157 -26 157 -26 85 79 c 0,16,17
EndSplineSet
Colour: ffff
EndChar

StartChar: p
Encoding: 112 112 80
Width: 916
VWidth: 1655
GlyphClass: 2
Flags: MW
LayerCount: 2
Fore
SplineSet
230 205 m 1,0,-1
 277 602 l 2,1,2
 284 657 284 657 284 681 c 0,3,4
 284 754 284 754 245 754 c 0,5,6
 226 754 226 754 183 703 c 0,7,8
 139 652 139 652 108 595 c 1,9,-1
 62 632 l 1,10,11
 102 746 102 746 186 831 c 0,12,13
 269 915 269 915 358 915 c 0,14,15
 439 915 439 915 439 809 c 0,16,17
 439 756 439 756 421 673 c 0,18,19
 415 647 415 647 410.5 623 c 128,-1,20
 406 599 406 599 403.5 586 c 128,-1,21
 401 573 401 573 400 570 c 0,22,23
 397 556 397 556 397 555 c 2,24,-1
 407 553 l 1,25,26
 463 695 463 695 539 786 c 128,-1,27
 615 877 615 877 700 877 c 0,28,29
 784 877 784 877 839 785 c 0,30,31
 895 691 895 691 895 540 c 128,-1,32
 895 389 895 389 851 274 c 128,-1,33
 807 159 807 159 729 99 c 0,34,35
 584 -14 584 -14 403 -16 c 1,36,-1
 400 -16 l 1,37,-1
 393 58 l 1,38,39
 461 66 461 66 491 75 c 0,40,41
 530 86 530 86 576 115 c 0,42,43
 624 145 624 145 653 190 c 1,44,45
 721 300 721 300 721 524 c 0,46,47
 721 629 721 629 701 673 c 0,48,49
 680 719 680 719 636 719 c 0,50,51
 558 719 558 719 480 572 c 0,52,53
 403 428 403 428 370 174 c 1,54,-1
 307 -275 l 1,55,-1
 491 -296 l 1,56,-1
 473 -367 l 1,57,-1
 13 -367 l 1,58,-1
 35 -296 l 1,59,-1
 163 -256 l 1,60,-1
 230 205 l 1,0,-1
EndSplineSet
Colour: ffff
EndChar

StartChar: q
Encoding: 113 113 81
Width: 726
VWidth: 1655
GlyphClass: 2
Flags: MW
LayerCount: 2
Fore
SplineSet
413 80 m 1,0,1
 381 40 381 40 314 7 c 0,2,3
 248 -26 248 -26 175 -26 c 0,4,5
 103 -26 103 -26 58 45 c 0,6,7
 13 115 13 115 13 243 c 0,8,9
 13 369 13 369 69 528 c 0,10,11
 124 683 124 683 221 791 c 0,12,13
 317 897 317 897 426 897 c 0,14,15
 499 897 499 897 535 830 c 1,16,-1
 545 830 l 1,17,-1
 555 923 l 1,18,-1
 581 923 l 1,19,-1
 695 890 l 1,20,-1
 551 -275 l 1,21,-1
 707 -290 l 1,22,-1
 691 -360 l 1,23,-1
 202 -360 l 1,24,-1
 221 -287 l 1,25,-1
 400 -246 l 1,26,-1
 482 317 l 1,27,-1
 519 675 l 1,28,29
 496 713 496 713 456 743 c 0,30,31
 412 776 412 776 367 776 c 128,-1,32
 322 776 322 776 280 732 c 0,33,34
 238 689 238 689 216 613 c 0,35,36
 175 472 175 472 173 305 c 1,37,38
 173 218 173 218 198 159 c 0,39,40
 224 99 224 99 277 99 c 0,41,42
 333 99 333 99 398 125 c 1,43,-1
 413 80 l 1,0,1
EndSplineSet
Colour: ffff
EndChar

StartChar: r
Encoding: 114 114 82
Width: 749
VWidth: 1655
GlyphClass: 2
Flags: MW
LayerCount: 2
Fore
SplineSet
357 360 m 0,0,1
 349 320 349 320 342 229 c 0,2,3
 335 134 335 134 330 106 c 1,4,5
 308 19 308 19 268 -7 c 1,6,7
 238 -28 238 -28 220 -31 c 0,8,9
 200 -34 200 -34 183 -34 c 0,10,11
 163 -34 163 -34 142 -24 c 1,12,-1
 128 3 l 1,13,-1
 210 388 l 1,14,-1
 232 595 l 1,15,16
 235 637 235 637 235 673 c 0,17,18
 235 708 235 708 232 717 c 0,19,20
 228 728 228 728 222 734 c 0,21,22
 213 743 213 743 204 744 c 1,23,24
 191 747 191 747 172 734 c 0,25,26
 151 719 151 719 106 660 c 1,27,28
 66 602 66 602 61 589 c 1,29,-1
 13 625 l 1,30,31
 63 762 63 762 183 855 c 1,32,33
 220 881 220 881 245 890 c 1,34,-1
 292 899 l 1,35,36
 363 899 363 899 386 834 c 0,37,38
 393 816 393 816 393 785 c 2,39,-1
 393 768 l 1,40,41
 390 726 390 726 383 693 c 2,42,-1
 353 546 l 1,43,-1
 365 543 l 1,44,45
 380 593 380 593 401.5 643 c 128,-1,46
 423 693 423 693 454.5 746.5 c 128,-1,47
 486 800 486 800 530 833 c 128,-1,48
 574 866 574 866 621 866 c 0,49,50
 676 866 676 866 707.5 829 c 128,-1,51
 739 792 739 792 739 733 c 0,52,53
 739 663 739 663 693 611 c 0,54,55
 671 586 671 586 633 571 c 1,56,57
 630 576 630 576 620 596 c 128,-1,58
 610 616 610 616 603.5 626.5 c 128,-1,59
 597 637 597 637 586 651.5 c 128,-1,60
 575 666 575 666 562.5 672.5 c 128,-1,61
 550 679 550 679 536 679 c 0,62,63
 489 679 489 679 431.5 562 c 128,-1,64
 374 445 374 445 357 360 c 0,0,1
EndSplineSet
Colour: ffff
EndChar

StartChar: s
Encoding: 115 115 83
Width: 609
VWidth: 1655
GlyphClass: 2
Flags: MW
LayerCount: 2
Fore
SplineSet
313 339 m 1,0,1
 183 445 183 445 146 506 c 0,2,3
 108 568 108 568 108 620 c 0,4,5
 108 735 108 735 197 816 c 0,6,7
 285 897 285 897 403 897 c 0,8,9
 486 897 486 897 538 863 c 128,-1,10
 590 829 590 829 590 775 c 0,11,12
 590 688 590 688 494 648 c 1,13,14
 455 727 455 727 411 766 c 0,15,16
 367 806 367 806 331 806 c 0,17,18
 296 806 296 806 266 777 c 0,19,20
 235 747 235 747 235 706 c 0,21,22
 235 639 235 639 354 537 c 2,23,-1
 382 513 l 2,24,25
 410 489 410 489 412 487 c 0,26,27
 415 484 415 484 439 462 c 0,28,29
 461 442 461 442 467 435 c 0,30,31
 470 431 470 431 479 422.5 c 128,-1,32
 488 414 488 414 493 408 c 0,33,34
 575 319 575 319 573 239 c 128,-1,35
 571 159 571 159 524 98 c 0,36,37
 476 37 476 37 396 1 c 0,38,39
 315 -35 315 -35 225 -35 c 0,40,41
 136 -35 136 -35 74 6 c 0,42,43
 13 46 13 46 13 99 c 0,44,45
 13 151 13 151 46 189 c 0,46,47
 80 227 80 227 128 233 c 1,48,49
 149 166 149 166 196 111 c 0,50,51
 242 57 242 57 298 57 c 0,52,53
 354 57 354 57 390 87 c 128,-1,54
 426 117 426 117 426 171 c 1,55,56
 423 245 423 245 313 339 c 1,0,1
EndSplineSet
Colour: ffff
EndChar

StartChar: t
Encoding: 116 116 84
Width: 536
VWidth: 1655
GlyphClass: 2
Flags: MW
LayerCount: 2
Fore
SplineSet
238 151 m 0,0,1
 284 151 284 151 322 196 c 0,2,3
 359 240 359 240 445 393 c 1,4,-1
 494 355 l 1,5,6
 447 176 447 176 360 78 c 0,7,8
 271 -23 271 -23 160 -23 c 0,9,10
 97 -23 97 -23 70 8 c 0,11,12
 44 38 44 38 44 103 c 0,13,14
 44 171 44 171 66 354 c 1,15,-1
 125 766 l 1,16,-1
 13 759 l 1,17,-1
 38 864 l 1,18,-1
 135 855 l 1,19,-1
 155 1062 l 1,20,-1
 307 1081 l 1,21,-1
 318 1068 l 1,22,-1
 285 855 l 1,23,-1
 517 871 l 1,24,-1
 491 754 l 1,25,-1
 274 766 l 1,26,-1
 230 392 l 1,27,28
 212 224 212 224 212 197 c 0,29,30
 212 172 212 172 218 161 c 0,31,32
 224 151 224 151 238 151 c 0,0,1
EndSplineSet
Colour: ffff
EndChar

StartChar: u
Encoding: 117 117 85
Width: 993
VWidth: 1655
GlyphClass: 2
Flags: MW
LayerCount: 2
Fore
SplineSet
625 527 m 1,0,1
 628 739 628 739 662 819 c 128,-1,2
 696 899 696 899 781 899 c 0,3,4
 806 899 806 899 823 895 c 1,5,-1
 839 867 l 1,6,-1
 769 484 l 1,7,-1
 752 284 l 2,8,9
 744 201 744 201 745 178 c 0,10,11
 747 145 747 145 754 135 c 0,12,13
 763 123 763 123 787 123 c 0,14,15
 810 123 810 123 857 170 c 0,16,17
 903 216 903 216 933 270 c 1,18,-1
 974 242 l 1,19,20
 896 -25 896 -25 679 -24 c 0,21,22
 592 -24 592 -24 590 98 c 1,23,24
 590 161 590 161 618 263 c 1,25,-1
 607 265 l 1,26,27
 558 129 558 129 483 51 c 0,28,29
 409 -26 409 -26 329 -26 c 0,30,31
 248 -26 248 -26 209 16 c 128,-1,32
 170 58 170 58 170 130 c 128,-1,33
 170 202 170 202 179 256 c 2,34,-1
 232 602 l 2,35,36
 239 654 239 654 238 676 c 1,37,38
 238 737 238 737 204 738 c 1,39,40
 157 738 157 738 61 592 c 1,41,-1
 13 623 l 1,42,43
 56 736 56 736 141 818 c 0,44,45
 225 899 225 899 307 899 c 0,46,47
 404 899 404 899 402 770 c 0,48,49
 402 720 402 720 377 561 c 2,50,-1
 349 385 l 2,51,52
 335 300 335 300 336 244 c 0,53,54
 338 183 338 183 348 167 c 0,55,56
 359 150 359 150 390 150 c 0,57,58
 462 150 462 150 520 237 c 0,59,60
 579 326 579 326 625 527 c 1,0,1
EndSplineSet
Colour: ffff
EndChar

StartChar: v
Encoding: 118 118 86
Width: 821
VWidth: 1655
GlyphClass: 2
Flags: MW
LayerCount: 2
Fore
SplineSet
359 400 m 2,0,1
 354 359 354 359 354 279 c 0,2,3
 354 204 354 204 383 149 c 0,4,5
 414 91 414 91 470 91 c 0,6,7
 528 91 528 91 579 162 c 0,8,9
 630 232 630 232 655 338 c 0,10,11
 679 438 679 438 679 545 c 0,12,13
 679 730 679 730 553 845 c 1,14,15
 601 897 601 897 664 896 c 0,16,17
 729 894 729 894 765 835 c 0,18,19
 801 775 801 775 801 688 c 0,20,21
 801 521 801 521 751 360 c 0,22,23
 701 201 701 201 604 90 c 0,24,25
 506 -21 506 -21 383 -21 c 0,26,27
 194 -21 194 -21 194 253 c 0,28,29
 194 289 194 289 200 349 c 1,30,-1
 232 592 l 2,31,32
 237 631 237 631 237 669 c 0,33,34
 237 737 237 737 205 735 c 0,35,36
 174 734 174 734 75 599 c 0,37,38
 66 588 66 588 61 579 c 1,39,-1
 13 611 l 1,40,41
 61 727 61 727 146 806 c 0,42,43
 233 887 233 887 315 887 c 1,44,45
 356 888 356 888 376.5 852 c 128,-1,46
 397 816 397 816 397 744 c 0,47,48
 397 706 397 706 370 481 c 1,49,-1
 359 400 l 2,0,1
EndSplineSet
Colour: ffff
EndChar

StartChar: w
Encoding: 119 119 87
Width: 1167
VWidth: 1655
GlyphClass: 2
Flags: MW
LayerCount: 2
Fore
SplineSet
226 618 m 1,0,1
 242 692 242 692 244 730 c 0,2,3
 246 760 246 760 222 760 c 0,4,5
 188 760 188 760 54 607 c 1,6,-1
 13 637 l 1,7,8
 76 750 76 750 174 832 c 0,9,10
 272 913 272 913 354 913 c 0,11,12
 429 913 429 913 429 832 c 0,13,14
 429 773 429 773 401 679 c 0,15,16
 372 580 372 580 370 576 c 2,17,-1
 322 385 l 2,18,19
 304 314 304 314 305 249 c 1,20,21
 305 118 305 118 406 116 c 1,22,23
 481 116 481 116 532 195 c 0,24,25
 581 272 581 272 604 484 c 1,26,27
 602 531 602 531 600 639 c 1,28,29
 600 838 600 838 732 838 c 0,30,31
 756 838 756 838 780 835 c 1,32,-1
 791 817 l 1,33,-1
 732 456 l 1,34,-1
 736 284 l 1,35,36
 739 200 739 200 768 154 c 0,37,38
 798 106 798 106 837 106 c 0,39,40
 893 106 893 106 936 173 c 1,41,42
 1025 304 1025 304 1025 534 c 0,43,44
 1025 619 1025 619 995 706 c 0,45,46
 964 796 964 796 925 858 c 1,47,48
 980 900 980 900 1032 900 c 128,-1,49
 1084 900 1084 900 1115 837 c 0,50,51
 1147 773 1147 773 1147 676 c 0,52,53
 1147 575 1147 575 1119 451 c 0,54,55
 1088 316 1088 316 1042 216 c 0,56,57
 992 108 992 108 911 42 c 128,-1,58
 830 -24 830 -24 736 -24 c 0,59,60
 595 -24 595 -24 595 168 c 0,61,62
 595 177 595 177 597 181 c 1,63,-1
 597 193 l 1,64,-1
 584 195 l 1,65,66
 549 91 549 91 475 33 c 0,67,68
 399 -26 399 -26 303 -26 c 0,69,70
 141 -26 141 -26 141 178 c 0,71,72
 141 250 141 250 163 351 c 1,73,-1
 226 618 l 1,0,1
EndSplineSet
Colour: ffff
EndChar

StartChar: x
Encoding: 120 120 88
Width: 888
VWidth: 1655
GlyphClass: 2
Flags: MW
LayerCount: 2
Fore
SplineSet
449 130 m 1,0,-1
 405 302 l 1,1,2
 253 -31 253 -31 114 -34 c 1,3,4
 64 -34 64 -34 39 -4 c 0,5,6
 13 27 13 27 13 70 c 0,7,8
 13 156 13 156 61 197 c 1,9,10
 105 158 105 158 163 158 c 0,11,12
 273 158 273 158 370 401 c 1,13,14
 351 461 351 461 331 537 c 1,15,16
 290 684 290 684 274 707 c 0,17,18
 257 731 257 731 237 731 c 0,19,20
 203 731 203 731 130 592 c 1,21,-1
 83 629 l 1,22,23
 176 882 176 882 333 882 c 0,24,25
 385 882 385 882 418 818 c 0,26,27
 440 775 440 775 468 675 c 0,28,29
 475 648 475 648 482 620.5 c 128,-1,30
 489 593 489 593 492.5 579.5 c 128,-1,31
 496 566 496 566 497 562 c 1,32,33
 563 699 563 699 636 785 c 128,-1,34
 709 871 709 871 761 871 c 128,-1,35
 813 871 813 871 841 846 c 128,-1,36
 869 821 869 821 869 786 c 0,37,38
 869 706 869 706 823 657 c 1,39,40
 794 683 794 683 724 683 c 0,41,42
 616 683 616 683 525 474 c 1,43,-1
 615 188 l 2,44,45
 639 113 639 113 666 113 c 0,46,47
 692 113 692 113 728 146 c 0,48,49
 765 180 765 180 797 237 c 1,50,-1
 840 207 l 1,51,52
 754 -23 754 -23 579 -23 c 0,53,54
 496 -23 496 -23 449 130 c 1,0,-1
EndSplineSet
Colour: ffff
EndChar

StartChar: y
Encoding: 121 121 89
Width: 856
VWidth: 1655
GlyphClass: 2
Flags: MW
LayerCount: 2
Fore
SplineSet
62 592 m 1,0,-1
 13 629 l 1,1,2
 52 740 52 740 127 819 c 0,3,4
 205 902 205 902 278 902 c 0,5,6
 349 902 349 902 387 852 c 0,7,8
 424 803 424 803 439 693 c 1,9,-1
 500 205 l 1,10,-1
 505 162 l 1,11,-1
 514 162 l 1,12,13
 629 334 629 334 651 395 c 0,14,15
 672 453 672 453 677 490 c 0,16,17
 681 521 681 521 681 585 c 0,18,19
 681 644 681 644 640 723 c 0,20,21
 600 800 600 800 546 848 c 1,22,23
 564 871 564 871 601 889 c 0,24,25
 635 906 635 906 672 906 c 0,26,27
 738 906 738 906 788 846 c 0,28,29
 837 787 837 787 837 707 c 0,30,31
 837 572 837 572 763 429 c 0,32,33
 688 283 688 283 504 46 c 1,34,35
 490 -75 490 -75 442 -170 c 0,36,37
 393 -266 393 -266 317 -324 c 0,38,39
 242 -381 242 -381 171 -381 c 128,-1,40
 100 -381 100 -381 57 -349 c 0,41,42
 15 -318 15 -318 15 -270 c 2,43,-1
 15 -265 l 1,44,45
 20 -220 20 -220 32 -195 c 0,46,47
 44 -171 44 -171 80 -141 c 1,48,49
 157 -214 157 -214 231 -212 c 0,50,51
 306 -210 306 -210 339 -170 c 0,52,53
 374 -127 374 -127 374 -24 c 0,54,55
 374 35 374 35 364 109 c 2,56,-1
 300 610 l 2,57,58
 291 676 291 676 266 710 c 0,59,60
 239 748 239 748 208 748 c 0,61,62
 178 748 178 748 138 703 c 0,63,64
 97 657 97 657 62 592 c 1,0,-1
EndSplineSet
Colour: ffff
EndChar

StartChar: z
Encoding: 122 122 90
Width: 790
VWidth: 1655
GlyphClass: 2
Flags: MW
LayerCount: 2
Fore
SplineSet
577 858 m 1,0,1
 681 858 681 858 753 883 c 1,2,-1
 771 855 l 1,3,-1
 453 414 l 1,4,-1
 253 113 l 1,5,6
 258 115 258 115 299 113 c 0,7,8
 338 111 338 111 374 97 c 0,9,10
 383 94 383 94 408 84.5 c 128,-1,11
 433 75 433 75 446 69 c 0,12,13
 479 56 479 56 502 56 c 2,14,-1
 509 56 l 2,15,16
 521 56 521 56 535 63 c 0,17,18
 551 71 551 71 557 81 c 1,19,20
 570 98 570 98 572 129 c 0,21,22
 573 153 573 153 562 212 c 0,23,24
 552 267 552 267 539 303 c 1,25,26
 587 327 587 327 626 327 c 0,27,28
 627 327 627 327 630 326.5 c 128,-1,29
 633 326 633 326 639.5 324.5 c 128,-1,30
 646 323 646 323 654 322 c 0,31,32
 681 317 681 317 698 302 c 0,33,34
 715 286 715 286 721 269 c 0,35,36
 727 251 727 251 727 227 c 0,37,38
 727 118 727 118 636 42 c 0,39,40
 577 -8 577 -8 487 -13 c 1,41,-1
 476 -13 l 1,42,43
 469 -16 469 -16 452 -15 c 0,44,45
 426 -13 426 -13 345 -2 c 1,46,47
 231 16 231 16 166 16 c 128,-1,48
 101 16 101 16 32 -2 c 1,49,-1
 13 26 l 1,50,-1
 283 395 l 1,51,-1
 541 765 l 1,52,53
 525 762 525 762 502 762 c 0,54,55
 480 762 480 762 446 774 c 0,56,57
 394 792 394 792 375 800 c 0,58,59
 339 815 339 815 314 815 c 0,60,61
 250 815 250 815 244 699 c 1,62,-1
 244 680 l 2,63,64
 244 631 244 631 253 583 c 1,65,66
 234 576 234 576 199 574 c 1,67,68
 116 574 116 574 86 641 c 0,69,70
 76 662 76 662 76 681 c 128,-1,71
 76 700 76 700 78 702 c 1,72,73
 90 766 90 766 169 818 c 0,74,75
 247 869 247 869 337 877 c 1,76,-1
 352 877 l 2,77,78
 425 877 425 877 515 859 c 1,79,-1
 577 858 l 1,0,1
EndSplineSet
Colour: ffff
EndChar

StartChar: braceleft
Encoding: 123 123 91
Width: 667
VWidth: 1655
GlyphClass: 2
Flags: MW
LayerCount: 2
Fore
SplineSet
457 -280 m 1,0,-1
 453 -381 l 1,1,-1
 348 -381 l 2,2,3
 241 -381 241 -381 196 -321 c 128,-1,4
 151 -261 151 -261 151 -139 c 0,5,6
 151 -88 151 -88 164 25 c 0,7,8
 176 129 176 129 176 199 c 0,9,10
 176 367 176 367 69 385 c 1,11,-1
 17 393 l 1,12,-1
 30 492 l 1,13,-1
 81 500 l 1,14,15
 149 512 149 512 190 572 c 128,-1,16
 231 632 231 632 246 721 c 1,17,18
 280 948 280 948 312 1080 c 1,19,20
 334 1163 334 1163 395 1215 c 0,21,22
 455 1266 455 1266 549 1266 c 2,23,-1
 650 1266 l 1,24,-1
 629 1164 l 1,25,-1
 547 1158 l 1,26,27
 467 1150 467 1150 446 925 c 0,28,29
 444 908 444 908 442 887.5 c 128,-1,30
 440 867 440 867 439 857 c 128,-1,31
 438 847 438 847 437 843 c 0,32,33
 436 838 436 838 434 822 c 128,-1,34
 432 806 432 806 431 797 c 0,35,36
 426 762 426 762 424 752 c 0,37,38
 424 751 424 751 421 736.5 c 128,-1,39
 418 722 418 722 416 711 c 0,40,41
 409 681 409 681 405 669 c 0,42,43
 403 663 403 663 398 650.5 c 128,-1,44
 393 638 393 638 390 630 c 0,45,46
 337 482 337 482 216 448 c 1,47,-1
 214 442 l 1,48,49
 345 402 345 402 347 191 c 0,50,51
 347 129 347 129 333 11 c 128,-1,52
 319 -107 319 -107 319 -158 c 0,53,54
 319 -269 319 -269 383 -275 c 1,55,-1
 457 -280 l 1,0,-1
EndSplineSet
Colour: ffff
EndChar

StartChar: bar
Encoding: 124 124 92
Width: 338
VWidth: 1655
GlyphClass: 2
Flags: MW
LayerCount: 2
Fore
SplineSet
130 -355 m 1,0,-1
 17 -343 l 1,1,-1
 209 1229 l 1,2,-1
 321 1218 l 1,3,-1
 130 -355 l 1,0,-1
EndSplineSet
Colour: ffff
EndChar

StartChar: braceright
Encoding: 125 125 93
Width: 673
VWidth: 1655
GlyphClass: 2
Flags: MW
LayerCount: 2
Fore
SplineSet
326 686 m 2,0,-1
 326 706 l 2,1,2
 326 788 326 788 341 894 c 0,3,4
 357 1007 357 1007 357 1053 c 0,5,6
 357 1154 357 1154 302 1158 c 2,7,-1
 220 1164 l 1,8,-1
 225 1266 l 1,9,-1
 326 1266 l 2,10,11
 431 1266 431 1266 477 1205 c 128,-1,12
 523 1144 523 1144 523 1026 c 0,13,14
 523 960 523 960 510 850 c 0,15,16
 498 749 498 749 498 693 c 0,17,18
 498 521 498 521 608 500 c 1,19,-1
 655 492 l 1,20,-1
 643 393 l 1,21,-1
 590 385 l 1,22,23
 524 373 524 373 484 314 c 128,-1,24
 444 255 444 255 432 165 c 1,25,26
 398 -66 398 -66 363 -195 c 0,27,28
 339 -281 339 -281 278 -330 c 0,29,30
 215 -381 215 -381 120 -381 c 2,31,-1
 17 -381 l 1,32,-1
 39 -280 l 1,33,-1
 113 -275 l 1,34,35
 200 -268 200 -268 227 -40 c 1,36,37
 255 187 255 187 276 239 c 0,38,39
 305 309 305 309 322 336 c 0,40,41
 374 417 374 417 459 442 c 1,42,-1
 459 448 l 1,43,44
 326 485 326 485 326 686 c 2,0,-1
EndSplineSet
Colour: ffff
EndChar

StartChar: asciitilde
Encoding: 126 126 94
Width: 860
VWidth: 1655
GlyphClass: 2
Flags: MW
LayerCount: 2
Fore
SplineSet
21 416 m 1,0,1
 24 425 24 425 31 440 c 0,2,3
 79 552 79 552 154 595 c 0,4,5
 189 616 189 616 224 616 c 2,6,-1
 230 616 l 1,7,8
 232 614 232 614 238 615 c 1,9,-1
 680 571 l 1,10,-1
 685 571 l 2,11,12
 717 571 717 571 760 616 c 1,13,-1
 775 631 l 1,14,-1
 840 631 l 1,15,16
 830 603 830 603 806 562 c 0,17,18
 783 523 783 523 758 495 c 0,19,20
 734 468 734 468 701 448 c 0,21,22
 666 427 666 427 631 427 c 2,23,-1
 615 427 l 1,24,-1
 171 472 l 1,25,-1
 166 472 l 2,26,27
 130 472 130 472 88 421 c 1,28,-1
 74 402 l 1,29,-1
 21 416 l 1,0,1
EndSplineSet
Colour: ffff
EndChar

StartChar: exclamdown
Encoding: 161 161 96
Width: 341
VWidth: 1655
GlyphClass: 2
Flags: MW
LayerCount: 2
Fore
SplineSet
153 755 m 0,0,1
 138 763 138 763 121 783 c 0,2,3
 109 798 109 798 103 818 c 0,4,5
 99 833 99 833 99 841 c 0,6,7
 99 852 99 852 107 888 c 0,8,9
 116 928 116 928 150 962 c 128,-1,10
 184 996 184 996 230 996 c 1,11,12
 269 993 269 993 293 969 c 0,13,14
 315 947 315 947 320 919 c 0,15,16
 324 895 324 895 324 890 c 0,17,18
 324 881 324 881 318 853 c 0,19,20
 310 818 310 818 277 785 c 0,21,22
 241 749 241 749 207 748 c 0,23,24
 169 746 169 746 153 755 c 0,0,1
282 -296 m 1,25,26
 235 -329 235 -329 174 -328 c 0,27,28
 112 -326 112 -326 74 -293 c 0,29,30
 35 -259 35 -259 23 -191 c 1,31,32
 15 -160 15 -160 18 -123 c 1,33,34
 18 -13 18 -13 71 263 c 1,35,-1
 147 623 l 1,36,-1
 218 636 l 1,37,-1
 207 467 l 2,38,39
 199 352 199 352 199 150 c 2,40,-1
 199 88 l 1,41,42
 207 -138 207 -138 282 -296 c 1,25,26
EndSplineSet
Colour: ffff
EndChar

StartChar: cent
Encoding: 162 162 97
Width: 652
VWidth: 0
GlyphClass: 2
Flags: MW
LayerCount: 2
Fore
SplineSet
423 1114 m 1,0,-1
 571 1131 l 1,1,-1
 513 896 l 1,2,3
 571 885 571 885 603 848 c 128,-1,4
 635 811 635 811 635 756 c 0,5,6
 635 707 635 707 595.5 677.5 c 128,-1,7
 556 648 556 648 496 642 c 1,8,9
 484 806 484 806 417 806 c 0,10,11
 337 806 337 806 263 670 c 128,-1,12
 189 534 189 534 189 330 c 0,13,14
 189 220 189 220 226.5 156 c 128,-1,15
 264 92 264 92 341 92 c 0,16,17
 397 92 397 92 437.5 108.5 c 128,-1,18
 478 125 478 125 524 157 c 1,19,-1
 548 106 l 1,20,21
 506 53 506 53 439.5 15.5 c 128,-1,22
 373 -22 373 -22 306 -29 c 1,23,-1
 301 -250 l 1,24,-1
 150 -266 l 1,25,-1
 212 -22 l 1,26,27
 119 1 119 1 68 86 c 128,-1,28
 17 171 17 171 17 307 c 0,29,30
 17 403 17 403 42 491.5 c 128,-1,31
 67 580 67 580 108 646.5 c 128,-1,32
 149 713 149 713 201.5 766 c 128,-1,33
 254 819 254 819 308.5 850.5 c 128,-1,34
 363 882 363 882 415 894 c 1,35,36
 423 1114 l 1,0,-1
EndSplineSet
Colour: ffff
EndChar

StartChar: sterling
Encoding: 163 163 98
Width: 1080
VWidth: 1655
GlyphClass: 2
Flags: MW
LayerCount: 2
Fore
SplineSet
939 877 m 1,0,-1
 859 890 l 1,1,-1
 841 1099 l 1,2,3
 802 1122 802 1122 761 1122 c 0,4,5
 642 1122 642 1122 595 1032 c 1,6,7
 545 942 545 942 507 690 c 2,8,-1
 500 643 l 1,9,-1
 719 655 l 1,10,-1
 696 557 l 1,11,-1
 489 543 l 1,12,-1
 482 505 l 1,13,14
 442 212 442 212 370 98 c 1,15,-1
 823 94 l 1,16,-1
 981 341 l 1,17,-1
 1063 323 l 1,18,-1
 986 0 l 1,19,-1
 17 0 l 1,20,-1
 36 73 l 1,21,-1
 201 118 l 1,22,23
 246 219 246 219 283 451 c 1,24,-1
 293 537 l 1,25,-1
 117 527 l 1,26,-1
 143 627 l 1,27,-1
 310 636 l 1,28,-1
 329 770 l 1,29,30
 364 994 364 994 484 1108 c 0,31,32
 606 1224 606 1224 784 1224 c 0,33,34
 918 1224 918 1224 1009 1186 c 1,35,-1
 939 877 l 1,0,-1
EndSplineSet
Colour: ffff
EndChar

StartChar: currency
Encoding: 164 164 99
Width: 695
VWidth: 1655
GlyphClass: 2
Flags: MW
LayerCount: 2
Fore
SplineSet
605 514 m 0,0,1
 605 406 605 406 542 334 c 1,2,-1
 625 251 l 1,3,-1
 528 170 l 1,4,-1
 462 259 l 1,5,6
 377 212 377 212 310 212 c 0,7,8
 242 212 242 212 178 253 c 1,9,-1
 91 165 l 1,10,-1
 19 249 l 1,11,-1
 110 325 l 1,12,13
 84 373 84 373 84 460 c 0,14,15
 84 544 84 544 140 615 c 1,16,-1
 64 699 l 1,17,-1
 157 780 l 1,18,-1
 219 695 l 1,19,20
 299 754 299 754 382 752 c 1,21,22
 464 752 464 752 525 704 c 1,23,-1
 614 781 l 1,24,-1
 676 696 l 1,25,-1
 584 623 l 1,26,27
 605 578 605 578 605 514 c 0,0,1
500 512 m 0,28,29
 500 580 500 580 463 618 c 0,30,31
 426 657 426 657 360 657 c 0,32,33
 293 657 293 657 247 609 c 1,34,35
 189 551 189 551 189 468 c 128,-1,36
 189 385 189 385 224 347 c 0,37,38
 260 308 260 308 325 308 c 1,39,40
 388 307 388 307 439 354 c 1,41,42
 500 412 500 412 500 512 c 0,28,29
EndSplineSet
Colour: ffff
EndChar

StartChar: yen
Encoding: 165 165 100
Width: 1078
VWidth: 1655
GlyphClass: 2
Flags: MW
LayerCount: 2
Fore
SplineSet
358 484 m 1,0,-1
 51 484 l 1,1,-1
 74 583 l 1,2,-1
 341 583 l 1,3,-1
 160 1133 l 1,4,-1
 32 1176 l 1,5,-1
 53 1252 l 1,6,-1
 518 1252 l 1,7,-1
 495 1176 l 1,8,-1
 357 1137 l 1,9,-1
 514 641 l 1,10,-1
 795 1133 l 1,11,-1
 641 1176 l 1,12,-1
 662 1252 l 1,13,-1
 1061 1252 l 1,14,-1
 1041 1176 l 1,15,-1
 913 1137 l 1,16,-1
 588 583 l 1,17,-1
 890 583 l 1,18,-1
 867 484 l 1,19,-1
 549 484 l 1,20,-1
 529 339 l 1,21,-1
 857 339 l 1,22,-1
 834 242 l 1,23,-1
 519 242 l 1,24,-1
 502 113 l 1,25,-1
 662 78 l 1,26,-1
 643 0 l 1,27,-1
 138 0 l 1,28,-1
 158 72 l 1,29,-1
 316 120 l 1,30,-1
 329 242 l 1,31,-1
 17 242 l 1,32,-1
 42 339 l 1,33,-1
 341 339 l 1,34,-1
 358 484 l 1,0,-1
EndSplineSet
Colour: ffff
EndChar

StartChar: brokenbar
Encoding: 166 166 101
Width: 333
VWidth: 1655
GlyphClass: 2
Flags: MW
LayerCount: 2
Fore
SplineSet
123 529 m 1,0,-1
 209 1229 l 1,1,-1
 316 1218 l 1,2,-1
 224 517 l 1,3,-1
 123 529 l 1,0,-1
17 -343 m 1,4,-1
 111 423 l 1,5,-1
 218 411 l 1,6,-1
 124 -355 l 1,7,-1
 17 -343 l 1,4,-1
EndSplineSet
Colour: ffff
EndChar

StartChar: section
Encoding: 167 167 102
Width: 948
VWidth: 1655
GlyphClass: 2
Flags: MW
LayerCount: 2
Fore
SplineSet
275 46 m 1,0,1
 245 -35 245 -35 246 -99 c 1,2,3
 246 -201 246 -201 313 -241 c 1,4,5
 357 -275 357 -275 421 -277 c 0,6,7
 483 -278 483 -278 538 -244 c 0,8,9
 589 -212 589 -212 612 -150 c 1,10,11
 625 -120 625 -120 622 -86 c 1,12,13
 622 0 622 0 559 67 c 1,14,15
 539 90 539 90 433 176 c 0,16,17
 324 264 324 264 254 346 c 1,18,19
 207 405 207 405 187 452 c 0,20,21
 169 495 169 495 169 528 c 0,22,23
 169 558 169 558 170 561 c 1,24,-1
 170 574 l 1,25,26
 177 628 177 628 197 676 c 1,27,28
 657 286 657 286 666 277 c 0,29,30
 741 208 741 208 777 152 c 0,31,32
 813 96 813 96 821 19 c 1,33,34
 823 14 823 14 823 -12 c 0,35,36
 823 -137 823 -137 729 -237 c 0,37,38
 660 -311 660 -311 564 -345 c 0,39,40
 467 -380 467 -380 381 -380 c 0,41,42
 225 -380 225 -380 125 -307 c 1,43,44
 82 -279 82 -279 52 -231 c 0,45,46
 24 -186 24 -186 19 -149 c 1,47,48
 16 -142 16 -142 17 -123 c 0,49,50
 19 -96 19 -96 25 -72 c 1,51,52
 51 6 51 6 130 39 c 1,53,54
 162 54 162 54 204 56 c 0,55,56
 241 57 241 57 275 46 c 1,0,1
866 832 m 1,57,-1
 778 851 l 1,58,-1
 771 1101 l 1,59,60
 723 1165 723 1165 652 1179 c 1,61,62
 636 1184 636 1184 612 1184 c 0,63,64
 544 1184 544 1184 487 1139 c 0,65,66
 431 1095 431 1095 425 1016 c 1,67,-1
 425 1005 l 2,68,69
 425 933 425 933 463 878 c 0,70,71
 500 825 500 825 594 749 c 0,72,73
 694 668 694 668 742 623 c 0,74,75
 797 571 797 571 837 513 c 0,76,77
 878 454 878 454 888 376 c 1,78,79
 891 367 891 367 890 322 c 0,80,81
 888 272 888 272 864 225 c 1,82,-1
 544 493 l 1,83,84
 386 619 386 619 310 712 c 0,85,86
 233 806 233 806 233 906 c 0,87,88
 233 914 233 914 234 918 c 1,89,-1
 234 928 l 1,90,91
 240 991 240 991 269 1043 c 1,92,93
 322 1142 322 1142 421 1206 c 0,94,95
 519 1269 519 1269 633 1278 c 1,96,-1
 657 1278 l 2,97,98
 816 1278 816 1278 931 1178 c 1,99,-1
 866 832 l 1,57,-1
EndSplineSet
Colour: ffff
EndChar

StartChar: dieresis
Encoding: 168 168 103
Width: 512
VWidth: 1655
GlyphClass: 2
Flags: MW
LayerCount: 2
Fore
SplineSet
184 1490 m 0,0,1
 208 1469 208 1469 208 1434 c 128,-1,2
 208 1399 208 1399 184 1378 c 0,3,4
 159 1356 159 1356 124 1356 c 0,5,6
 91 1356 91 1356 66 1378 c 128,-1,7
 41 1400 41 1400 41 1435 c 0,8,9
 41 1468 41 1468 66 1490 c 128,-1,10
 91 1512 91 1512 124 1512 c 0,11,12
 159 1512 159 1512 184 1490 c 0,0,1
446 1490 m 128,-1,14
 471 1468 471 1468 471 1435 c 0,15,16
 471 1400 471 1400 446 1378 c 128,-1,17
 421 1356 421 1356 386 1356 c 0,18,19
 353 1356 353 1356 328 1378 c 128,-1,20
 303 1400 303 1400 303 1435 c 0,21,22
 303 1468 303 1468 328 1490 c 128,-1,23
 353 1512 353 1512 386 1512 c 0,24,13
 421 1512 421 1512 446 1490 c 128,-1,14
EndSplineSet
Colour: ffff
EndChar

StartChar: copyright
Encoding: 169 169 104
Width: 1289
VWidth: 1655
GlyphClass: 2
Flags: MW
LayerCount: 2
Fore
SplineSet
204 908 m 0,0,1
 139 784 139 784 139 627 c 0,2,3
 139 471 139 471 203 346 c 0,4,5
 269 218 269 218 380 149 c 0,6,7
 495 78 495 78 618 78 c 0,8,9
 745 78 745 78 838 118 c 0,10,11
 934 159 934 159 1002 230 c 128,-1,12
 1070 301 1070 301 1111 402 c 0,13,14
 1152 504 1152 504 1152 615 c 0,15,16
 1152 842 1152 842 1030 1008 c 0,17,18
 969 1090 969 1090 866 1137 c 128,-1,19
 763 1184 763 1184 633 1184 c 0,20,21
 502 1184 502 1184 386 1109 c 128,-1,22
 270 1034 270 1034 204 908 c 0,0,1
630 -28 m 128,-1,24
 498 -28 498 -28 383 22 c 0,25,26
 270 71 270 71 189 158 c 0,27,28
 109 244 109 244 64 364 c 0,29,30
 18 487 18 487 18 622 c 0,31,32
 18 759 18 759 69 882 c 0,33,34
 122 1009 122 1009 204 1093 c 0,35,36
 290 1180 290 1180 404 1233 c 0,37,38
 517 1285 517 1285 652 1285 c 0,39,40
 786 1285 786 1285 909 1232 c 0,41,42
 1030 1180 1030 1180 1111 1087 c 1,43,44
 1273 893 1273 893 1272 625 c 0,45,46
 1272 493 1272 493 1222 375 c 0,47,48
 1171 256 1171 256 1087 167 c 0,49,50
 1006 82 1006 82 882 26 c 0,51,23
 762 -28 762 -28 630 -28 c 128,-1,24
500 421 m 128,-1,53
 574 338 574 338 697 338 c 0,54,55
 821 338 821 338 907 408 c 1,56,57
 920 395 920 395 935 360 c 1,58,59
 820 249 820 249 651 249 c 0,60,61
 548 249 548 249 466 294 c 0,62,63
 382 340 382 340 332 425 c 128,-1,64
 282 510 282 510 282 623 c 0,65,66
 282 843 282 843 456 971 c 1,67,68
 553 1039 553 1039 684 1038 c 0,69,70
 816 1036 816 1036 897 975 c 1,71,-1
 881 780 l 1,72,-1
 828 786 l 1,73,-1
 806 916 l 1,74,75
 764 968 764 968 655 967 c 0,76,77
 544 965 544 965 485 886 c 0,78,79
 426 806 426 806 426 655 c 128,-1,52
 426 504 426 504 500 421 c 128,-1,53
EndSplineSet
Colour: ffff
EndChar

StartChar: ordfeminine
Encoding: 170 170 105
Width: 701
VWidth: 0
GlyphClass: 2
Flags: MW
LayerCount: 2
Fore
SplineSet
197 701 m 0,0,1
 197 671 197 671 214.5 651 c 128,-1,2
 232 631 232 631 270 631 c 0,3,4
 287 631 287 631 302.5 636 c 128,-1,5
 318 641 318 641 332.5 651 c 128,-1,6
 347 661 347 661 356.5 668.5 c 128,-1,7
 366 676 366 676 380.5 690.5 c 128,-1,8
 395 705 395 705 400 709 c 1,9,-1
 426 874 l 1,10,11
 307 853 307 853 252 812 c 128,-1,12
 197 771 197 771 197 701 c 0,0,1
436 932 m 1,13,-1
 441 966 l 2,14,15
 446 997 446 997 448 1019 c 128,-1,16
 450 1041 450 1041 450.5 1066.5 c 128,-1,17
 451 1092 451 1092 446.5 1108.5 c 128,-1,18
 442 1125 442 1125 432.5 1140 c 128,-1,19
 423 1155 423 1155 405.5 1162.5 c 128,-1,20
 388 1170 388 1170 363 1170 c 0,21,22
 313 1170 313 1170 289.5 1129.5 c 128,-1,23
 266 1089 266 1089 238 978 c 1,24,25
 178 972 178 972 147 995.5 c 128,-1,26
 116 1019 116 1019 116 1066 c 0,27,28
 116 1114 116 1114 171.5 1159 c 128,-1,29
 227 1204 227 1204 300.5 1229 c 128,-1,30
 374 1254 374 1254 435 1254 c 0,31,32
 547 1254 547 1254 586.5 1195.5 c 128,-1,33
 626 1137 626 1137 606 1008 c 2,34,-1
 564 748 l 2,35,36
 555 692 555 692 571 668.5 c 128,-1,37
 587 645 587 645 642 635 c 2,38,-1
 683 628 l 1,39,-1
 662 566 l 1,40,41
 627 539 627 539 602 529.5 c 128,-1,42
 577 520 577 520 539 520 c 0,43,44
 464 520 464 520 431.5 555.5 c 128,-1,45
 399 591 399 591 406 639 c 1,46,-1
 397 639 l 1,47,48
 382 617 382 617 366.5 600.5 c 128,-1,49
 351 584 351 584 323 562 c 128,-1,50
 295 540 295 540 254 527.5 c 128,-1,51
 213 515 213 515 164 515 c 0,52,53
 103 515 103 515 61.5 554.5 c 128,-1,54
 20 594 20 594 20 655 c 0,55,56
 20 710 20 710 45 758.5 c 128,-1,57
 70 807 70 807 119 846.5 c 128,-1,58
 168 886 168 886 250 909 c 128,-1,59
 332 932 332 932 436 932 c 1,13,-1
EndSplineSet
Colour: ffff
EndChar

StartChar: guillemotleft
Encoding: 171 171 106
Width: 645
VWidth: 0
GlyphClass: 2
Flags: MW
LayerCount: 2
Fore
SplineSet
21 469 m 1,0,-1
 344 821 l 1,1,-1
 379 761 l 1,2,-1
 166 461 l 1,3,-1
 283 140 l 1,4,-1
 220 78 l 1,5,-1
 19 449 l 1,6,-1
 21 469 l 1,0,-1
268 469 m 1,7,-1
 592 821 l 1,8,-1
 627 761 l 1,9,-1
 414 461 l 1,10,-1
 531 140 l 1,11,-1
 468 78 l 1,12,-1
 267 449 l 1,13,-1
 268 469 l 1,7,-1
EndSplineSet
Colour: ffff
EndChar

StartChar: logicalnot
Encoding: 172 172 107
Width: 816
VWidth: 0
GlyphClass: 2
Flags: MW
LayerCount: 2
Fore
SplineSet
50 664 m 1,0,-1
 795 664 l 1,1,-1
 747 350 l 1,2,-1
 638 332 l 1,3,-1
 674 558 l 1,4,-1
 22 558 l 1,5,-1
 50 664 l 1,0,-1
EndSplineSet
Colour: ffff
EndChar

StartChar: softhyphen
Encoding: 173 173 108
Width: 489
VWidth: 0
GlyphClass: 2
Flags: MW
LayerCount: 2
Fore
SplineSet
48 522 m 1,0,-1
 466 581 l 1,1,-1
 440 466 l 1,2,-1
 22 406 l 1,3,-1
 48 522 l 1,0,-1
EndSplineSet
Colour: ffff
EndChar

StartChar: registered
Encoding: 174 174 109
Width: 1010
VWidth: 0
GlyphClass: 2
Flags: MW
LayerCount: 2
Fore
SplineSet
106 1036 m 0,0,1
 106 940 106 940 136 861 c 128,-1,2
 166 782 166 782 218.5 728.5 c 128,-1,3
 271 675 271 675 342 645.5 c 128,-1,4
 413 616 413 616 495 616 c 0,5,6
 608 616 608 616 701.5 667 c 128,-1,7
 795 718 795 718 849.5 810 c 128,-1,8
 904 902 904 902 904 1016 c 0,9,10
 904 1113 904 1113 872 1194.5 c 128,-1,11
 840 1276 840 1276 785 1331 c 128,-1,12
 730 1386 730 1386 655.5 1416 c 128,-1,13
 581 1446 581 1446 497 1446 c 0,14,15
 385 1446 385 1446 297.5 1399.5 c 128,-1,16
 210 1353 210 1353 158 1258.5 c 128,-1,17
 106 1164 106 1164 106 1036 c 0,0,1
18 1022 m 0,18,19
 18 1140 18 1140 55 1235.5 c 128,-1,20
 92 1331 92 1331 157 1393.5 c 128,-1,21
 222 1456 222 1456 309 1489 c 128,-1,22
 396 1522 396 1522 497 1522 c 0,23,24
 601 1522 601 1522 690.5 1490 c 128,-1,25
 780 1458 780 1458 847.5 1397 c 128,-1,26
 915 1336 915 1336 953.5 1241 c 128,-1,27
 992 1146 992 1146 992 1026 c 0,28,29
 992 912 992 912 953 819.5 c 128,-1,30
 914 727 914 727 845.5 666.5 c 128,-1,31
 777 606 777 606 685 573 c 128,-1,32
 593 540 593 540 487 540 c 0,33,34
 389 540 389 540 303 574 c 128,-1,35
 217 608 217 608 154 669 c 128,-1,36
 91 730 91 730 54.5 821.5 c 128,-1,37
 18 913 18 913 18 1022 c 0,18,19
432 1068 m 1,38,-1
 511 1068 l 1,39,40
 583 1099 583 1099 582 1170 c 0,41,42
 582 1217 582 1217 551.5 1244.5 c 128,-1,43
 521 1272 521 1272 466 1272 c 0,44,45
 458 1272 458 1272 450 1271.5 c 128,-1,46
 442 1271 442 1271 437.5 1270.5 c 128,-1,47
 433 1270 433 1270 432 1270 c 2,48,-1
 432 1068 l 1,38,-1
218 777 m 1,49,-1
 225 825 l 1,50,-1
 305 853 l 1,51,-1
 305 1248 l 1,52,-1
 224 1266 l 1,53,-1
 228 1319 l 1,54,55
 368 1341 368 1341 474 1341 c 0,56,57
 595 1341 595 1341 657 1307 c 128,-1,58
 719 1273 719 1273 719 1194 c 0,59,60
 719 1142 719 1142 682 1094 c 128,-1,61
 645 1046 645 1046 594 1028 c 1,62,-1
 593 1026 l 1,63,-1
 670 935 l 2,64,65
 707 892 707 892 729.5 874.5 c 128,-1,66
 752 857 752 857 790 839 c 2,67,-1
 806 832 l 1,68,-1
 796 777 l 1,69,70
 763 766 763 766 714 766 c 0,71,72
 651 766 651 766 612.5 802 c 128,-1,73
 574 838 574 838 532 918 c 2,74,-1
 488 1001 l 1,75,-1
 432 1001 l 1,76,-1
 432 857 l 1,77,-1
 506 830 l 1,78,-1
 501 777 l 1,79,-1
 218 777 l 1,49,-1
EndSplineSet
Colour: ffff
EndChar

StartChar: macron
Encoding: 175 175 110
Width: 527
VWidth: 1655
GlyphClass: 2
Flags: MW
LayerCount: 2
Fore
SplineSet
54 1450 m 1,0,-1
 486 1450 l 1,1,-1
 473 1351 l 1,2,-1
 41 1351 l 1,3,-1
 54 1450 l 1,0,-1
EndSplineSet
Colour: ffff
EndChar

StartChar: degree
Encoding: 176 176 111
Width: 374
VWidth: 1655
GlyphClass: 2
Flags: MW
LayerCount: 2
Fore
SplineSet
120 1210 m 128,-1,1
 98 1179 98 1179 98 1126 c 0,2,3
 98 1074 98 1074 123 1037 c 0,4,5
 149 999 149 999 192 999 c 0,6,7
 280 999 280 999 281 1113 c 0,8,9
 281 1169 281 1169 254 1205 c 128,-1,10
 227 1241 227 1241 185 1241 c 0,11,0
 142 1241 142 1241 120 1210 c 128,-1,1
309 1243 m 0,12,13
 350 1199 350 1199 350 1125 c 0,14,15
 350 1054 350 1054 303 1002 c 0,16,17
 257 951 257 951 184 951 c 0,18,19
 113 951 113 951 69 996 c 0,20,21
 26 1040 26 1040 26 1114 c 0,22,23
 26 1185 26 1185 76 1237 c 0,24,25
 125 1288 125 1288 197 1288 c 0,26,27
 267 1288 267 1288 309 1243 c 0,12,13
EndSplineSet
Colour: ffff
EndChar

StartChar: plusminus
Encoding: 177 177 112
Width: 699
VWidth: 0
GlyphClass: 2
Flags: MW
LayerCount: 2
Fore
SplineSet
35 117 m 1,0,-1
 646 124 l 1,1,-1
 630 20 l 1,2,-1
 18 13 l 1,3,-1
 35 117 l 1,0,-1
446 494 m 1,4,-1
 418 255 l 1,5,-1
 309 267 l 1,6,-1
 337 494 l 1,7,-1
 113 494 l 1,8,-1
 138 595 l 1,9,-1
 347 595 l 1,10,-1
 377 828 l 1,11,-1
 483 815 l 1,12,-1
 458 595 l 1,13,-1
 681 595 l 1,14,-1
 655 494 l 1,15,-1
 446 494 l 1,4,-1
EndSplineSet
Colour: ffff
EndChar

StartChar: two.superior
Encoding: 178 178 113
Width: 670
VWidth: 0
GlyphClass: 2
Flags: MW
LayerCount: 2
Fore
SplineSet
45 638 m 1,0,-1
 219 761 l 2,1,2
 269 797 269 797 296.5 818 c 128,-1,3
 324 839 324 839 357.5 870 c 128,-1,4
 391 901 391 901 407 926.5 c 128,-1,5
 423 952 423 952 434.5 985.5 c 128,-1,6
 446 1019 446 1019 446 1057 c 0,7,8
 446 1153 446 1153 356 1153 c 0,9,10
 320 1153 320 1153 289 1136.5 c 128,-1,11
 258 1120 258 1120 242 1095 c 1,12,-1
 200 966 l 1,13,-1
 133 971 l 1,14,-1
 145 1141 l 1,15,16
 182 1195 182 1195 267.5 1226 c 128,-1,17
 353 1257 353 1257 436 1257 c 0,18,19
 539 1257 539 1257 594.5 1217.5 c 128,-1,20
 650 1178 650 1178 650 1104 c 0,21,22
 650 1066 650 1066 638.5 1029.5 c 128,-1,23
 627 993 627 993 609.5 963 c 128,-1,24
 592 933 592 933 560.5 901 c 128,-1,25
 529 869 529 869 501.5 845.5 c 128,-1,26
 474 822 474 822 430 792 c 128,-1,27
 386 762 386 762 356 743.5 c 128,-1,28
 326 725 326 725 277 696 c 2,29,-1
 203 652 l 1,30,-1
 473 652 l 1,31,-1
 576 805 l 1,32,-1
 630 784 l 1,33,-1
 571 531 l 1,34,-1
 20 531 l 1,35,-1
 45 638 l 1,0,-1
EndSplineSet
Colour: ffff
EndChar

StartChar: three.superior
Encoding: 179 179 114
Width: 642
VWidth: 0
GlyphClass: 2
Flags: MW
LayerCount: 2
Fore
SplineSet
19 563 m 1,0,-1
 81 762 l 1,1,-1
 154 754 l 1,2,-1
 141 619 l 1,3,4
 153 602 153 602 178 590.5 c 128,-1,5
 203 579 203 579 234 579 c 0,6,7
 306 579 306 579 357 622 c 128,-1,8
 408 665 408 665 408 733 c 0,9,10
 408 783 408 783 357 816 c 128,-1,11
 306 849 306 849 223 849 c 1,12,-1
 217 908 l 1,13,14
 241 915 241 915 261 922 c 128,-1,15
 281 929 281 929 314 946 c 128,-1,16
 347 963 347 963 370 981.5 c 128,-1,17
 393 1000 393 1000 410.5 1029.5 c 128,-1,18
 428 1059 428 1059 428 1092 c 0,19,20
 428 1133 428 1133 405 1161 c 128,-1,21
 382 1189 382 1189 338 1189 c 0,22,23
 279 1189 279 1189 252 1167 c 1,24,-1
 203 1010 l 1,25,-1
 128 1016 l 1,26,-1
 143 1187 l 1,27,28
 173 1221 173 1221 252.5 1250 c 128,-1,29
 332 1279 332 1279 406 1279 c 0,30,31
 503 1279 503 1279 563 1243 c 128,-1,32
 623 1207 623 1207 623 1140 c 0,33,34
 623 1096 623 1096 605 1060 c 128,-1,35
 587 1024 587 1024 555.5 998.5 c 128,-1,36
 524 973 524 973 488.5 955.5 c 128,-1,37
 453 938 453 938 412 927 c 1,38,-1
 411 920 l 1,39,40
 506 910 506 910 554 870.5 c 128,-1,41
 602 831 602 831 602 767 c 0,42,43
 602 689 602 689 545.5 625.5 c 128,-1,44
 489 562 489 562 401.5 528.5 c 128,-1,45
 314 495 314 495 216 495 c 0,46,47
 142 495 142 495 85.5 513.5 c 128,-1,48
 29 532 29 532 19 563 c 1,0,-1
EndSplineSet
Colour: ffff
EndChar

StartChar: acute
Encoding: 180 180 115
Width: 310
VWidth: 1655
GlyphClass: 2
Flags: MW
LayerCount: 2
Fore
SplineSet
270 1633 m 1,0,-1
 90 1322 l 1,1,-1
 40 1352 l 1,2,-1
 159 1671 l 1,3,-1
 270 1633 l 1,0,-1
EndSplineSet
Colour: ffff
EndChar

StartChar: micro
Encoding: 181 181 116
Width: 946
VWidth: 1655
GlyphClass: 2
Flags: MW
LayerCount: 2
Fore
SplineSet
179 738 m 1,0,-1
 48 792 l 1,1,-1
 71 874 l 1,2,-1
 343 895 l 1,3,-1
 363 871 l 1,4,-1
 295 317 l 2,5,6
 293 298 293 298 291 264 c 1,7,8
 291 108 291 108 426 106 c 0,9,10
 469 106 469 106 489 114 c 0,11,12
 505 120 505 120 521 125 c 0,13,14
 532 128 532 128 550 140 c 0,15,16
 565 150 565 150 573 154 c 0,17,18
 615 179 615 179 623 188 c 1,19,-1
 689 734 l 1,20,-1
 534 775 l 1,21,-1
 555 867 l 1,22,-1
 855 895 l 1,23,-1
 871 871 l 1,24,-1
 793 214 l 1,25,-1
 790 178 l 1,26,27
 790 127 790 127 817 111 c 0,28,29
 839 98 839 98 885 88 c 2,30,-1
 929 78 l 1,31,-1
 909 -7 l 1,32,33
 826 -26 826 -26 758 -26 c 0,34,35
 691 -26 691 -26 658 7 c 128,-1,36
 625 40 625 40 625 98 c 0,37,38
 625 106 625 106 627 108 c 1,39,-1
 627 121 l 2,40,41
 627 123 627 123 628 125 c 1,42,-1
 628 129 l 1,43,-1
 616 129 l 1,44,45
 455 -26 455 -26 307 -26 c 0,46,47
 214 -26 214 -26 175 39 c 1,48,-1
 169 39 l 1,49,-1
 169 -16 l 2,50,51
 169 -74 169 -74 167 -86 c 1,52,-1
 147 -390 l 1,53,-1
 17 -364 l 1,54,55
 112 180 112 180 149 495 c 1,56,-1
 179 738 l 1,0,-1
EndSplineSet
Colour: ffff
EndChar

StartChar: paragraph
Encoding: 182 182 117
Width: 1295
VWidth: 0
GlyphClass: 2
Flags: MW
LayerCount: 2
Fore
SplineSet
761 0 m 1,0,-1
 958 1245 l 1,1,-1
 1278 1245 l 1,2,-1
 1257 1168 l 1,3,-1
 1081 1130 l 1,4,-1
 920 114 l 1,5,-1
 1096 80 l 1,6,-1
 1073 0 l 1,7,-1
 761 0 l 1,0,-1
533 1245 m 2,8,-1
 879 1245 l 1,9,-1
 682 0 l 1,10,-1
 276 0 l 1,11,-1
 295 74 l 1,12,-1
 543 121 l 1,13,-1
 706 1152 l 1,14,15
 626 1154 626 1154 600 1154 c 0,16,17
 423 1154 423 1154 326 1068 c 128,-1,18
 229 982 229 982 229 817 c 0,19,20
 229 763 229 763 245 715 c 128,-1,21
 261 667 261 667 292 628.5 c 128,-1,22
 323 590 323 590 376 568 c 128,-1,23
 429 546 429 546 497 546 c 1,24,-1
 464 448 l 1,25,26
 391 448 391 448 326 460.5 c 128,-1,27
 261 473 261 473 204.5 499.5 c 128,-1,28
 148 526 148 526 106.5 565 c 128,-1,29
 65 604 65 604 41.5 660.5 c 128,-1,30
 18 717 18 717 18 785 c 0,31,32
 18 869 18 869 46.5 943 c 128,-1,33
 75 1017 75 1017 124.5 1071.5 c 128,-1,34
 174 1126 174 1126 239.5 1165.5 c 128,-1,35
 305 1205 305 1205 380 1225 c 128,-1,36
 455 1245 455 1245 533 1245 c 2,8,-1
EndSplineSet
Colour: ffff
EndChar

StartChar: periodcentered
Encoding: 183 183 118
Width: 287
VWidth: 1655
GlyphClass: 2
Flags: MW
LayerCount: 2
Fore
SplineSet
59 419 m 0,0,1
 23 456 23 456 23 507 c 0,2,3
 23 557 23 557 58 589 c 0,4,5
 92 620 92 620 143 620 c 0,6,7
 191 620 191 620 228 586 c 0,8,9
 264 553 264 553 264 504 c 0,10,11
 264 456 264 456 228 418 c 0,12,13
 192 381 192 381 143 381 c 0,14,15
 95 381 95 381 59 419 c 0,0,1
EndSplineSet
Colour: ffff
EndChar

StartChar: cedilla
Encoding: 184 184 119
Width: 266
VWidth: 1655
GlyphClass: 2
Flags: MW
LayerCount: 2
Fore
SplineSet
153 -75 m 1,0,1
 241 -151 241 -151 240 -221 c 1,2,3
 240 -324 240 -324 45 -381 c 1,4,-1
 25 -323 l 1,5,6
 109 -293 109 -293 109 -242 c 0,7,8
 109 -202 109 -202 38 -134 c 1,9,-1
 133 3 l 1,10,-1
 207 3 l 1,11,-1
 153 -75 l 1,0,1
EndSplineSet
Colour: ffff
EndChar

StartChar: one.superior
Encoding: 185 185 120
Width: 541
VWidth: 0
GlyphClass: 2
Flags: MW
LayerCount: 2
Fore
SplineSet
20 531 m 1,0,-1
 36 605 l 1,1,-1
 193 630 l 1,2,-1
 271 1122 l 1,3,-1
 126 1122 l 1,4,-1
 142 1199 l 1,5,-1
 451 1245 l 1,6,-1
 470 1245 l 1,7,-1
 372 627 l 1,8,-1
 522 614 l 1,9,-1
 503 531 l 1,10,-1
 20 531 l 1,0,-1
EndSplineSet
Colour: ffff
EndChar

StartChar: ordmasculine
Encoding: 186 186 121
Width: 759
VWidth: 0
GlyphClass: 2
Flags: MW
LayerCount: 2
Fore
SplineSet
196 811 m 0,0,1
 196 763 196 763 202.5 726 c 128,-1,2
 209 689 209 689 225 658 c 128,-1,3
 241 627 241 627 272.5 610.5 c 128,-1,4
 304 594 304 594 349 594 c 0,5,6
 405 594 405 594 448 625.5 c 128,-1,7
 491 657 491 657 515 710 c 128,-1,8
 539 763 539 763 550.5 823 c 128,-1,9
 562 883 562 883 562 948 c 0,10,11
 562 996 562 996 554.5 1034.5 c 128,-1,12
 547 1073 547 1073 530 1106 c 128,-1,13
 513 1139 513 1139 482 1157 c 128,-1,14
 451 1175 451 1175 407 1175 c 0,15,16
 360 1175 360 1175 323 1153.5 c 128,-1,17
 286 1132 286 1132 262.5 1097 c 128,-1,18
 239 1062 239 1062 223.5 1013.5 c 128,-1,19
 208 965 208 965 202 915.5 c 128,-1,20
 196 866 196 866 196 811 c 0,0,1
456 1258 m 0,21,22
 591 1258 591 1258 665.5 1180.5 c 128,-1,23
 740 1103 740 1103 740 969 c 0,24,25
 740 870 740 870 705 784 c 128,-1,26
 670 698 670 698 611 639.5 c 128,-1,27
 552 581 552 581 476 547.5 c 128,-1,28
 400 514 400 514 318 514 c 0,29,30
 175 514 175 514 97.5 593 c 128,-1,31
 20 672 20 672 20 803 c 0,32,33
 20 886 20 886 45.5 960 c 128,-1,34
 71 1034 71 1034 114.5 1087.5 c 128,-1,35
 158 1141 158 1141 214 1180 c 128,-1,36
 270 1219 270 1219 332 1238.5 c 128,-1,37
 394 1258 394 1258 456 1258 c 0,21,22
EndSplineSet
Colour: ffff
EndChar

StartChar: guillemotright
Encoding: 187 187 122
Width: 645
VWidth: 0
GlyphClass: 2
Flags: MW
LayerCount: 2
Fore
SplineSet
625 430 m 1,0,-1
 302 78 l 1,1,-1
 267 138 l 1,2,-1
 480 438 l 1,3,-1
 363 759 l 1,4,-1
 426 821 l 1,5,-1
 627 450 l 1,6,-1
 625 430 l 1,0,-1
378 430 m 1,7,-1
 54 78 l 1,8,-1
 19 138 l 1,9,-1
 232 438 l 1,10,-1
 115 759 l 1,11,-1
 178 821 l 1,12,-1
 379 450 l 1,13,-1
 378 430 l 1,7,-1
EndSplineSet
Colour: ffff
EndChar

StartChar: onequarter
Encoding: 188 188 123
Width: 1344
VWidth: 0
GlyphClass: 2
Flags: MW
LayerCount: 2
Fore
SplineSet
143 -10 m 1,0,-1
 644 588 l 1,1,-1
 1134 1210 l 1,2,-1
 1309 1207 l 1,3,-1
 1303 1178 l 1,4,-1
 809 591 l 1,5,-1
 339 -32 l 1,6,-1
 143 -10 l 1,0,-1
17 531 m 1,7,-1
 33 605 l 1,8,-1
 190 630 l 1,9,-1
 268 1122 l 1,10,-1
 123 1122 l 1,11,-1
 139 1199 l 1,12,-1
 448 1245 l 1,13,-1
 467 1245 l 1,14,-1
 370 627 l 1,15,-1
 519 614 l 1,16,-1
 500 531 l 1,17,-1
 17 531 l 1,7,-1
828 272 m 1,18,-1
 1018 272 l 1,19,-1
 1056 508 l 1,20,-1
 828 272 l 1,18,-1
721 270 m 1,21,-1
 1205 737 l 1,22,-1
 1260 726 l 1,23,24
 1233 613 1233 613 1204 430 c 2,25,-1
 1179 272 l 1,26,-1
 1327 272 l 1,27,-1
 1303 175 l 1,28,-1
 1164 175 l 1,29,-1
 1149 83 l 1,30,-1
 1268 65 l 1,31,-1
 1251 0 l 1,32,-1
 837 0 l 1,33,-1
 850 58 l 1,34,-1
 991 85 l 1,35,-1
 1006 178 l 1,36,-1
 719 178 l 1,37,-1
 721 270 l 1,21,-1
EndSplineSet
Colour: ffff
EndChar

StartChar: onehalf
Encoding: 189 189 124
Width: 1417
VWidth: 0
GlyphClass: 2
Flags: MW
LayerCount: 2
Fore
SplineSet
123 -10 m 1,0,-1
 624 588 l 1,1,-1
 1114 1210 l 1,2,-1
 1289 1207 l 1,3,-1
 1283 1178 l 1,4,-1
 789 591 l 1,5,-1
 319 -32 l 1,6,-1
 123 -10 l 1,0,-1
17 531 m 1,7,-1
 33 605 l 1,8,-1
 190 630 l 1,9,-1
 268 1122 l 1,10,-1
 123 1122 l 1,11,-1
 139 1199 l 1,12,-1
 448 1245 l 1,13,-1
 467 1245 l 1,14,-1
 370 627 l 1,15,-1
 519 614 l 1,16,-1
 500 531 l 1,17,-1
 17 531 l 1,7,-1
794 109 m 1,18,-1
 969 232 l 2,19,20
 995 251 995 251 1046 290 c 0,21,22
 1087 322 1087 322 1107 341 c 0,23,24
 1139 371 1139 371 1156 398 c 0,25,26
 1173 424 1173 424 1184 456 c 128,-1,27
 1195 488 1195 488 1195 528 c 0,28,29
 1195 624 1195 624 1105 624 c 0,30,31
 1070 624 1070 624 1038 607 c 0,32,33
 1007 591 1007 591 991 566 c 1,34,-1
 949 437 l 1,35,-1
 882 442 l 1,36,-1
 894 612 l 1,37,38
 931 665 931 665 1017 697 c 0,39,40
 1101 728 1101 728 1185 728 c 0,41,42
 1289 728 1289 728 1344 688 c 0,43,44
 1400 647 1400 647 1400 575 c 0,45,46
 1400 538 1400 538 1388 501 c 0,47,48
 1376 465 1376 465 1358 434 c 0,49,50
 1339 402 1339 402 1310 372 c 0,51,52
 1294 355 1294 355 1251 317 c 0,53,54
 1231 299 1231 299 1180 264 c 0,55,56
 1174 260 1174 260 1105 215 c 0,57,58
 1088 204 1088 204 1027 167 c 1,59,-1
 952 123 l 1,60,-1
 1222 123 l 1,61,-1
 1326 276 l 1,62,-1
 1379 255 l 1,63,-1
 1320 2 l 1,64,-1
 770 2 l 1,65,-1
 794 109 l 1,18,-1
EndSplineSet
Colour: ffff
EndChar

StartChar: threequarters
Encoding: 190 190 125
Width: 1320
VWidth: 0
GlyphClass: 2
Flags: MW
LayerCount: 2
Fore
SplineSet
804 272 m 1,0,-1
 994 272 l 1,1,-1
 1032 508 l 1,2,-1
 804 272 l 1,0,-1
697 270 m 1,3,-1
 1181 737 l 1,4,-1
 1236 726 l 1,5,6
 1209 613 1209 613 1180 430 c 2,7,-1
 1155 272 l 1,8,-1
 1303 272 l 1,9,-1
 1279 175 l 1,10,-1
 1140 175 l 1,11,-1
 1125 83 l 1,12,-1
 1244 65 l 1,13,-1
 1227 0 l 1,14,-1
 813 0 l 1,15,-1
 826 58 l 1,16,-1
 967 85 l 1,17,-1
 982 178 l 1,18,-1
 695 178 l 1,19,-1
 697 270 l 1,3,-1
132 -10 m 1,20,-1
 634 588 l 1,21,-1
 1124 1210 l 1,22,-1
 1299 1207 l 1,23,-1
 1293 1178 l 1,24,-1
 799 591 l 1,25,-1
 329 -32 l 1,26,-1
 132 -10 l 1,20,-1
17 546 m 1,27,-1
 78 745 l 1,28,-1
 152 737 l 1,29,-1
 138 602 l 1,30,31
 150 586 150 586 175 574 c 0,32,33
 201 562 201 562 231 562 c 0,34,35
 305 562 305 562 355 605 c 128,-1,36
 405 648 405 648 405 716 c 0,37,38
 405 767 405 767 355 799 c 0,39,40
 304 832 304 832 221 832 c 1,41,-1
 214 891 l 1,42,43
 252 903 252 903 258 905 c 0,44,45
 275 911 275 911 311 929 c 0,46,47
 350 949 350 949 368 964 c 0,48,49
 391 984 391 984 408 1012 c 128,-1,50
 425 1040 425 1040 425 1075 c 0,51,52
 425 1116 425 1116 403 1144 c 128,-1,53
 381 1172 381 1172 335 1172 c 0,54,55
 277 1172 277 1172 249 1150 c 1,56,-1
 200 993 l 1,57,-1
 125 999 l 1,58,-1
 140 1170 l 1,59,60
 170 1204 170 1204 250 1233 c 0,61,62
 331 1262 331 1262 404 1262 c 0,63,64
 500 1262 500 1262 560 1226 c 128,-1,65
 620 1190 620 1190 620 1123 c 0,66,67
 620 1079 620 1079 602 1043 c 0,68,69
 583 1005 583 1005 553 981 c 0,70,71
 526 959 526 959 486 939 c 0,72,73
 453 923 453 923 409 910 c 1,74,-1
 408 903 l 1,75,76
 504 892 504 892 551 854 c 0,77,78
 600 814 600 814 600 750 c 0,79,80
 600 671 600 671 543 608 c 128,-1,81
 486 545 486 545 399 512 c 0,82,83
 309 478 309 478 213 478 c 0,84,85
 139 478 139 478 83 497 c 128,-1,86
 27 516 27 516 17 546 c 1,27,-1
EndSplineSet
Colour: ffff
EndChar

StartChar: questiondown
Encoding: 191 191 126
Width: 585
VWidth: 1655
GlyphClass: 2
Flags: MW
LayerCount: 2
Fore
SplineSet
488 453 m 1,0,-1
 493 401 l 1,1,2
 493 342 493 342 458 295 c 128,-1,3
 423 248 423 248 389 225 c 0,4,5
 360 205 360 205 297 180 c 0,6,7
 240 157 240 157 214 141 c 0,8,9
 187 124 187 124 158 91 c 0,10,11
 130 59 130 59 124 14 c 1,12,-1
 124 7 l 1,13,14
 122 2 122 2 123 -3 c 1,15,16
 123 -84 123 -84 195 -136 c 1,17,18
 222 -153 222 -153 260 -160 c 1,19,-1
 270 -160 l 1,20,21
 272 -162 272 -162 285 -162 c 0,22,23
 300 -162 300 -162 336 -151 c 1,24,25
 424 -127 424 -127 464 -89 c 1,26,27
 482 -97 482 -97 495 -113 c 1,28,29
 521 -142 521 -142 521 -169 c 128,-1,30
 521 -196 521 -196 519 -200 c 1,31,32
 507 -272 507 -272 425 -311 c 1,33,34
 379 -334 379 -334 324 -334 c 2,35,-1
 302 -334 l 1,36,37
 213 -328 213 -328 148 -278 c 128,-1,38
 83 -228 83 -228 49 -146 c 0,39,40
 17 -69 17 -69 17 -1 c 0,41,42
 17 65 17 65 24 93 c 1,43,44
 44 188 44 188 124 258 c 1,45,46
 173 297 173 297 192 305 c 0,47,48
 202 309 202 309 211.5 312.5 c 128,-1,49
 221 316 221 316 227 318.5 c 128,-1,50
 233 321 233 321 234 321 c 0,51,52
 244 325 244 325 251 328 c 0,53,54
 255 330 255 330 258.5 331 c 128,-1,55
 262 332 262 332 263 332 c 128,-1,56
 264 332 264 332 265 332.5 c 130,-1,57
 274 337 l 2,58,59
 282 341 282 341 285 343 c 0,60,61
 289 345 289 345 296 349 c 0,62,63
 298 351 298 351 302 352.5 c 128,-1,64
 306 354 306 354 307 355 c 0,65,66
 313 359 313 359 317 362 c 0,67,68
 326 370 326 370 347 392 c 0,69,70
 374 422 374 422 374 484 c 2,71,-1
 374 505 l 1,72,73
 372 512 372 512 372 521 c 0,74,75
 372 532 372 532 368 571 c 1,76,-1
 444 587 l 1,77,78
 478 502 478 502 488 453 c 1,0,-1
364 778 m 1,79,80
 352 793 352 793 347 813 c 0,81,82
 343 828 343 828 343 836 c 0,83,84
 343 848 343 848 351 884 c 0,85,86
 361 927 361 927 394 959 c 0,87,88
 428 992 428 992 474 992 c 1,89,90
 514 989 514 989 536 964 c 0,91,92
 559 938 559 938 563 914 c 0,93,94
 564 907 564 907 565.5 899.5 c 128,-1,95
 567 892 567 892 567.5 889 c 128,-1,96
 568 886 568 886 568 885 c 0,97,98
 568 880 568 880 561 848 c 0,99,100
 554 814 554 814 520 780 c 0,101,102
 485 745 485 745 450 744 c 128,-1,103
 415 743 415 743 399 750 c 128,-1,104
 383 757 383 757 364 778 c 1,79,80
EndSplineSet
Colour: ffff
EndChar

StartChar: Agrave
Encoding: 192 192 127
Width: 1273
VWidth: 1655
GlyphClass: 2
Flags: MW
LayerCount: 2
Fore
SplineSet
587 1655 m 1,0,-1
 701 1693 l 1,1,-1
 830 1365 l 1,2,-1
 773 1332 l 1,3,-1
 587 1655 l 1,0,-1
866 1271 m 1,4,-1
 1076 132 l 1,5,-1
 1254 81 l 1,6,-1
 1231 0 l 1,7,-1
 655 0 l 1,8,-1
 678 72 l 1,9,-1
 876 108 l 1,10,-1
 825 430 l 1,11,-1
 533 446 l 1,12,13
 461 247 461 247 410 157 c 0,14,15
 359 68 359 68 319 29 c 0,16,17
 277 -12 277 -12 217 -24 c 1,18,19
 190 -27 190 -27 186 -28 c 1,20,21
 129 -28 129 -28 81 8 c 0,22,23
 32 45 32 45 13 101 c 1,24,25
 91 131 91 131 147 168 c 0,26,27
 249 234 249 234 339 349 c 1,28,29
 454 500 454 500 558 786 c 1,30,31
 644 1037 644 1037 688 1241 c 1,32,-1
 866 1271 l 1,4,-1
812 505 m 1,33,-1
 724 1062 l 1,34,-1
 720 1062 l 1,35,-1
 623 724 l 1,36,37
 581 584 581 584 564 536 c 1,38,-1
 812 505 l 1,33,-1
EndSplineSet
Colour: ffff
EndChar

StartChar: Aacute
Encoding: 193 193 128
Width: 1273
VWidth: 1655
GlyphClass: 2
Flags: MW
LayerCount: 2
Fore
SplineSet
1008 1661 m 1,0,-1
 829 1351 l 1,1,-1
 778 1382 l 1,2,-1
 899 1701 l 1,3,-1
 1008 1661 l 1,0,-1
866 1271 m 1,4,-1
 1076 132 l 1,5,-1
 1254 81 l 1,6,-1
 1231 0 l 1,7,-1
 655 0 l 1,8,-1
 678 72 l 1,9,-1
 876 108 l 1,10,-1
 825 430 l 1,11,-1
 533 446 l 1,12,13
 461 247 461 247 410 157 c 0,14,15
 359 68 359 68 319 29 c 0,16,17
 277 -12 277 -12 217 -24 c 1,18,19
 190 -27 190 -27 186 -28 c 1,20,21
 129 -28 129 -28 81 8 c 0,22,23
 32 45 32 45 13 101 c 1,24,25
 91 131 91 131 147 168 c 0,26,27
 249 234 249 234 339 349 c 1,28,29
 454 500 454 500 558 786 c 1,30,31
 644 1037 644 1037 688 1241 c 1,32,-1
 866 1271 l 1,4,-1
812 505 m 1,33,-1
 724 1062 l 1,34,-1
 720 1062 l 1,35,-1
 623 724 l 1,36,37
 581 584 581 584 564 536 c 1,38,-1
 812 505 l 1,33,-1
EndSplineSet
Colour: ffff
EndChar

StartChar: Acircumflex
Encoding: 194 194 129
Width: 1273
VWidth: 1655
GlyphClass: 2
Flags: MW
LayerCount: 2
Fore
SplineSet
809 1577 m 1,0,-1
 984 1396 l 1,1,-1
 936 1361 l 1,2,-1
 775 1468 l 1,3,-1
 765 1468 l 1,4,-1
 627 1359 l 1,5,-1
 590 1388 l 1,6,-1
 756 1564 l 1,7,-1
 809 1577 l 1,0,-1
866 1271 m 1,8,-1
 1076 132 l 1,9,-1
 1254 81 l 1,10,-1
 1231 0 l 1,11,-1
 655 0 l 1,12,-1
 678 72 l 1,13,-1
 876 108 l 1,14,-1
 825 430 l 1,15,-1
 533 446 l 1,16,17
 461 247 461 247 410 157 c 0,18,19
 359 68 359 68 319 29 c 0,20,21
 277 -12 277 -12 217 -24 c 1,22,23
 190 -27 190 -27 186 -28 c 1,24,25
 129 -28 129 -28 81 8 c 0,26,27
 32 45 32 45 13 101 c 1,28,29
 91 131 91 131 147 168 c 0,30,31
 249 234 249 234 339 349 c 1,32,33
 454 500 454 500 558 786 c 1,34,35
 644 1037 644 1037 688 1241 c 1,36,-1
 866 1271 l 1,8,-1
812 505 m 1,37,-1
 724 1062 l 1,38,-1
 720 1062 l 1,39,-1
 623 724 l 1,40,41
 581 584 581 584 564 536 c 1,42,-1
 812 505 l 1,37,-1
EndSplineSet
Colour: ffff
EndChar

StartChar: Atilde
Encoding: 195 195 130
Width: 1273
VWidth: 1655
GlyphClass: 2
Flags: MW
LayerCount: 2
Fore
SplineSet
655 1419 m 2,0,1
 630 1419 630 1419 597 1372 c 1,2,-1
 559 1380 l 1,3,4
 560 1383 560 1383 563 1393 c 128,-1,5
 566 1403 566 1403 568 1411 c 0,6,7
 574 1432 574 1432 594 1462 c 0,8,9
 632 1521 632 1521 680 1522 c 1,10,-1
 687 1522 l 1,11,12
 689 1520 689 1520 693 1520 c 2,13,-1
 911 1490 l 1,14,-1
 915 1490 l 2,15,16
 936 1490 936 1490 969 1531 c 1,17,-1
 1017 1529 l 1,18,19
 970 1388 970 1388 889 1388 c 2,20,-1
 878 1388 l 1,21,-1
 659 1419 l 1,22,-1
 655 1419 l 2,0,1
866 1271 m 1,23,-1
 1076 132 l 1,24,-1
 1254 81 l 1,25,-1
 1231 0 l 1,26,-1
 655 0 l 1,27,-1
 678 72 l 1,28,-1
 876 108 l 1,29,-1
 825 430 l 1,30,-1
 533 446 l 1,31,32
 461 247 461 247 410 157 c 0,33,34
 359 68 359 68 319 29 c 0,35,36
 277 -12 277 -12 217 -24 c 1,37,38
 190 -27 190 -27 186 -28 c 1,39,40
 129 -28 129 -28 81 8 c 0,41,42
 32 45 32 45 13 101 c 1,43,44
 91 131 91 131 147 168 c 0,45,46
 249 234 249 234 339 349 c 1,47,48
 454 500 454 500 558 786 c 1,49,50
 644 1037 644 1037 688 1241 c 1,51,-1
 866 1271 l 1,23,-1
812 505 m 1,52,-1
 724 1062 l 1,53,-1
 720 1062 l 1,54,-1
 623 724 l 1,55,56
 581 584 581 584 564 536 c 1,57,-1
 812 505 l 1,52,-1
EndSplineSet
Colour: ffff
EndChar

StartChar: Adieresis
Encoding: 196 196 131
Width: 1273
VWidth: 1655
GlyphClass: 2
Flags: MW
LayerCount: 2
Fore
SplineSet
716 1519 m 0,0,1
 740 1498 740 1498 740 1464 c 0,2,3
 740 1429 740 1429 716 1408 c 0,4,5
 690 1385 690 1385 656 1385 c 128,-1,6
 622 1385 622 1385 598 1408 c 0,7,8
 573 1432 573 1432 573 1465 c 0,9,10
 573 1497 573 1497 598 1519 c 128,-1,11
 623 1541 623 1541 656 1541 c 0,12,13
 691 1541 691 1541 716 1519 c 0,0,1
978 1519 m 128,-1,15
 1003 1497 1003 1497 1003 1464 c 0,16,17
 1003 1432 1003 1432 978 1408 c 0,18,19
 954 1385 954 1385 918 1385 c 128,-1,20
 882 1385 882 1385 859 1408 c 0,21,22
 835 1432 835 1432 835 1465 c 0,23,24
 835 1496 835 1496 859 1519 c 0,25,26
 882 1541 882 1541 918 1541 c 0,27,14
 953 1541 953 1541 978 1519 c 128,-1,15
866 1271 m 1,28,-1
 1076 132 l 1,29,-1
 1254 81 l 1,30,-1
 1231 0 l 1,31,-1
 655 0 l 1,32,-1
 678 72 l 1,33,-1
 876 108 l 1,34,-1
 825 430 l 1,35,-1
 533 446 l 1,36,37
 461 247 461 247 410 157 c 0,38,39
 359 68 359 68 319 29 c 0,40,41
 277 -12 277 -12 217 -24 c 1,42,43
 190 -27 190 -27 186 -28 c 1,44,45
 129 -28 129 -28 81 8 c 0,46,47
 32 45 32 45 13 101 c 1,48,49
 91 131 91 131 147 168 c 0,50,51
 249 234 249 234 339 349 c 1,52,53
 454 500 454 500 558 786 c 1,54,55
 644 1037 644 1037 688 1241 c 1,56,-1
 866 1271 l 1,28,-1
812 505 m 1,57,-1
 724 1062 l 1,58,-1
 720 1062 l 1,59,-1
 623 724 l 1,60,61
 581 584 581 584 564 536 c 1,62,-1
 812 505 l 1,57,-1
EndSplineSet
Colour: ffff
EndChar

StartChar: Aring
Encoding: 197 197 132
Width: 1273
VWidth: 1655
GlyphClass: 2
Flags: MW
LayerCount: 2
Fore
SplineSet
905 1649 m 0,0,1
 948 1603 948 1603 948 1535 c 0,2,3
 948 1465 948 1465 900 1414 c 128,-1,4
 852 1363 852 1363 783 1363 c 0,5,6
 713 1363 713 1363 671 1408 c 128,-1,7
 629 1453 629 1453 629 1523 c 128,-1,8
 629 1593 629 1593 678 1643 c 0,9,10
 728 1694 728 1694 795 1694 c 0,11,12
 863 1694 863 1694 905 1649 c 0,0,1
722 1615 m 0,13,14
 699 1585 699 1585 699 1535 c 0,15,16
 699 1484 699 1484 725 1448 c 0,17,18
 752 1410 752 1410 792 1410 c 0,19,20
 875 1411 875 1411 878 1523 c 1,21,22
 878 1576 878 1576 852 1611 c 0,23,24
 825 1647 825 1647 785 1647 c 0,25,26
 746 1647 746 1647 722 1615 c 0,13,14
866 1271 m 1,27,-1
 1076 132 l 1,28,-1
 1254 81 l 1,29,-1
 1231 0 l 1,30,-1
 655 0 l 1,31,-1
 678 72 l 1,32,-1
 876 108 l 1,33,-1
 825 430 l 1,34,-1
 533 446 l 1,35,36
 461 247 461 247 410 157 c 0,37,38
 359 68 359 68 319 29 c 0,39,40
 277 -12 277 -12 217 -24 c 1,41,42
 190 -27 190 -27 186 -28 c 1,43,44
 129 -28 129 -28 81 8 c 0,45,46
 32 45 32 45 13 101 c 1,47,48
 91 131 91 131 147 168 c 0,49,50
 249 234 249 234 339 349 c 1,51,52
 454 500 454 500 558 786 c 1,53,54
 644 1037 644 1037 688 1241 c 1,55,-1
 866 1271 l 1,27,-1
812 505 m 1,56,-1
 724 1062 l 1,57,-1
 720 1062 l 1,58,-1
 623 724 l 1,59,60
 581 584 581 584 564 536 c 1,61,-1
 812 505 l 1,56,-1
EndSplineSet
Colour: ffff
EndChar

StartChar: AE
Encoding: 198 198 133
Width: 1468
VWidth: 1655
GlyphClass: 2
Flags: MW
LayerCount: 2
Fore
SplineSet
1439 430 m 1,0,1
 1446 405 1446 405 1446 317 c 0,2,3
 1446 122 1446 122 1386 0 c 1,4,-1
 1359 0 l 2,5,6
 1303 0 1303 0 1282 2 c 1,7,-1
 1057 2 l 2,8,9
 965 2 965 2 941 3 c 1,10,-1
 769 3 l 1,11,-1
 516 -3 l 1,12,-1
 539 80 l 1,13,-1
 756 134 l 1,14,-1
 746 432 l 1,15,-1
 534 444 l 1,16,17
 458 240 458 240 405 146 c 1,18,19
 359 68 359 68 316 26 c 0,20,21
 277 -13 277 -13 234 -21 c 0,22,23
 195 -28 195 -28 187 -28 c 0,24,25
 131 -28 131 -28 82 8 c 0,26,27
 35 43 35 43 13 101 c 1,28,29
 90 130 90 130 148 168 c 0,30,31
 247 231 247 231 338 349 c 1,32,33
 504 571 504 571 645 1066 c 0,34,35
 668 1144 668 1144 687 1241 c 1,36,-1
 1430 1280 l 1,37,-1
 1390 862 l 1,38,-1
 1303 869 l 1,39,-1
 1247 1125 l 1,40,-1
 1217 1128 l 2,41,42
 1122 1137 1122 1137 929 1142 c 1,43,-1
 897 1143 l 1,44,-1
 917 681 l 1,45,-1
 1284 698 l 1,46,-1
 1245 557 l 1,47,-1
 922 578 l 1,48,-1
 950 101 l 1,49,-1
 1035 108 l 1,50,51
 1216 127 1216 127 1237 132 c 1,52,53
 1268 171 1268 171 1305 270 c 0,54,55
 1341 367 1341 367 1352 434 c 1,56,-1
 1439 430 l 1,0,1
744 507 m 1,57,-1
 724 1064 l 1,58,-1
 718 1064 l 1,59,-1
 624 726 l 1,60,61
 597 634 597 634 563 534 c 1,62,-1
 744 507 l 1,57,-1
EndSplineSet
Colour: ffff
EndChar

StartChar: Ccedilla
Encoding: 199 199 134
Width: 971
VWidth: 1655
GlyphClass: 2
Flags: MW
LayerCount: 2
Fore
SplineSet
535 -75 m 1,0,1
 623 -151 623 -151 622 -221 c 1,2,3
 622 -324 622 -324 427 -381 c 1,4,-1
 407 -323 l 1,5,6
 490 -293 490 -293 492 -242 c 1,7,8
 492 -202 492 -202 420 -134 c 1,9,-1
 494 -30 l 1,10,-1
 471 -30 l 2,11,12
 413 -30 413 -30 345 -12 c 1,13,14
 206 31 206 31 115 151 c 0,15,16
 25 269 25 269 16 455 c 1,17,-1
 16 471 l 1,18,19
 14 477 14 477 14 488 c 0,20,21
 14 816 14 816 227 1064 c 0,22,23
 392 1256 392 1256 617 1254 c 1,24,25
 838 1254 838 1254 927 1085 c 1,26,27
 954 1041 954 1041 952 982 c 1,28,-1
 952 971 l 1,29,30
 950 912 950 912 915 865 c 128,-1,31
 880 818 880 818 835 806 c 0,32,33
 792 794 792 794 767 794 c 0,34,35
 739 794 739 794 718 802 c 1,36,37
 731 867 731 867 731 917 c 128,-1,38
 731 967 731 967 724 1005 c 0,39,40
 709 1084 709 1084 621 1123 c 1,41,42
 585 1137 585 1137 532 1134 c 0,43,44
 476 1131 476 1131 414 1087 c 0,45,46
 351 1042 351 1042 313 971 c 1,47,48
 250 857 250 857 236 641 c 0,49,50
 233 585 233 585 233 578 c 0,51,52
 233 319 233 319 365 196 c 1,53,54
 444 124 444 124 547 125 c 0,55,56
 610 125 610 125 668 149 c 0,57,58
 724 172 724 172 775 223 c 0,59,60
 820 268 820 268 847 310 c 1,61,-1
 889 248 l 1,62,63
 866 190 866 190 826 142 c 0,64,65
 736 34 736 34 600 -10 c 0,66,67
 591 -13 591 -13 575 -16 c 1,68,-1
 535 -75 l 1,0,1
EndSplineSet
Colour: ffff
EndChar

StartChar: Egrave
Encoding: 200 200 135
Width: 1221
VWidth: 1655
GlyphClass: 2
Flags: MW
LayerCount: 2
Fore
SplineSet
604 1655 m 1,0,-1
 717 1693 l 1,1,-1
 846 1365 l 1,2,-1
 790 1332 l 1,3,-1
 604 1655 l 1,0,-1
1063 0 m 1,4,5
 511 3 511 3 445 3 c 2,6,-1
 13 -3 l 1,7,-1
 36 80 l 1,8,-1
 254 134 l 1,9,-1
 379 1094 l 1,10,-1
 152 1117 l 1,11,-1
 172 1194 l 1,12,13
 270 1214 270 1214 498 1233 c 0,14,15
 703 1250 703 1250 905 1250 c 2,16,-1
 978 1250 l 1,17,-1
 1202 1246 l 1,18,-1
 1122 835 l 1,19,-1
 1036 848 l 1,20,-1
 1004 1111 l 1,21,-1
 976 1117 l 1,22,23
 822 1146 822 1146 607 1143 c 1,24,-1
 574 1143 l 1,25,-1
 519 680 l 1,26,-1
 974 712 l 1,27,-1
 940 569 l 1,28,-1
 507 578 l 1,29,-1
 445 99 l 1,30,-1
 662 108 l 1,31,32
 855 119 855 119 913 132 c 1,33,34
 945 183 945 183 993 292 c 0,35,36
 1035 388 1035 388 1053 451 c 1,37,-1
 1140 440 l 1,38,-1
 1140 434 l 2,39,40
 1140 302 1140 302 1119 182 c 0,41,42
 1097 59 1097 59 1063 0 c 1,4,5
EndSplineSet
Colour: ffff
EndChar

StartChar: Eacute
Encoding: 201 201 136
Width: 1221
VWidth: 1655
GlyphClass: 2
Flags: MW
LayerCount: 2
Fore
SplineSet
1024 1661 m 1,0,-1
 844 1351 l 1,1,-1
 795 1382 l 1,2,-1
 914 1701 l 1,3,-1
 1024 1661 l 1,0,-1
1063 0 m 1,4,5
 511 3 511 3 445 3 c 2,6,-1
 13 -3 l 1,7,-1
 36 80 l 1,8,-1
 254 134 l 1,9,-1
 379 1094 l 1,10,-1
 152 1117 l 1,11,-1
 172 1194 l 1,12,13
 270 1214 270 1214 498 1233 c 0,14,15
 703 1250 703 1250 905 1250 c 2,16,-1
 978 1250 l 1,17,-1
 1202 1246 l 1,18,-1
 1122 835 l 1,19,-1
 1036 848 l 1,20,-1
 1004 1111 l 1,21,-1
 976 1117 l 1,22,23
 822 1146 822 1146 607 1143 c 1,24,-1
 574 1143 l 1,25,-1
 519 680 l 1,26,-1
 974 712 l 1,27,-1
 940 569 l 1,28,-1
 507 578 l 1,29,-1
 445 99 l 1,30,-1
 662 108 l 1,31,32
 855 119 855 119 913 132 c 1,33,34
 945 183 945 183 993 292 c 0,35,36
 1035 388 1035 388 1053 451 c 1,37,-1
 1140 440 l 1,38,-1
 1140 434 l 2,39,40
 1140 302 1140 302 1119 182 c 0,41,42
 1097 59 1097 59 1063 0 c 1,4,5
EndSplineSet
Colour: ffff
EndChar

StartChar: Ecircumflex
Encoding: 202 202 137
Width: 1221
VWidth: 1655
GlyphClass: 2
Flags: MW
LayerCount: 2
Fore
SplineSet
825 1577 m 1,0,-1
 1000 1396 l 1,1,-1
 951 1361 l 1,2,-1
 791 1468 l 1,3,-1
 781 1468 l 1,4,-1
 644 1359 l 1,5,-1
 607 1388 l 1,6,-1
 771 1564 l 1,7,-1
 825 1577 l 1,0,-1
1063 0 m 1,8,9
 511 3 511 3 445 3 c 2,10,-1
 13 -3 l 1,11,-1
 36 80 l 1,12,-1
 254 134 l 1,13,-1
 379 1094 l 1,14,-1
 152 1117 l 1,15,-1
 172 1194 l 1,16,17
 270 1214 270 1214 498 1233 c 0,18,19
 703 1250 703 1250 905 1250 c 2,20,-1
 978 1250 l 1,21,-1
 1202 1246 l 1,22,-1
 1122 835 l 1,23,-1
 1036 848 l 1,24,-1
 1004 1111 l 1,25,-1
 976 1117 l 1,26,27
 822 1146 822 1146 607 1143 c 1,28,-1
 574 1143 l 1,29,-1
 519 680 l 1,30,-1
 974 712 l 1,31,-1
 940 569 l 1,32,-1
 507 578 l 1,33,-1
 445 99 l 1,34,-1
 662 108 l 1,35,36
 855 119 855 119 913 132 c 1,37,38
 945 183 945 183 993 292 c 0,39,40
 1035 388 1035 388 1053 451 c 1,41,-1
 1140 440 l 1,42,-1
 1140 434 l 2,43,44
 1140 302 1140 302 1119 182 c 0,45,46
 1097 59 1097 59 1063 0 c 1,8,9
EndSplineSet
Colour: ffff
EndChar

StartChar: Edieresis
Encoding: 203 203 138
Width: 1221
VWidth: 1655
GlyphClass: 2
Flags: MW
LayerCount: 2
Fore
SplineSet
730 1519 m 128,-1,1
 755 1497 755 1497 755 1464 c 0,2,3
 755 1430 755 1430 730 1408 c 0,4,5
 704 1385 704 1385 672 1385 c 0,6,7
 636 1385 636 1385 612 1408 c 128,-1,8
 588 1431 588 1431 588 1465 c 0,9,10
 588 1498 588 1498 612 1519 c 0,11,12
 637 1541 637 1541 672 1541 c 0,13,0
 705 1541 705 1541 730 1519 c 128,-1,1
994 1519 m 128,-1,15
 1020 1497 1020 1497 1020 1464 c 128,-1,16
 1020 1431 1020 1431 994 1408 c 128,-1,17
 968 1385 968 1385 934 1385 c 0,18,19
 899 1385 899 1385 875 1408 c 128,-1,20
 851 1431 851 1431 851 1465 c 0,21,22
 851 1498 851 1498 875 1519 c 0,23,24
 900 1541 900 1541 934 1541 c 128,-1,14
 968 1541 968 1541 994 1519 c 128,-1,15
1063 0 m 1,25,26
 511 3 511 3 445 3 c 2,27,-1
 13 -3 l 1,28,-1
 36 80 l 1,29,-1
 254 134 l 1,30,-1
 379 1094 l 1,31,-1
 152 1117 l 1,32,-1
 172 1194 l 1,33,34
 270 1214 270 1214 498 1233 c 0,35,36
 703 1250 703 1250 905 1250 c 2,37,-1
 978 1250 l 1,38,-1
 1202 1246 l 1,39,-1
 1122 835 l 1,40,-1
 1036 848 l 1,41,-1
 1004 1111 l 1,42,-1
 976 1117 l 1,43,44
 822 1146 822 1146 607 1143 c 1,45,-1
 574 1143 l 1,46,-1
 519 680 l 1,47,-1
 974 712 l 1,48,-1
 940 569 l 1,49,-1
 507 578 l 1,50,-1
 445 99 l 1,51,-1
 662 108 l 1,52,53
 855 119 855 119 913 132 c 1,54,55
 945 183 945 183 993 292 c 0,56,57
 1035 388 1035 388 1053 451 c 1,58,-1
 1140 440 l 1,59,-1
 1140 434 l 2,60,61
 1140 302 1140 302 1119 182 c 0,62,63
 1097 59 1097 59 1063 0 c 1,25,26
EndSplineSet
Colour: ffff
EndChar

StartChar: Igrave
Encoding: 204 204 139
Width: 809
VWidth: 1655
GlyphClass: 2
Flags: MW
LayerCount: 2
Fore
SplineSet
315 1650 m 1,0,-1
 429 1687 l 1,1,-1
 558 1361 l 1,2,-1
 502 1327 l 1,3,-1
 315 1650 l 1,0,-1
639 0 m 1,4,-1
 13 0 l 1,5,-1
 31 78 l 1,6,-1
 254 129 l 1,7,-1
 377 1090 l 1,8,-1
 151 1123 l 1,9,-1
 170 1199 l 1,10,11
 394 1246 394 1246 634 1246 c 0,12,13
 702 1246 702 1246 790 1239 c 1,14,-1
 771 1164 l 1,15,-1
 572 1142 l 1,16,-1
 445 106 l 1,17,-1
 663 81 l 1,18,-1
 639 0 l 1,4,-1
EndSplineSet
Colour: ffff
EndChar

StartChar: Iacute
Encoding: 205 205 140
Width: 809
VWidth: 1655
GlyphClass: 2
Flags: MW
LayerCount: 2
Fore
SplineSet
736 1657 m 1,0,-1
 556 1345 l 1,1,-1
 507 1377 l 1,2,-1
 626 1696 l 1,3,-1
 736 1657 l 1,0,-1
639 0 m 1,4,-1
 13 0 l 1,5,-1
 31 78 l 1,6,-1
 254 129 l 1,7,-1
 377 1090 l 1,8,-1
 151 1123 l 1,9,-1
 170 1199 l 1,10,11
 394 1246 394 1246 634 1246 c 0,12,13
 702 1246 702 1246 790 1239 c 1,14,-1
 771 1164 l 1,15,-1
 572 1142 l 1,16,-1
 445 106 l 1,17,-1
 663 81 l 1,18,-1
 639 0 l 1,4,-1
EndSplineSet
Colour: ffff
EndChar

StartChar: Icircumflex
Encoding: 206 206 141
Width: 809
VWidth: 1655
GlyphClass: 2
Flags: MW
LayerCount: 2
Fore
SplineSet
537 1572 m 1,0,-1
 712 1391 l 1,1,-1
 663 1356 l 1,2,-1
 504 1463 l 1,3,-1
 494 1463 l 1,4,-1
 356 1354 l 1,5,-1
 318 1383 l 1,6,-1
 484 1559 l 1,7,-1
 537 1572 l 1,0,-1
639 0 m 1,8,-1
 13 0 l 1,9,-1
 31 78 l 1,10,-1
 254 129 l 1,11,-1
 377 1090 l 1,12,-1
 151 1123 l 1,13,-1
 170 1199 l 1,14,15
 394 1246 394 1246 634 1246 c 0,16,17
 702 1246 702 1246 790 1239 c 1,18,-1
 771 1164 l 1,19,-1
 572 1142 l 1,20,-1
 445 106 l 1,21,-1
 663 81 l 1,22,-1
 639 0 l 1,8,-1
EndSplineSet
Colour: ffff
EndChar

StartChar: Idieresis
Encoding: 207 207 142
Width: 810
VWidth: 1655
GlyphClass: 2
Flags: MW
LayerCount: 2
Fore
SplineSet
443 1514 m 128,-1,1
 468 1492 468 1492 468 1459 c 0,2,3
 468 1425 468 1425 443 1403 c 0,4,5
 417 1380 417 1380 383 1380 c 0,6,7
 348 1380 348 1380 325 1403 c 0,8,9
 301 1427 301 1427 301 1460 c 0,10,11
 301 1492 301 1492 325 1514 c 0,12,13
 348 1536 348 1536 383 1536 c 128,-1,0
 418 1536 418 1536 443 1514 c 128,-1,1
706 1514 m 128,-1,15
 731 1492 731 1492 731 1459 c 0,16,17
 731 1427 731 1427 706 1403 c 0,18,19
 682 1380 682 1380 646 1380 c 0,20,21
 611 1380 611 1380 587 1403 c 128,-1,22
 563 1426 563 1426 563 1460 c 0,23,24
 563 1493 563 1493 587 1514 c 0,25,26
 612 1536 612 1536 646 1536 c 0,27,14
 681 1536 681 1536 706 1514 c 128,-1,15
639 0 m 1,28,-1
 13 0 l 1,29,-1
 31 78 l 1,30,-1
 254 129 l 1,31,-1
 377 1090 l 1,32,-1
 151 1123 l 1,33,-1
 170 1199 l 1,34,35
 394 1246 394 1246 634 1246 c 0,36,37
 704 1246 704 1246 791 1239 c 1,38,-1
 771 1164 l 1,39,-1
 572 1142 l 1,40,-1
 445 106 l 1,41,-1
 663 81 l 1,42,-1
 639 0 l 1,28,-1
EndSplineSet
Colour: ffff
EndChar

StartChar: Eth
Encoding: 208 208 143
Width: 1407
VWidth: 1655
GlyphClass: 2
Flags: MW
LayerCount: 2
Fore
SplineSet
13 0 m 1,0,-1
 33 77 l 1,1,-1
 242 129 l 1,2,-1
 298 541 l 1,3,-1
 132 536 l 1,4,-1
 158 634 l 1,5,-1
 312 641 l 1,6,-1
 369 1068 l 1,7,-1
 152 1085 l 1,8,-1
 173 1158 l 1,9,10
 422 1251 422 1251 746 1250 c 0,11,12
 811 1250 811 1250 822 1249 c 0,13,14
 1093 1235 1093 1235 1225 1127 c 0,15,16
 1286 1077 1286 1077 1324 1009 c 0,17,18
 1389 892 1389 892 1388 752 c 0,19,20
 1388 710 1388 710 1383 681 c 1,21,22
 1356 420 1356 420 1155 234 c 0,23,24
 968 62 968 62 685 18 c 0,25,26
 566 0 566 0 341 0 c 2,27,-1
 13 0 l 1,0,-1
493 551 m 1,28,-1
 439 106 l 1,29,-1
 449 106 l 1,30,31
 453 104 453 104 484 104 c 0,32,33
 514 104 514 104 600 113 c 0,34,35
 813 133 813 133 951 218 c 0,36,37
 1093 306 1093 306 1148 450 c 0,38,39
 1185 546 1185 546 1185 672 c 0,40,41
 1185 795 1185 795 1132 904 c 0,42,43
 1095 982 1095 982 1031 1037 c 0,44,45
 970 1089 970 1089 854 1132 c 0,46,47
 741 1173 741 1173 673 1175 c 0,48,49
 602 1177 602 1177 566 1171 c 1,50,-1
 504 649 l 1,51,-1
 755 660 l 1,52,-1
 727 561 l 1,53,-1
 493 551 l 1,28,-1
EndSplineSet
Colour: ffff
EndChar

StartChar: Ntilde
Encoding: 209 209 144
Width: 1525
VWidth: 1655
GlyphClass: 2
Flags: MW
LayerCount: 2
Fore
SplineSet
703 1419 m 2,0,1
 679 1419 679 1419 644 1372 c 1,2,-1
 607 1380 l 1,3,4
 608 1383 608 1383 608.5 1385.5 c 130,-1,5
 615 1411 l 2,6,7
 621 1432 621 1432 641 1462 c 0,8,9
 679 1521 679 1521 726 1522 c 1,10,-1
 732 1522 l 1,11,12
 734 1520 734 1520 739 1520 c 2,13,-1
 957 1490 l 1,14,-1
 961 1490 l 2,15,16
 981 1490 981 1490 1016 1531 c 1,17,-1
 1063 1529 l 1,18,19
 1017 1388 1017 1388 934 1388 c 2,20,-1
 925 1388 l 1,21,-1
 706 1419 l 1,22,-1
 703 1419 l 2,0,1
1016 -31 m 1,23,-1
 461 999 l 1,24,-1
 458 999 l 1,25,-1
 439 486 l 1,26,27
 431 319 431 319 412 239 c 0,28,29
 391 152 391 152 332 70 c 1,30,31
 252 -31 252 -31 163 -31 c 2,32,-1
 156 -31 l 1,33,34
 68 -22 68 -22 31 49 c 1,35,36
 21 72 21 72 13 103 c 1,37,38
 132 159 132 159 202 242 c 1,39,40
 342 416 342 416 354 864 c 1,41,42
 357 1057 357 1057 358 1071 c 1,43,-1
 132 1125 l 1,44,-1
 154 1201 l 1,45,46
 277 1226 277 1226 378 1235 c 0,47,48
 441 1241 441 1241 563 1246 c 1,49,-1
 651 1078 l 1,50,-1
 1086 274 l 1,51,-1
 1157 1106 l 1,52,-1
 930 1122 l 1,53,-1
 950 1197 l 1,54,55
 1097 1230 1097 1230 1199 1238 c 0,56,57
 1286 1245 1286 1245 1363 1245 c 0,58,59
 1434 1245 1434 1245 1506 1239 c 1,60,-1
 1485 1163 l 1,61,-1
 1280 1109 l 1,62,-1
 1176 2 l 1,63,-1
 1016 -31 l 1,23,-1
EndSplineSet
Colour: ffff
EndChar

StartChar: Ograve
Encoding: 210 210 145
Width: 1099
VWidth: 1655
GlyphClass: 2
Flags: MW
LayerCount: 2
Fore
SplineSet
420 1655 m 1,0,-1
 533 1693 l 1,1,-1
 663 1365 l 1,2,-1
 606 1332 l 1,3,-1
 420 1655 l 1,0,-1
1080 744 m 1,4,5
 1077 523 1077 523 975 325 c 1,6,7
 860 108 860 108 681 21 c 0,8,9
 582 -28 582 -28 458 -28 c 128,-1,10
 334 -28 334 -28 230 45 c 0,11,12
 125 118 125 118 70 238 c 0,13,14
 14 359 14 359 14 505 c 0,15,16
 14 711 14 711 92 886 c 0,17,18
 170 1062 170 1062 313 1169 c 0,19,20
 455 1275 455 1275 637 1275 c 0,21,22
 773 1275 773 1275 879 1196 c 0,23,24
 987 1115 987 1115 1033 998 c 0,25,26
 1080 878 1080 878 1080 748 c 2,27,-1
 1080 744 l 1,4,5
222 651 m 0,28,29
 222 418 222 418 312 269 c 128,-1,30
 402 120 402 120 547 120 c 0,31,32
 690 120 690 120 782 260 c 0,33,34
 873 399 873 399 873 625 c 0,35,36
 873 768 873 768 833 881 c 0,37,38
 793 995 793 995 712 1063 c 0,39,40
 633 1130 633 1130 531 1130 c 0,41,42
 431 1130 431 1130 360 1064 c 1,43,44
 221 931 221 931 222 651 c 0,28,29
EndSplineSet
Colour: ffff
EndChar

StartChar: Oacute
Encoding: 211 211 146
Width: 1099
VWidth: 1655
GlyphClass: 2
Flags: MW
LayerCount: 2
Fore
SplineSet
841 1661 m 1,0,-1
 661 1351 l 1,1,-1
 611 1382 l 1,2,-1
 730 1701 l 1,3,-1
 841 1661 l 1,0,-1
1080 744 m 1,4,5
 1077 523 1077 523 975 325 c 1,6,7
 860 108 860 108 681 21 c 0,8,9
 582 -28 582 -28 458 -28 c 128,-1,10
 334 -28 334 -28 230 45 c 0,11,12
 125 118 125 118 70 238 c 0,13,14
 14 359 14 359 14 505 c 0,15,16
 14 711 14 711 92 886 c 0,17,18
 170 1062 170 1062 313 1169 c 0,19,20
 455 1275 455 1275 637 1275 c 0,21,22
 773 1275 773 1275 879 1196 c 0,23,24
 987 1115 987 1115 1033 998 c 0,25,26
 1080 878 1080 878 1080 748 c 2,27,-1
 1080 744 l 1,4,5
222 651 m 0,28,29
 222 418 222 418 312 269 c 128,-1,30
 402 120 402 120 547 120 c 0,31,32
 690 120 690 120 782 260 c 0,33,34
 873 399 873 399 873 625 c 0,35,36
 873 768 873 768 833 881 c 0,37,38
 793 995 793 995 712 1063 c 0,39,40
 633 1130 633 1130 531 1130 c 0,41,42
 431 1130 431 1130 360 1064 c 1,43,44
 221 931 221 931 222 651 c 0,28,29
EndSplineSet
Colour: ffff
EndChar

StartChar: Ocircumflex
Encoding: 212 212 147
Width: 1099
VWidth: 1655
GlyphClass: 2
Flags: MW
LayerCount: 2
Fore
SplineSet
642 1577 m 1,0,-1
 817 1396 l 1,1,-1
 768 1361 l 1,2,-1
 608 1468 l 1,3,-1
 598 1468 l 1,4,-1
 461 1359 l 1,5,-1
 424 1388 l 1,6,-1
 589 1564 l 1,7,-1
 642 1577 l 1,0,-1
1080 744 m 1,8,9
 1077 523 1077 523 975 325 c 1,10,11
 860 108 860 108 681 21 c 0,12,13
 582 -28 582 -28 458 -28 c 128,-1,14
 334 -28 334 -28 230 45 c 0,15,16
 125 118 125 118 70 238 c 0,17,18
 14 359 14 359 14 505 c 0,19,20
 14 711 14 711 92 886 c 0,21,22
 170 1062 170 1062 313 1169 c 0,23,24
 455 1275 455 1275 637 1275 c 0,25,26
 773 1275 773 1275 879 1196 c 0,27,28
 987 1115 987 1115 1033 998 c 0,29,30
 1080 878 1080 878 1080 748 c 2,31,-1
 1080 744 l 1,8,9
222 651 m 0,32,33
 222 418 222 418 312 269 c 128,-1,34
 402 120 402 120 547 120 c 0,35,36
 690 120 690 120 782 260 c 0,37,38
 873 399 873 399 873 625 c 0,39,40
 873 768 873 768 833 881 c 0,41,42
 793 995 793 995 712 1063 c 0,43,44
 633 1130 633 1130 531 1130 c 0,45,46
 431 1130 431 1130 360 1064 c 1,47,48
 221 931 221 931 222 651 c 0,32,33
EndSplineSet
Colour: ffff
EndChar

StartChar: Otilde
Encoding: 213 213 148
Width: 1099
VWidth: 1655
GlyphClass: 2
Flags: MW
LayerCount: 2
Fore
SplineSet
489 1419 m 2,0,1
 465 1419 465 1419 430 1372 c 1,2,-1
 392 1380 l 1,3,4
 393 1383 393 1383 396 1393 c 128,-1,5
 399 1403 399 1403 401 1411 c 0,6,7
 407 1432 407 1432 427 1462 c 0,8,9
 465 1521 465 1521 513 1522 c 1,10,-1
 520 1522 l 1,11,12
 522 1520 522 1520 525 1520 c 2,13,-1
 744 1490 l 1,14,-1
 747 1490 l 2,15,16
 767 1490 767 1490 802 1531 c 1,17,-1
 849 1529 l 1,18,19
 802 1388 802 1388 722 1388 c 2,20,-1
 710 1388 l 1,21,-1
 492 1419 l 1,22,-1
 489 1419 l 2,0,1
1080 744 m 1,23,24
 1077 523 1077 523 975 325 c 1,25,26
 860 108 860 108 681 21 c 0,27,28
 582 -28 582 -28 458 -28 c 128,-1,29
 334 -28 334 -28 230 45 c 0,30,31
 125 118 125 118 70 238 c 0,32,33
 14 359 14 359 14 505 c 0,34,35
 14 711 14 711 92 886 c 0,36,37
 170 1062 170 1062 313 1169 c 0,38,39
 455 1275 455 1275 637 1275 c 0,40,41
 773 1275 773 1275 879 1196 c 0,42,43
 987 1115 987 1115 1033 998 c 0,44,45
 1080 878 1080 878 1080 748 c 2,46,-1
 1080 744 l 1,23,24
222 651 m 0,47,48
 222 418 222 418 312 269 c 128,-1,49
 402 120 402 120 547 120 c 0,50,51
 690 120 690 120 782 260 c 0,52,53
 873 399 873 399 873 625 c 0,54,55
 873 768 873 768 833 881 c 0,56,57
 793 995 793 995 712 1063 c 0,58,59
 633 1130 633 1130 531 1130 c 0,60,61
 431 1130 431 1130 360 1064 c 1,62,63
 221 931 221 931 222 651 c 0,47,48
EndSplineSet
Colour: ffff
EndChar

StartChar: Odieresis
Encoding: 214 214 149
Width: 1099
VWidth: 1655
GlyphClass: 2
Flags: MW
LayerCount: 2
Fore
SplineSet
547 1519 m 128,-1,1
 572 1497 572 1497 572 1464 c 0,2,3
 572 1430 572 1430 547 1408 c 0,4,5
 521 1385 521 1385 488 1385 c 0,6,7
 453 1385 453 1385 430 1408 c 0,8,9
 406 1432 406 1432 406 1465 c 0,10,11
 406 1496 406 1496 430 1519 c 0,12,13
 453 1541 453 1541 488 1541 c 0,14,0
 522 1541 522 1541 547 1519 c 128,-1,1
811 1519 m 128,-1,16
 836 1497 836 1497 836 1464 c 0,17,18
 836 1432 836 1432 811 1408 c 0,19,20
 787 1385 787 1385 751 1385 c 0,21,22
 717 1385 717 1385 693 1408 c 0,23,24
 668 1432 668 1432 668 1465 c 0,25,26
 668 1497 668 1497 693 1519 c 128,-1,27
 718 1541 718 1541 751 1541 c 0,28,15
 786 1541 786 1541 811 1519 c 128,-1,16
1080 744 m 1,29,30
 1077 523 1077 523 975 325 c 1,31,32
 860 108 860 108 681 21 c 0,33,34
 582 -28 582 -28 458 -28 c 128,-1,35
 334 -28 334 -28 230 45 c 0,36,37
 125 118 125 118 70 238 c 0,38,39
 14 359 14 359 14 505 c 0,40,41
 14 711 14 711 92 886 c 0,42,43
 170 1062 170 1062 313 1169 c 0,44,45
 455 1275 455 1275 637 1275 c 0,46,47
 773 1275 773 1275 879 1196 c 0,48,49
 987 1115 987 1115 1033 998 c 0,50,51
 1080 878 1080 878 1080 748 c 2,52,-1
 1080 744 l 1,29,30
222 651 m 0,53,54
 222 418 222 418 312 269 c 128,-1,55
 402 120 402 120 547 120 c 0,56,57
 690 120 690 120 782 260 c 0,58,59
 873 399 873 399 873 625 c 0,60,61
 873 768 873 768 833 881 c 0,62,63
 793 995 793 995 712 1063 c 0,64,65
 633 1130 633 1130 531 1130 c 0,66,67
 431 1130 431 1130 360 1064 c 1,68,69
 221 931 221 931 222 651 c 0,53,54
EndSplineSet
Colour: ffff
EndChar

StartChar: multiply
Encoding: 215 215 150
Width: 526
VWidth: 1655
GlyphClass: 2
Flags: MW
LayerCount: 2
Fore
SplineSet
250 380 m 1,0,-1
 68 223 l 1,1,-1
 13 305 l 1,2,-1
 184 453 l 1,3,-1
 51 607 l 1,4,-1
 140 672 l 1,5,-1
 272 520 l 1,6,-1
 454 678 l 1,7,-1
 507 595 l 1,8,-1
 335 448 l 1,9,-1
 471 291 l 1,10,-1
 382 227 l 1,11,-1
 250 380 l 1,0,-1
EndSplineSet
Colour: ffff
EndChar

StartChar: Oslash
Encoding: 216 216 151
Width: 1100
VWidth: 1655
GlyphClass: 2
Flags: MW
LayerCount: 2
Fore
SplineSet
831 1296 m 1,0,-1
 973 1304 l 1,1,-1
 906 1176 l 1,2,3
 992 1102 992 1102 1036 989 c 0,4,5
 1081 874 1081 874 1081 748 c 2,6,-1
 1081 744 l 1,7,8
 1078 523 1078 523 976 325 c 1,9,10
 861 108 861 108 682 21 c 0,11,12
 583 -28 583 -28 476 -28 c 0,13,14
 370 -28 370 -28 284 14 c 1,15,-1
 234 -73 l 1,16,-1
 91 -81 l 1,17,-1
 183 84 l 1,18,19
 154 112 154 112 113 121 c 0,20,21
 72 131 72 131 65 136 c 0,22,23
 43 151 43 151 29 241 c 0,24,25
 15 333 15 333 15 521 c 0,26,27
 15 710 15 710 93 886 c 128,-1,28
 171 1062 171 1062 314 1169 c 0,29,30
 456 1275 456 1275 638 1275 c 0,31,32
 723 1275 723 1275 801 1243 c 1,33,-1
 831 1296 l 1,0,-1
223 651 m 0,34,35
 223 420 223 420 312 272 c 1,36,-1
 725 1053 l 1,37,38
 639 1130 639 1130 535 1130 c 0,39,40
 431 1130 431 1130 361 1064 c 1,41,42
 222 931 222 931 223 651 c 0,34,35
360 205 m 1,43,44
 442 119 442 119 547 120 c 1,45,46
 691 120 691 120 783 260 c 0,47,48
 874 399 874 399 874 623 c 0,49,50
 874 847 874 847 778 992 c 1,51,-1
 360 205 l 1,43,44
EndSplineSet
Colour: ffff
EndChar

StartChar: Ugrave
Encoding: 217 217 152
Width: 1445
VWidth: 1655
GlyphClass: 2
Flags: MW
LayerCount: 2
Fore
SplineSet
556 1655 m 1,0,-1
 670 1693 l 1,1,-1
 799 1365 l 1,2,-1
 743 1332 l 1,3,-1
 556 1655 l 1,0,-1
235 1087 m 1,4,-1
 13 1123 l 1,5,-1
 35 1199 l 1,6,7
 191 1227 191 1227 323 1237 c 0,8,9
 432 1245 432 1245 535 1245 c 0,10,11
 633 1245 633 1245 651 1243 c 1,12,-1
 633 1166 l 1,13,-1
 434 1138 l 1,14,-1
 386 745 l 1,15,16
 386 735 386 735 384 721 c 0,17,18
 383 717 383 717 380.5 692 c 128,-1,19
 378 667 378 667 375 647 c 0,20,21
 372 626 372 626 370 596 c 2,22,-1
 367 566 l 2,23,24
 365 547 365 547 365 488 c 0,25,26
 365 436 365 436 369 405 c 0,27,28
 375 363 375 363 383 330 c 0,29,30
 405 246 405 246 477 188 c 1,31,32
 553 123 553 123 655 123 c 0,33,34
 850 123 850 123 936 290 c 0,35,36
 974 365 974 365 999 534 c 1,37,-1
 1073 1111 l 1,38,-1
 848 1120 l 1,39,-1
 866 1197 l 1,40,41
 1075 1243 1075 1243 1306 1243 c 0,42,43
 1334 1243 1334 1243 1426 1239 c 1,44,-1
 1406 1163 l 1,45,-1
 1199 1096 l 1,46,-1
 1114 517 l 1,47,48
 1070 228 1070 228 959 114 c 1,49,50
 907 59 907 59 813 12 c 0,51,52
 721 -34 721 -34 592 -34 c 2,53,-1
 584 -34 l 1,54,55
 391 -25 391 -25 285 83 c 1,56,57
 164 204 164 204 163 425 c 0,58,59
 163 485 163 485 189 702 c 2,60,-1
 235 1087 l 1,4,-1
EndSplineSet
Colour: ffff
EndChar

StartChar: Uacute
Encoding: 218 218 153
Width: 1445
VWidth: 1655
GlyphClass: 2
Flags: MW
LayerCount: 2
Fore
SplineSet
978 1661 m 1,0,-1
 797 1351 l 1,1,-1
 748 1382 l 1,2,-1
 867 1701 l 1,3,-1
 978 1661 l 1,0,-1
235 1087 m 1,4,-1
 13 1123 l 1,5,-1
 35 1199 l 1,6,7
 191 1227 191 1227 323 1237 c 0,8,9
 432 1245 432 1245 535 1245 c 0,10,11
 633 1245 633 1245 651 1243 c 1,12,-1
 633 1166 l 1,13,-1
 434 1138 l 1,14,-1
 386 745 l 1,15,16
 386 735 386 735 384 721 c 0,17,18
 383 717 383 717 380.5 692 c 128,-1,19
 378 667 378 667 375 647 c 0,20,21
 372 626 372 626 370 596 c 2,22,-1
 367 566 l 2,23,24
 365 547 365 547 365 488 c 0,25,26
 365 436 365 436 369 405 c 0,27,28
 375 363 375 363 383 330 c 0,29,30
 405 246 405 246 477 188 c 1,31,32
 553 123 553 123 655 123 c 0,33,34
 850 123 850 123 936 290 c 0,35,36
 974 365 974 365 999 534 c 1,37,-1
 1073 1111 l 1,38,-1
 848 1120 l 1,39,-1
 866 1197 l 1,40,41
 1075 1243 1075 1243 1306 1243 c 0,42,43
 1334 1243 1334 1243 1426 1239 c 1,44,-1
 1406 1163 l 1,45,-1
 1199 1096 l 1,46,-1
 1114 517 l 1,47,48
 1070 228 1070 228 959 114 c 1,49,50
 907 59 907 59 813 12 c 0,51,52
 721 -34 721 -34 592 -34 c 2,53,-1
 584 -34 l 1,54,55
 391 -25 391 -25 285 83 c 1,56,57
 164 204 164 204 163 425 c 0,58,59
 163 485 163 485 189 702 c 2,60,-1
 235 1087 l 1,4,-1
EndSplineSet
Colour: ffff
EndChar

StartChar: Ucircumflex
Encoding: 219 219 154
Width: 1445
VWidth: 1655
GlyphClass: 2
Flags: MW
LayerCount: 2
Fore
SplineSet
778 1577 m 1,0,-1
 953 1396 l 1,1,-1
 905 1361 l 1,2,-1
 744 1468 l 1,3,-1
 734 1468 l 1,4,-1
 597 1359 l 1,5,-1
 560 1388 l 1,6,-1
 725 1564 l 1,7,-1
 778 1577 l 1,0,-1
235 1087 m 1,8,-1
 13 1123 l 1,9,-1
 35 1199 l 1,10,11
 191 1227 191 1227 323 1237 c 0,12,13
 432 1245 432 1245 535 1245 c 0,14,15
 633 1245 633 1245 651 1243 c 1,16,-1
 633 1166 l 1,17,-1
 434 1138 l 1,18,-1
 386 745 l 1,19,20
 386 735 386 735 384 721 c 0,21,22
 383 717 383 717 380.5 692 c 128,-1,23
 378 667 378 667 375 647 c 0,24,25
 372 626 372 626 370 596 c 2,26,-1
 367 566 l 2,27,28
 365 547 365 547 365 488 c 0,29,30
 365 436 365 436 369 405 c 0,31,32
 375 363 375 363 383 330 c 0,33,34
 405 246 405 246 477 188 c 1,35,36
 553 123 553 123 655 123 c 0,37,38
 850 123 850 123 936 290 c 0,39,40
 974 365 974 365 999 534 c 1,41,-1
 1073 1111 l 1,42,-1
 848 1120 l 1,43,-1
 866 1197 l 1,44,45
 1075 1243 1075 1243 1306 1243 c 0,46,47
 1334 1243 1334 1243 1426 1239 c 1,48,-1
 1406 1163 l 1,49,-1
 1199 1096 l 1,50,-1
 1114 517 l 1,51,52
 1070 228 1070 228 959 114 c 1,53,54
 907 59 907 59 813 12 c 0,55,56
 721 -34 721 -34 592 -34 c 2,57,-1
 584 -34 l 1,58,59
 391 -25 391 -25 285 83 c 1,60,61
 164 204 164 204 163 425 c 0,62,63
 163 485 163 485 189 702 c 2,64,-1
 235 1087 l 1,8,-1
EndSplineSet
Colour: ffff
EndChar

StartChar: Udieresis
Encoding: 220 220 155
Width: 1445
VWidth: 1655
GlyphClass: 2
Flags: MW
LayerCount: 2
Fore
SplineSet
684 1519 m 128,-1,1
 709 1497 709 1497 709 1464 c 0,2,3
 709 1430 709 1430 684 1408 c 0,4,5
 658 1385 658 1385 624 1385 c 0,6,7
 589 1385 589 1385 566 1408 c 0,8,9
 542 1432 542 1432 542 1465 c 0,10,11
 542 1496 542 1496 566 1519 c 0,12,13
 589 1541 589 1541 624 1541 c 128,-1,0
 659 1541 659 1541 684 1519 c 128,-1,1
947 1519 m 128,-1,15
 972 1497 972 1497 972 1464 c 0,16,17
 972 1432 972 1432 947 1408 c 0,18,19
 923 1385 923 1385 887 1385 c 0,20,21
 853 1385 853 1385 829 1408 c 0,22,23
 804 1432 804 1432 804 1465 c 0,24,25
 804 1497 804 1497 829 1519 c 128,-1,26
 854 1541 854 1541 887 1541 c 0,27,14
 922 1541 922 1541 947 1519 c 128,-1,15
235 1087 m 1,28,-1
 13 1123 l 1,29,-1
 35 1199 l 1,30,31
 191 1227 191 1227 323 1237 c 0,32,33
 432 1245 432 1245 535 1245 c 0,34,35
 633 1245 633 1245 651 1243 c 1,36,-1
 633 1166 l 1,37,-1
 434 1138 l 1,38,-1
 386 745 l 1,39,40
 386 735 386 735 384 721 c 0,41,42
 383 717 383 717 380.5 692 c 128,-1,43
 378 667 378 667 375 647 c 0,44,45
 372 626 372 626 370 596 c 2,46,-1
 367 566 l 2,47,48
 365 547 365 547 365 488 c 0,49,50
 365 436 365 436 369 405 c 0,51,52
 375 363 375 363 383 330 c 0,53,54
 405 246 405 246 477 188 c 1,55,56
 553 123 553 123 655 123 c 0,57,58
 850 123 850 123 936 290 c 0,59,60
 974 365 974 365 999 534 c 1,61,-1
 1073 1111 l 1,62,-1
 848 1120 l 1,63,-1
 866 1197 l 1,64,65
 1075 1243 1075 1243 1306 1243 c 0,66,67
 1334 1243 1334 1243 1426 1239 c 1,68,-1
 1406 1163 l 1,69,-1
 1199 1096 l 1,70,-1
 1114 517 l 1,71,72
 1070 228 1070 228 959 114 c 1,73,74
 907 59 907 59 813 12 c 0,75,76
 721 -34 721 -34 592 -34 c 2,77,-1
 584 -34 l 1,78,79
 391 -25 391 -25 285 83 c 1,80,81
 164 204 164 204 163 425 c 0,82,83
 163 485 163 485 189 702 c 2,84,-1
 235 1087 l 1,28,-1
EndSplineSet
Colour: ffff
EndChar

StartChar: Yacute
Encoding: 221 221 156
Width: 1097
VWidth: 1655
GlyphClass: 2
Flags: MW
LayerCount: 2
Fore
SplineSet
813 1661 m 1,0,-1
 633 1351 l 1,1,-1
 583 1382 l 1,2,-1
 703 1701 l 1,3,-1
 813 1661 l 1,0,-1
613 680 m 1,4,5
 569 532 569 532 548 359 c 1,6,-1
 519 106 l 1,7,-1
 732 81 l 1,8,-1
 711 0 l 1,9,-1
 85 0 l 1,10,-1
 104 83 l 1,11,-1
 325 129 l 1,12,-1
 364 423 l 1,13,14
 374 490 374 490 374 569 c 0,15,16
 374 749 374 749 307 893 c 1,17,18
 215 1083 215 1083 13 1111 c 1,19,20
 28 1186 28 1186 78 1221 c 0,21,22
 130 1257 130 1257 196 1262 c 0,23,24
 200 1262 200 1262 202 1264 c 1,25,-1
 207 1264 l 2,26,27
 368 1264 368 1264 451 1086 c 0,28,29
 522 933 522 933 519 702 c 1,30,-1
 519 664 l 1,31,-1
 535 664 l 1,32,33
 569 810 569 810 627 940 c 0,34,35
 682 1062 682 1062 734 1132 c 0,36,37
 783 1197 783 1197 838 1224 c 0,38,39
 891 1250 891 1250 936 1250 c 2,40,-1
 946 1250 l 1,41,42
 951 1248 951 1248 956 1249 c 1,43,44
 1013 1243 1013 1243 1045 1205 c 0,45,46
 1078 1166 1078 1166 1078 1120 c 0,47,48
 1078 1100 1078 1100 1074 1087 c 1,49,50
 1010 1084 1010 1084 941 1063 c 0,51,52
 863 1040 863 1040 804 995 c 1,53,54
 734 938 734 938 693 869 c 0,55,56
 655 804 655 804 613 680 c 1,4,5
EndSplineSet
Colour: ffff
EndChar

StartChar: Thorn
Encoding: 222 222 157
Width: 1158
VWidth: 1655
GlyphClass: 2
Flags: MW
LayerCount: 2
Fore
SplineSet
643 0 m 1,0,-1
 13 0 l 1,1,-1
 30 78 l 1,2,-1
 252 130 l 1,3,-1
 378 1099 l 1,4,-1
 152 1131 l 1,5,-1
 169 1205 l 1,6,7
 449 1256 449 1256 634 1255 c 0,8,9
 702 1255 702 1255 796 1249 c 1,10,-1
 777 1171 l 1,11,-1
 573 1150 l 1,12,-1
 561 1039 l 1,13,14
 645 1047 645 1047 705 1047 c 0,15,16
 917 1047 917 1047 1028 957 c 128,-1,17
 1139 867 1139 867 1139 696 c 0,18,19
 1139 523 1139 523 982 393 c 0,20,21
 819 259 819 259 523 232 c 1,22,-1
 516 315 l 1,23,24
 754 342 754 342 864 453 c 0,25,26
 946 537 946 537 945 665 c 128,-1,27
 944 793 944 793 853 885 c 0,28,29
 763 977 763 977 610 977 c 0,30,31
 582 977 582 977 552 971 c 1,32,-1
 450 108 l 1,33,-1
 668 80 l 1,34,-1
 643 0 l 1,0,-1
EndSplineSet
Colour: ffff
EndChar

StartChar: germandbls
Encoding: 223 223 158
Width: 1271
VWidth: 1655
GlyphClass: 2
Flags: MW
LayerCount: 2
Fore
SplineSet
761 233 m 1,0,1
 817 70 817 70 924 57 c 1,2,-1
 932 57 l 1,3,4
 934 54 934 54 948 56 c 0,5,6
 968 58 968 58 994 70 c 0,7,8
 1027 85 1027 85 1045 106 c 1,9,10
 1061 131 1061 131 1061 158 c 2,11,-1
 1061 165 l 1,12,13
 1060 166 1060 166 1057 185 c 0,14,15
 1051 227 1051 227 1018 267.5 c 128,-1,16
 985 308 985 308 942.5 341 c 128,-1,17
 900 374 900 374 857.5 408.5 c 128,-1,18
 815 443 815 443 786.5 486 c 128,-1,19
 758 529 758 529 758 575 c 128,-1,20
 758 621 758 621 778.5 665.5 c 128,-1,21
 799 710 799 710 830 743.5 c 128,-1,22
 861 777 861 777 897 815 c 128,-1,23
 933 853 933 853 964 887 c 128,-1,24
 995 921 995 921 1015.5 966 c 128,-1,25
 1036 1011 1036 1011 1036 1058 c 0,26,27
 1036 1133 1036 1133 1000 1178.5 c 128,-1,28
 964 1224 964 1224 910 1222 c 1,29,30
 820 1222 820 1222 751 1183 c 128,-1,31
 682 1144 682 1144 652 1074 c 1,32,33
 616 1000 616 1000 605 851 c 1,34,-1
 600 806 l 1,35,36
 567 275 567 275 557 155 c 0,37,38
 545 8 545 8 520 -84 c 0,39,40
 495 -177 495 -177 441 -242 c 1,41,42
 371 -330 371 -330 264 -365 c 1,43,44
 219 -377 219 -377 161 -379 c 0,45,46
 114 -381 114 -381 76 -359 c 0,47,48
 13 -321 13 -321 13 -248 c 0,49,50
 13 -178 13 -178 68 -132 c 1,51,52
 164 -228 164 -228 265 -228 c 0,53,54
 296 -228 296 -228 321 -217 c 0,55,56
 343 -207 343 -207 352 -185 c 0,57,58
 368 -144 368 -144 376 -100 c 128,-1,59
 384 -56 384 -56 386 -16 c 128,-1,60
 388 24 388 24 392 121.5 c 128,-1,61
 396 219 396 219 403 313 c 2,62,-1
 436 775 l 1,63,-1
 325 766 l 1,64,-1
 340 871 l 1,65,-1
 445 855 l 1,66,67
 461 927 461 927 462 931 c 0,68,69
 494 1047 494 1047 556 1119 c 1,70,71
 695 1299 695 1299 1009 1299 c 0,72,73
 1082 1299 1082 1299 1141.5 1248.5 c 128,-1,74
 1201 1198 1201 1198 1201 1110 c 0,75,76
 1201 1046 1201 1046 1168 987 c 128,-1,77
 1135 928 1135 928 1088.5 884.5 c 128,-1,78
 1042 841 1042 841 995 803 c 128,-1,79
 948 765 948 765 915 727 c 128,-1,80
 882 689 882 689 882 656 c 0,81,82
 882 614 882 614 911 573 c 1,83,84
 954 521 954 521 987 494 c 0,85,86
 990 491 990 491 1017 469 c 128,-1,87
 1044 447 1044 447 1059 435 c 0,88,89
 1089 410 1089 410 1113 389 c 0,90,91
 1159 349 1159 349 1181 306 c 0,92,93
 1202 266 1202 266 1205 230 c 1,94,-1
 1205 218 l 2,95,96
 1205 159 1205 159 1159 98 c 1,97,98
 1111 40 1111 40 1030 2 c 0,99,100
 950 -35 950 -35 875 -35 c 0,101,102
 733 -36 733 -36 675 34 c 1,103,104
 647 66 647 66 647 116 c 0,105,106
 647 165 647 165 699 207 c 1,107,108
 726 227 726 227 761 233 c 1,0,1
EndSplineSet
Colour: ffff
EndChar

StartChar: agrave
Encoding: 224 224 159
Width: 859
VWidth: 1655
GlyphClass: 2
Flags: MW
LayerCount: 2
Fore
SplineSet
291 1303 m 1,0,-1
 403 1339 l 1,1,-1
 532 1013 l 1,2,-1
 476 978 l 1,3,-1
 291 1303 l 1,0,-1
219 595 m 0,4,5
 168 438 168 438 168 317 c 0,6,7
 168 197 168 197 180 165 c 0,8,9
 192 134 192 134 232 134 c 0,10,11
 303 134 303 134 398 286 c 0,12,13
 491 435 491 435 532 660 c 1,14,15
 517 702 517 702 473 736 c 128,-1,16
 429 770 429 770 381 770 c 0,17,18
 334 770 334 770 289 722 c 0,19,20
 245 675 245 675 219 595 c 0,4,5
592 918 m 1,21,-1
 711 881 l 1,22,-1
 639 491 l 1,23,-1
 609 253 l 2,24,25
 602 198 602 198 602 168 c 0,26,27
 602 116 602 116 646 116 c 0,28,29
 673 116 673 116 718 166 c 0,30,31
 766 218 766 218 799 275 c 1,32,-1
 840 240 l 1,33,34
 784 100 784 100 719 35 c 0,35,36
 653 -31 653 -31 548 -31 c 0,37,38
 499 -31 499 -31 471 6 c 0,39,40
 445 41 445 41 445 113 c 128,-1,41
 445 185 445 185 481 287 c 1,42,-1
 468 287 l 1,43,44
 416 162 416 162 330 70 c 0,45,46
 245 -21 245 -21 162 -21 c 128,-1,47
 79 -21 79 -21 46 41 c 0,48,49
 13 102 13 102 13 225 c 0,50,51
 13 349 13 349 70 505 c 0,52,53
 128 663 128 663 223 779 c 128,-1,54
 318 895 318 895 414 895 c 0,55,56
 508 895 508 895 558 820 c 1,57,-1
 567 820 l 1,58,-1
 581 909 l 1,59,-1
 592 918 l 1,21,-1
EndSplineSet
Colour: ffff
EndChar

StartChar: aacute
Encoding: 225 225 160
Width: 859
VWidth: 1655
GlyphClass: 2
Flags: MW
LayerCount: 2
Fore
SplineSet
711 1309 m 1,0,-1
 530 998 l 1,1,-1
 481 1029 l 1,2,-1
 600 1347 l 1,3,-1
 711 1309 l 1,0,-1
219 595 m 0,4,5
 168 438 168 438 168 317 c 0,6,7
 168 197 168 197 180 165 c 0,8,9
 192 134 192 134 232 134 c 0,10,11
 303 134 303 134 398 286 c 0,12,13
 491 435 491 435 532 660 c 1,14,15
 517 702 517 702 473 736 c 128,-1,16
 429 770 429 770 381 770 c 0,17,18
 334 770 334 770 289 722 c 0,19,20
 245 675 245 675 219 595 c 0,4,5
592 918 m 1,21,-1
 711 881 l 1,22,-1
 639 491 l 1,23,-1
 609 253 l 2,24,25
 602 198 602 198 602 168 c 0,26,27
 602 116 602 116 646 116 c 0,28,29
 673 116 673 116 718 166 c 0,30,31
 766 218 766 218 799 275 c 1,32,-1
 840 240 l 1,33,34
 784 100 784 100 719 35 c 0,35,36
 653 -31 653 -31 548 -31 c 0,37,38
 499 -31 499 -31 471 6 c 0,39,40
 445 41 445 41 445 113 c 128,-1,41
 445 185 445 185 481 287 c 1,42,-1
 468 287 l 1,43,44
 416 162 416 162 330 70 c 0,45,46
 245 -21 245 -21 162 -21 c 128,-1,47
 79 -21 79 -21 46 41 c 0,48,49
 13 102 13 102 13 225 c 0,50,51
 13 349 13 349 70 505 c 0,52,53
 128 663 128 663 223 779 c 128,-1,54
 318 895 318 895 414 895 c 0,55,56
 508 895 508 895 558 820 c 1,57,-1
 567 820 l 1,58,-1
 581 909 l 1,59,-1
 592 918 l 1,21,-1
EndSplineSet
Colour: ffff
EndChar

StartChar: acircumflex
Encoding: 226 226 161
Width: 859
VWidth: 1655
GlyphClass: 2
Flags: MW
LayerCount: 2
Fore
SplineSet
512 1224 m 1,0,-1
 686 1043 l 1,1,-1
 637 1008 l 1,2,-1
 477 1115 l 1,3,-1
 468 1115 l 1,4,-1
 330 1006 l 1,5,-1
 293 1036 l 1,6,-1
 458 1212 l 1,7,-1
 512 1224 l 1,0,-1
219 595 m 0,8,9
 168 438 168 438 168 317 c 0,10,11
 168 197 168 197 180 165 c 0,12,13
 192 134 192 134 232 134 c 0,14,15
 303 134 303 134 398 286 c 0,16,17
 491 435 491 435 532 660 c 1,18,19
 517 702 517 702 473 736 c 128,-1,20
 429 770 429 770 381 770 c 0,21,22
 334 770 334 770 289 722 c 0,23,24
 245 675 245 675 219 595 c 0,8,9
592 918 m 1,25,-1
 711 881 l 1,26,-1
 639 491 l 1,27,-1
 609 253 l 2,28,29
 602 198 602 198 602 168 c 0,30,31
 602 116 602 116 646 116 c 0,32,33
 673 116 673 116 718 166 c 0,34,35
 766 218 766 218 799 275 c 1,36,-1
 840 240 l 1,37,38
 784 100 784 100 719 35 c 0,39,40
 653 -31 653 -31 548 -31 c 0,41,42
 499 -31 499 -31 471 6 c 0,43,44
 445 41 445 41 445 113 c 128,-1,45
 445 185 445 185 481 287 c 1,46,-1
 468 287 l 1,47,48
 416 162 416 162 330 70 c 0,49,50
 245 -21 245 -21 162 -21 c 128,-1,51
 79 -21 79 -21 46 41 c 0,52,53
 13 102 13 102 13 225 c 0,54,55
 13 349 13 349 70 505 c 0,56,57
 128 663 128 663 223 779 c 128,-1,58
 318 895 318 895 414 895 c 0,59,60
 508 895 508 895 558 820 c 1,61,-1
 567 820 l 1,62,-1
 581 909 l 1,63,-1
 592 918 l 1,25,-1
EndSplineSet
Colour: ffff
EndChar

StartChar: atilde
Encoding: 227 227 162
Width: 859
VWidth: 1655
GlyphClass: 2
Flags: MW
LayerCount: 2
Fore
SplineSet
358 1066 m 2,0,1
 333 1066 333 1066 300 1019 c 1,2,-1
 263 1027 l 1,3,4
 264 1030 264 1030 267 1040 c 128,-1,5
 270 1050 270 1050 272 1058 c 0,6,7
 279 1083 279 1083 296 1110 c 0,8,9
 334 1169 334 1169 382 1168 c 1,10,-1
 388 1168 l 1,11,12
 390 1166 390 1166 395 1166 c 2,13,-1
 613 1137 l 1,14,-1
 616 1137 l 2,15,16
 637 1137 637 1137 672 1178 c 1,17,-1
 719 1176 l 1,18,19
 696 1105 696 1105 663.5 1070 c 128,-1,20
 631 1035 631 1035 590 1036 c 1,21,-1
 579 1036 l 1,22,-1
 360 1066 l 1,23,-1
 358 1066 l 2,0,1
219 595 m 0,24,25
 168 438 168 438 168 317 c 0,26,27
 168 197 168 197 180 165 c 0,28,29
 192 134 192 134 232 134 c 0,30,31
 303 134 303 134 398 286 c 0,32,33
 491 435 491 435 532 660 c 1,34,35
 517 702 517 702 473 736 c 128,-1,36
 429 770 429 770 381 770 c 0,37,38
 334 770 334 770 289 722 c 0,39,40
 245 675 245 675 219 595 c 0,24,25
592 918 m 1,41,-1
 711 881 l 1,42,-1
 639 491 l 1,43,-1
 609 253 l 2,44,45
 602 198 602 198 602 168 c 0,46,47
 602 116 602 116 646 116 c 0,48,49
 673 116 673 116 718 166 c 0,50,51
 766 218 766 218 799 275 c 1,52,-1
 840 240 l 1,53,54
 784 100 784 100 719 35 c 0,55,56
 653 -31 653 -31 548 -31 c 0,57,58
 499 -31 499 -31 471 6 c 0,59,60
 445 41 445 41 445 113 c 128,-1,61
 445 185 445 185 481 287 c 1,62,-1
 468 287 l 1,63,64
 416 162 416 162 330 70 c 0,65,66
 245 -21 245 -21 162 -21 c 128,-1,67
 79 -21 79 -21 46 41 c 0,68,69
 13 102 13 102 13 225 c 0,70,71
 13 349 13 349 70 505 c 0,72,73
 128 663 128 663 223 779 c 128,-1,74
 318 895 318 895 414 895 c 0,75,76
 508 895 508 895 558 820 c 1,77,-1
 567 820 l 1,78,-1
 581 909 l 1,79,-1
 592 918 l 1,41,-1
EndSplineSet
Colour: ffff
EndChar

StartChar: adieresis
Encoding: 228 228 163
Width: 859
VWidth: 1655
GlyphClass: 2
Flags: MW
LayerCount: 2
Fore
SplineSet
417 1165 m 128,-1,1
 442 1143 442 1143 442 1110 c 128,-1,2
 442 1077 442 1077 417 1055 c 0,3,4
 391 1032 391 1032 357 1032 c 0,5,6
 322 1032 322 1032 299 1055 c 0,7,8
 275 1079 275 1079 275 1111 c 0,9,10
 275 1144 275 1144 299 1166 c 0,11,12
 321 1187 321 1187 357 1187 c 0,13,0
 392 1187 392 1187 417 1165 c 128,-1,1
681 1165 m 128,-1,15
 706 1143 706 1143 706 1110 c 0,16,17
 706 1079 706 1079 681 1055 c 0,18,19
 657 1032 657 1032 620 1032 c 0,20,21
 586 1032 586 1032 562 1055 c 0,22,23
 537 1079 537 1079 537 1111 c 0,24,25
 537 1144 537 1144 562 1166 c 0,26,27
 586 1187 586 1187 620 1187 c 0,28,14
 656 1187 656 1187 681 1165 c 128,-1,15
219 595 m 0,29,30
 168 438 168 438 168 317 c 0,31,32
 168 197 168 197 180 165 c 0,33,34
 192 134 192 134 232 134 c 0,35,36
 303 134 303 134 398 286 c 0,37,38
 491 435 491 435 532 660 c 1,39,40
 517 702 517 702 473 736 c 128,-1,41
 429 770 429 770 381 770 c 0,42,43
 334 770 334 770 289 722 c 0,44,45
 245 675 245 675 219 595 c 0,29,30
592 918 m 1,46,-1
 711 881 l 1,47,-1
 639 491 l 1,48,-1
 609 253 l 2,49,50
 602 198 602 198 602 168 c 0,51,52
 602 116 602 116 646 116 c 0,53,54
 673 116 673 116 718 166 c 0,55,56
 766 218 766 218 799 275 c 1,57,-1
 840 240 l 1,58,59
 784 100 784 100 719 35 c 0,60,61
 653 -31 653 -31 548 -31 c 0,62,63
 499 -31 499 -31 471 6 c 0,64,65
 445 41 445 41 445 113 c 128,-1,66
 445 185 445 185 481 287 c 1,67,-1
 468 287 l 1,68,69
 416 162 416 162 330 70 c 0,70,71
 245 -21 245 -21 162 -21 c 128,-1,72
 79 -21 79 -21 46 41 c 0,73,74
 13 102 13 102 13 225 c 0,75,76
 13 349 13 349 70 505 c 0,77,78
 128 663 128 663 223 779 c 128,-1,79
 318 895 318 895 414 895 c 0,80,81
 508 895 508 895 558 820 c 1,82,-1
 567 820 l 1,83,-1
 581 909 l 1,84,-1
 592 918 l 1,46,-1
EndSplineSet
Colour: ffff
EndChar

StartChar: aring
Encoding: 229 229 164
Width: 859
VWidth: 1655
GlyphClass: 2
Flags: MW
LayerCount: 2
Fore
SplineSet
607 1296 m 0,0,1
 649 1252 649 1252 649 1182 c 0,2,3
 649 1114 649 1114 602 1062 c 0,4,5
 556 1011 556 1011 485 1011 c 0,6,7
 416 1011 416 1011 374 1056 c 128,-1,8
 332 1101 332 1101 332 1171 c 0,9,10
 332 1241 332 1241 380 1291 c 0,11,12
 428 1340 428 1340 497 1340 c 0,13,14
 565 1340 565 1340 607 1296 c 0,0,1
425 1262 m 128,-1,16
 402 1230 402 1230 402 1182 c 0,17,18
 402 1133 402 1133 428 1095 c 0,19,20
 453 1058 453 1058 496 1058 c 0,21,22
 580 1058 580 1058 579 1170 c 0,23,24
 579 1223 579 1223 553 1258 c 0,25,26
 526 1294 526 1294 487 1294 c 128,-1,15
 448 1294 448 1294 425 1262 c 128,-1,16
219 595 m 0,27,28
 168 438 168 438 168 317 c 0,29,30
 168 197 168 197 180 165 c 0,31,32
 192 134 192 134 232 134 c 0,33,34
 303 134 303 134 398 286 c 0,35,36
 491 435 491 435 532 660 c 1,37,38
 517 702 517 702 473 736 c 128,-1,39
 429 770 429 770 381 770 c 0,40,41
 334 770 334 770 289 722 c 0,42,43
 245 675 245 675 219 595 c 0,27,28
592 918 m 1,44,-1
 711 881 l 1,45,-1
 639 491 l 1,46,-1
 609 253 l 2,47,48
 602 198 602 198 602 168 c 0,49,50
 602 116 602 116 646 116 c 0,51,52
 673 116 673 116 718 166 c 0,53,54
 766 218 766 218 799 275 c 1,55,-1
 840 240 l 1,56,57
 784 100 784 100 719 35 c 0,58,59
 653 -31 653 -31 548 -31 c 0,60,61
 499 -31 499 -31 471 6 c 0,62,63
 445 41 445 41 445 113 c 128,-1,64
 445 185 445 185 481 287 c 1,65,-1
 468 287 l 1,66,67
 416 162 416 162 330 70 c 0,68,69
 245 -21 245 -21 162 -21 c 128,-1,70
 79 -21 79 -21 46 41 c 0,71,72
 13 102 13 102 13 225 c 0,73,74
 13 349 13 349 70 505 c 0,75,76
 128 663 128 663 223 779 c 128,-1,77
 318 895 318 895 414 895 c 0,78,79
 508 895 508 895 558 820 c 1,80,-1
 567 820 l 1,81,-1
 581 909 l 1,82,-1
 592 918 l 1,44,-1
EndSplineSet
Colour: ffff
EndChar

StartChar: ae
Encoding: 230 230 165
Width: 1043
VWidth: 1655
GlyphClass: 2
Flags: MW
LayerCount: 2
Fore
SplineSet
799 512 m 128,-1,1
 872 600 872 600 872 696 c 0,2,3
 872 791 872 791 793 791 c 0,4,5
 627 791 627 791 600 377 c 1,6,0
 726 424 726 424 799 512 c 128,-1,1
231 628 m 0,7,8
 204 567 204 567 186 479 c 0,9,10
 168 392 168 392 168 294 c 0,11,12
 168 197 168 197 180 165 c 0,13,14
 192 134 192 134 231 134 c 0,15,16
 303 134 303 134 398 286 c 0,17,18
 491 435 491 435 532 660 c 1,19,20
 517 702 517 702 473 736 c 128,-1,21
 429 770 429 770 386 770 c 0,22,23
 340 770 340 770 299 730 c 0,24,25
 259 691 259 691 231 628 c 0,7,8
858 897 m 0,26,27
 936 897 936 897 980 850 c 128,-1,28
 1024 803 1024 803 1024 718 c 0,29,30
 1024 634 1024 634 955 544 c 128,-1,31
 886 454 886 454 788 393 c 128,-1,32
 690 332 690 332 598 305 c 1,33,34
 600 199 600 199 638 152 c 0,35,36
 677 104 677 104 747 104 c 0,37,38
 877 104 877 104 967 246 c 1,39,-1
 1003 214 l 1,40,41
 970 115 970 115 882 42 c 128,-1,42
 794 -31 794 -31 686 -31 c 0,43,44
 579 -31 579 -31 515 39 c 128,-1,45
 451 109 451 109 442 235 c 1,46,47
 379 121 379 121 305 50 c 128,-1,48
 231 -21 231 -21 157 -21 c 0,49,50
 13 -21 13 -21 13 218 c 0,51,52
 13 347 13 347 70 505 c 0,53,54
 125 657 125 657 225 779 c 0,55,56
 320 895 320 895 424 895 c 0,57,58
 478 895 478 895 521 847 c 0,59,60
 564 800 564 800 582 726 c 1,61,62
 706 897 706 897 858 897 c 0,26,27
EndSplineSet
Colour: ffff
EndChar

StartChar: ccedilla
Encoding: 231 231 166
Width: 620
VWidth: 1655
GlyphClass: 2
Flags: MW
LayerCount: 2
Fore
SplineSet
296 -75 m 1,0,1
 384 -151 384 -151 383 -221 c 1,2,3
 383 -324 383 -324 187 -381 c 1,4,-1
 168 -323 l 1,5,6
 252 -293 252 -293 252 -242 c 0,7,8
 252 -202 252 -202 180 -134 c 1,9,-1
 254 -31 l 1,10,11
 153 -21 153 -21 124 -8 c 0,12,13
 88 8 88 8 71 30 c 0,14,15
 57 48 57 48 34 105 c 0,16,17
 14 155 14 155 14 302 c 0,18,19
 14 446 14 446 50 549 c 0,20,21
 85 649 85 649 144 727 c 0,22,23
 201 801 201 801 275 847 c 0,24,25
 350 893 350 893 428 893 c 0,26,27
 507 893 507 893 554 847 c 128,-1,28
 601 801 601 801 601 732 c 0,29,30
 601 664 601 664 568 632 c 0,31,32
 536 601 536 601 462 592 c 1,33,34
 462 609 462 609 452 663 c 0,35,36
 433 766 433 766 392 790 c 1,37,38
 377 797 377 797 360 796 c 1,39,40
 269 796 269 796 223 687 c 0,41,42
 176 576 176 576 176 411 c 0,43,44
 176 244 176 244 217 172 c 0,45,46
 259 98 259 98 359 98 c 2,47,-1
 361 98 l 2,48,49
 407 98 407 98 456 133 c 0,50,51
 504 167 504 167 536 227 c 1,52,-1
 572 195 l 1,53,54
 553 123 553 123 483 59 c 128,-1,55
 413 -5 413 -5 329 -24 c 1,56,-1
 296 -75 l 1,0,1
EndSplineSet
Colour: ffff
EndChar

StartChar: egrave
Encoding: 232 232 167
Width: 616
VWidth: 1655
GlyphClass: 2
Flags: MW
LayerCount: 2
Fore
SplineSet
246 1315 m 1,0,-1
 359 1351 l 1,1,-1
 489 1024 l 1,2,-1
 432 990 l 1,3,-1
 246 1315 l 1,0,-1
445 698 m 0,4,5
 445 744 445 744 425 767.5 c 128,-1,6
 405 791 405 791 365 790 c 1,7,8
 197 790 197 790 173 414 c 1,9,10
 445 515 445 515 445 698 c 0,4,5
553 849 m 0,11,12
 597 802 597 802 597 726 c 0,13,14
 597 582 597 582 449 477 c 0,15,16
 327 390 327 390 172 341 c 1,17,18
 178 104 178 104 335 104 c 0,19,20
 391 104 391 104 446 144 c 0,21,22
 498 182 498 182 541 246 c 1,23,-1
 578 214 l 1,24,25
 544 115 544 115 455 41 c 0,26,27
 368 -31 368 -31 254 -31 c 0,28,29
 142 -31 142 -31 77 56 c 0,30,31
 13 142 13 142 13 293 c 0,32,33
 13 443 13 443 71 580 c 0,34,35
 131 720 131 720 227 808 c 0,36,37
 325 897 325 897 430 897 c 0,38,39
 508 897 508 897 553 849 c 0,11,12
EndSplineSet
Colour: ffff
EndChar

StartChar: eacute
Encoding: 233 233 168
Width: 686
VWidth: 1655
GlyphClass: 2
Flags: MW
LayerCount: 2
Fore
SplineSet
667 1320 m 1,0,-1
 488 1010 l 1,1,-1
 437 1041 l 1,2,-1
 556 1359 l 1,3,-1
 667 1320 l 1,0,-1
445 698 m 0,4,5
 445 744 445 744 425 767.5 c 128,-1,6
 405 791 405 791 365 790 c 1,7,8
 197 790 197 790 173 414 c 1,9,10
 445 515 445 515 445 698 c 0,4,5
553 849 m 0,11,12
 597 802 597 802 597 726 c 0,13,14
 597 582 597 582 449 477 c 0,15,16
 327 390 327 390 172 341 c 1,17,18
 178 104 178 104 335 104 c 0,19,20
 391 104 391 104 446 144 c 0,21,22
 498 182 498 182 541 246 c 1,23,-1
 578 214 l 1,24,25
 544 115 544 115 455 41 c 0,26,27
 368 -31 368 -31 254 -31 c 0,28,29
 142 -31 142 -31 77 56 c 0,30,31
 13 142 13 142 13 293 c 0,32,33
 13 443 13 443 71 580 c 0,34,35
 131 720 131 720 227 808 c 0,36,37
 325 897 325 897 430 897 c 0,38,39
 508 897 508 897 553 849 c 0,11,12
EndSplineSet
Colour: ffff
EndChar

StartChar: ecircumflex
Encoding: 234 234 169
Width: 661
VWidth: 1655
GlyphClass: 2
Flags: MW
LayerCount: 2
Fore
SplineSet
468 1236 m 1,0,-1
 642 1055 l 1,1,-1
 594 1019 l 1,2,-1
 434 1127 l 1,3,-1
 424 1127 l 1,4,-1
 287 1018 l 1,5,-1
 249 1047 l 1,6,-1
 414 1224 l 1,7,-1
 468 1236 l 1,0,-1
445 698 m 0,8,9
 445 744 445 744 425 767.5 c 128,-1,10
 405 791 405 791 365 790 c 1,11,12
 197 790 197 790 173 414 c 1,13,14
 445 515 445 515 445 698 c 0,8,9
553 849 m 0,15,16
 597 802 597 802 597 726 c 0,17,18
 597 582 597 582 449 477 c 0,19,20
 327 390 327 390 172 341 c 1,21,22
 178 104 178 104 335 104 c 0,23,24
 391 104 391 104 446 144 c 0,25,26
 498 182 498 182 541 246 c 1,27,-1
 578 214 l 1,28,29
 544 115 544 115 455 41 c 0,30,31
 368 -31 368 -31 254 -31 c 0,32,33
 142 -31 142 -31 77 56 c 0,34,35
 13 142 13 142 13 293 c 0,36,37
 13 443 13 443 71 580 c 0,38,39
 131 720 131 720 227 808 c 0,40,41
 325 897 325 897 430 897 c 0,42,43
 508 897 508 897 553 849 c 0,15,16
EndSplineSet
Colour: ffff
EndChar

StartChar: edieresis
Encoding: 235 235 170
Width: 681
VWidth: 1655
GlyphClass: 2
Flags: MW
LayerCount: 2
Fore
SplineSet
373 1177 m 128,-1,1
 398 1155 398 1155 398 1121 c 0,2,3
 398 1088 398 1088 373 1066 c 0,4,5
 347 1043 347 1043 315 1043 c 0,6,7
 279 1043 279 1043 256 1066 c 0,8,9
 232 1090 232 1090 232 1122 c 0,10,11
 232 1156 232 1156 256 1178 c 0,12,13
 278 1199 278 1199 315 1199 c 0,14,0
 348 1199 348 1199 373 1177 c 128,-1,1
636 1177 m 0,15,16
 662 1154 662 1154 662 1122 c 128,-1,17
 662 1090 662 1090 636 1066 c 0,18,19
 612 1043 612 1043 577 1043 c 0,20,21
 541 1043 541 1043 518 1066 c 0,22,23
 494 1090 494 1090 494 1122 c 0,24,25
 494 1156 494 1156 518 1178 c 0,26,27
 540 1199 540 1199 577 1199 c 0,28,29
 611 1199 611 1199 636 1177 c 0,15,16
445 698 m 0,30,31
 445 744 445 744 425 767.5 c 128,-1,32
 405 791 405 791 365 790 c 1,33,34
 197 790 197 790 173 414 c 1,35,36
 445 515 445 515 445 698 c 0,30,31
553 849 m 0,37,38
 597 802 597 802 597 726 c 0,39,40
 597 582 597 582 449 477 c 0,41,42
 327 390 327 390 172 341 c 1,43,44
 178 104 178 104 335 104 c 0,45,46
 391 104 391 104 446 144 c 0,47,48
 498 182 498 182 541 246 c 1,49,-1
 578 214 l 1,50,51
 544 115 544 115 455 41 c 0,52,53
 368 -31 368 -31 254 -31 c 0,54,55
 142 -31 142 -31 77 56 c 0,56,57
 13 142 13 142 13 293 c 0,58,59
 13 443 13 443 71 580 c 0,60,61
 131 720 131 720 227 808 c 0,62,63
 325 897 325 897 430 897 c 0,64,65
 508 897 508 897 553 849 c 0,37,38
EndSplineSet
Colour: ffff
EndChar

StartChar: igrave
Encoding: 236 236 171
Width: 603
VWidth: 1655
GlyphClass: 2
Flags: MW
LayerCount: 2
Fore
SplineSet
98 1331 m 1,0,-1
 210 1367 l 1,1,-1
 339 1041 l 1,2,-1
 284 1006 l 1,3,-1
 98 1331 l 1,0,-1
353 254 m 1,4,5
 348 218 348 218 348 181 c 0,6,7
 348 123 348 123 382 123 c 0,8,9
 417 123 417 123 464 157 c 0,10,11
 513 192 513 192 542 246 c 1,12,-1
 584 217 l 1,13,14
 494 -23 494 -23 296 -23 c 0,15,16
 234 -23 234 -23 208 15 c 0,17,18
 183 52 183 52 183 108 c 0,19,20
 183 169 183 169 196 296 c 1,21,-1
 232 611 l 2,22,23
 235 645 235 645 235 676 c 0,24,25
 235 754 235 754 199 754 c 0,26,27
 165 754 165 754 61 599 c 1,28,-1
 13 631 l 1,29,30
 56 744 56 744 141 826 c 0,31,32
 224 906 224 906 307 906 c 0,33,34
 401 906 401 906 398 766 c 0,35,36
 398 743 398 743 381 569 c 1,37,-1
 353 254 l 1,4,5
EndSplineSet
Colour: ffff
EndChar

StartChar: iacute
Encoding: 237 237 172
Width: 603
VWidth: 1655
GlyphClass: 2
Flags: MW
LayerCount: 2
Fore
SplineSet
519 1336 m 1,0,-1
 337 1026 l 1,1,-1
 289 1057 l 1,2,-1
 407 1375 l 1,3,-1
 519 1336 l 1,0,-1
353 254 m 1,4,5
 348 218 348 218 348 181 c 0,6,7
 348 123 348 123 382 123 c 0,8,9
 417 123 417 123 464 157 c 0,10,11
 513 192 513 192 542 246 c 1,12,-1
 584 217 l 1,13,14
 494 -23 494 -23 296 -23 c 0,15,16
 234 -23 234 -23 208 15 c 0,17,18
 183 52 183 52 183 108 c 0,19,20
 183 169 183 169 196 296 c 1,21,-1
 232 611 l 2,22,23
 235 645 235 645 235 676 c 0,24,25
 235 754 235 754 199 754 c 0,26,27
 165 754 165 754 61 599 c 1,28,-1
 13 631 l 1,29,30
 56 744 56 744 141 826 c 0,31,32
 224 906 224 906 307 906 c 0,33,34
 401 906 401 906 398 766 c 0,35,36
 398 743 398 743 381 569 c 1,37,-1
 353 254 l 1,4,5
EndSplineSet
Colour: ffff
EndChar

StartChar: icircumflex
Encoding: 238 238 173
Width: 603
VWidth: 1655
GlyphClass: 2
Flags: MW
LayerCount: 2
Fore
SplineSet
318 1252 m 1,0,-1
 494 1071 l 1,1,-1
 445 1036 l 1,2,-1
 285 1142 l 1,3,-1
 275 1142 l 1,4,-1
 137 1034 l 1,5,-1
 101 1064 l 1,6,-1
 266 1239 l 1,7,-1
 318 1252 l 1,0,-1
353 254 m 1,8,9
 348 218 348 218 348 181 c 0,10,11
 348 123 348 123 382 123 c 0,12,13
 417 123 417 123 464 157 c 0,14,15
 513 192 513 192 542 246 c 1,16,-1
 584 217 l 1,17,18
 494 -23 494 -23 296 -23 c 0,19,20
 234 -23 234 -23 208 15 c 0,21,22
 183 52 183 52 183 108 c 0,23,24
 183 169 183 169 196 296 c 1,25,-1
 232 611 l 2,26,27
 235 645 235 645 235 676 c 0,28,29
 235 754 235 754 199 754 c 0,30,31
 165 754 165 754 61 599 c 1,32,-1
 13 631 l 1,33,34
 56 744 56 744 141 826 c 0,35,36
 224 906 224 906 307 906 c 0,37,38
 401 906 401 906 398 766 c 0,39,40
 398 743 398 743 381 569 c 1,41,-1
 353 254 l 1,8,9
EndSplineSet
Colour: ffff
EndChar

StartChar: idieresis
Encoding: 239 239 174
Width: 603
VWidth: 1655
GlyphClass: 2
Flags: MW
LayerCount: 2
Fore
SplineSet
224 1193 m 128,-1,1
 249 1171 249 1171 249 1138 c 128,-1,2
 249 1105 249 1105 224 1083 c 0,3,4
 198 1060 198 1060 165 1060 c 0,5,6
 129 1060 129 1060 106 1083 c 128,-1,7
 83 1106 83 1106 83 1139 c 128,-1,8
 83 1172 83 1172 106 1194 c 0,9,10
 128 1215 128 1215 165 1215 c 0,11,0
 199 1215 199 1215 224 1193 c 128,-1,1
488 1193 m 128,-1,13
 514 1171 514 1171 514 1138 c 0,14,15
 514 1106 514 1106 488 1083 c 128,-1,16
 462 1060 462 1060 428 1060 c 0,17,18
 392 1060 392 1060 368 1083 c 128,-1,19
 344 1106 344 1106 344 1139 c 0,20,21
 344 1173 344 1173 368 1194 c 128,-1,22
 392 1215 392 1215 428 1215 c 0,23,12
 462 1215 462 1215 488 1193 c 128,-1,13
353 254 m 1,24,25
 348 218 348 218 348 181 c 0,26,27
 348 123 348 123 382 123 c 0,28,29
 417 123 417 123 464 157 c 0,30,31
 513 192 513 192 542 246 c 1,32,-1
 584 217 l 1,33,34
 494 -23 494 -23 296 -23 c 0,35,36
 234 -23 234 -23 208 15 c 0,37,38
 183 52 183 52 183 108 c 0,39,40
 183 169 183 169 196 296 c 1,41,-1
 232 611 l 2,42,43
 235 645 235 645 235 676 c 0,44,45
 235 754 235 754 199 754 c 0,46,47
 165 754 165 754 61 599 c 1,48,-1
 13 631 l 1,49,50
 56 744 56 744 141 826 c 0,51,52
 224 906 224 906 307 906 c 0,53,54
 401 906 401 906 398 766 c 0,55,56
 398 743 398 743 381 569 c 1,57,-1
 353 254 l 1,24,25
EndSplineSet
Colour: ffff
EndChar

StartChar: eth
Encoding: 240 240 175
Width: 782
VWidth: 1655
GlyphClass: 2
Flags: MW
LayerCount: 2
Fore
SplineSet
419 790 m 2,0,1
 320 790 320 790 265 717 c 128,-1,2
 210 644 210 644 189 489 c 1,3,4
 181 439 181 439 184 377 c 1,5,6
 184 231 184 231 230 151 c 0,7,8
 276 70 276 70 368 70 c 0,9,10
 545 70 545 70 587 416 c 0,11,12
 592 452 592 452 592 502 c 0,13,14
 592 631 592 631 546 708 c 128,-1,15
 500 785 500 785 426 790 c 1,16,-1
 419 790 l 2,0,1
640 1085 m 1,17,18
 760 886 760 886 762 608 c 1,19,20
 762 279 762 279 603 105 c 0,21,22
 483 -26 483 -26 327 -26 c 0,23,24
 224 -26 224 -26 153 24 c 0,25,26
 14 121 14 121 13 353 c 0,27,28
 13 403 13 403 18 442 c 0,29,30
 43 644 43 644 164 762 c 0,31,32
 286 881 286 881 447 881 c 0,33,34
 493 881 493 881 533 858 c 0,35,36
 572 836 572 836 582 791 c 1,37,-1
 588 791 l 1,38,39
 569 887 569 887 506 1048 c 1,40,-1
 299 1008 l 1,41,-1
 318 1085 l 1,42,-1
 478 1117 l 1,43,44
 442 1190 442 1190 370 1277 c 1,45,-1
 478 1277 l 1,46,47
 553 1214 553 1214 602 1145 c 1,48,-1
 743 1176 l 1,49,-1
 724 1101 l 1,50,-1
 640 1085 l 1,17,18
EndSplineSet
Colour: ffff
EndChar

StartChar: ntilde
Encoding: 241 241 176
Width: 1018
VWidth: 1655
GlyphClass: 2
Flags: MW
LayerCount: 2
Fore
SplineSet
827 1203 m 1,0,1
 780 1061 780 1061 700 1064 c 1,2,-1
 688 1064 l 1,3,-1
 470 1094 l 1,4,-1
 466 1094 l 2,5,6
 437 1094 437 1094 416 1058 c 1,7,-1
 407 1047 l 1,8,-1
 370 1055 l 1,9,10
 371 1058 371 1058 374 1068 c 128,-1,11
 377 1078 377 1078 379 1086 c 0,12,13
 385 1108 385 1108 405 1136 c 1,14,15
 443 1195 443 1195 491 1196 c 1,16,-1
 497 1196 l 1,17,18
 499 1194 499 1194 504 1194 c 2,19,-1
 723 1164 l 1,20,-1
 725 1164 l 2,21,22
 750 1164 750 1164 780 1205 c 1,23,-1
 827 1203 l 1,0,1
354 344 m 1,24,25
 348 136 348 136 311 56 c 0,26,27
 272 -28 272 -28 184 -28 c 0,28,29
 177 -28 177 -28 142 -24 c 1,30,-1
 128 3 l 1,31,-1
 210 388 l 1,32,-1
 232 620 l 2,33,34
 235 662 235 662 235 696 c 0,35,36
 235 733 235 733 226 751 c 128,-1,37
 217 769 217 769 198 768 c 0,38,39
 180 768 180 768 136 718 c 0,40,41
 92 668 92 668 61 613 c 1,42,-1
 13 651 l 1,43,44
 52 757 52 757 138 840 c 0,45,46
 222 921 222 921 313 921 c 0,47,48
 391 921 391 921 390 818 c 0,49,50
 390 771 390 771 377 713 c 0,51,52
 367 671 367 671 359 627 c 1,53,54
 347 575 347 575 349 573 c 2,55,-1
 360 567 l 1,56,57
 405 705 405 705 494 801 c 0,58,59
 582 897 582 897 662 897 c 0,60,61
 742 897 742 897 781 856 c 0,62,63
 820 816 820 816 820 750 c 0,64,65
 820 686 820 686 811 615 c 2,66,-1
 767 253 l 1,67,68
 760 204 760 204 760 181 c 0,69,70
 760 121 760 121 795 121 c 0,71,72
 829 121 829 121 878 156 c 0,73,74
 926 190 926 190 956 246 c 1,75,-1
 999 216 l 1,76,77
 909 -24 909 -24 695 -24 c 0,78,79
 597 -24 597 -24 597 101 c 0,80,81
 597 118 597 118 618 295 c 2,82,-1
 641 488 l 2,83,84
 654 593 654 593 656 649 c 1,85,86
 656 686 656 686 642 704 c 128,-1,87
 628 722 628 722 600 721 c 1,88,89
 443 721 443 721 354 344 c 1,24,25
EndSplineSet
Colour: ffff
EndChar

StartChar: ograve
Encoding: 242 242 177
Width: 694
VWidth: 1655
GlyphClass: 2
Flags: MW
LayerCount: 2
Fore
SplineSet
204 1298 m 1,0,-1
 316 1336 l 1,1,-1
 447 1008 l 1,2,-1
 390 973 l 1,3,-1
 204 1298 l 1,0,-1
235 733 m 1,4,5
 154 641 154 641 154 460 c 0,6,7
 154 259 154 259 246 146 c 0,8,9
 293 89 293 89 346 90 c 0,10,11
 402 92 402 92 445 139 c 1,12,13
 529 236 529 236 529 424 c 0,14,15
 529 623 529 623 440 730 c 1,16,17
 395 782 395 782 338 784 c 0,18,19
 283 785 283 785 235 733 c 1,4,5
84 79 m 0,20,21
 13 183 13 183 13 340 c 0,22,23
 13 494 13 494 66 620 c 128,-1,24
 119 746 119 746 209 821 c 0,25,26
 300 897 300 897 410 897 c 128,-1,27
 520 897 520 897 597 795 c 0,28,29
 674 692 674 692 674 546 c 0,30,31
 674 399 674 399 628 274 c 0,32,33
 582 148 582 148 490 61 c 128,-1,34
 398 -26 398 -26 277 -26 c 0,35,36
 156 -26 156 -26 84 79 c 0,20,21
EndSplineSet
Colour: ffff
EndChar

StartChar: oacute
Encoding: 243 243 178
Width: 694
VWidth: 1655
GlyphClass: 2
Flags: MW
LayerCount: 2
Fore
SplineSet
625 1304 m 1,0,-1
 445 994 l 1,1,-1
 395 1024 l 1,2,-1
 515 1342 l 1,3,-1
 625 1304 l 1,0,-1
235 733 m 1,4,5
 154 641 154 641 154 460 c 0,6,7
 154 259 154 259 246 146 c 0,8,9
 293 89 293 89 346 90 c 0,10,11
 402 92 402 92 445 139 c 1,12,13
 529 236 529 236 529 424 c 0,14,15
 529 623 529 623 440 730 c 1,16,17
 395 782 395 782 338 784 c 0,18,19
 283 785 283 785 235 733 c 1,4,5
84 79 m 0,20,21
 13 183 13 183 13 340 c 0,22,23
 13 494 13 494 66 620 c 128,-1,24
 119 746 119 746 209 821 c 0,25,26
 300 897 300 897 410 897 c 128,-1,27
 520 897 520 897 597 795 c 0,28,29
 674 692 674 692 674 546 c 0,30,31
 674 399 674 399 628 274 c 0,32,33
 582 148 582 148 490 61 c 128,-1,34
 398 -26 398 -26 277 -26 c 0,35,36
 156 -26 156 -26 84 79 c 0,20,21
EndSplineSet
Colour: ffff
EndChar

StartChar: ocircumflex
Encoding: 244 244 179
Width: 695
VWidth: 1655
GlyphClass: 2
Flags: MW
LayerCount: 2
Fore
SplineSet
427 1220 m 1,0,-1
 601 1039 l 1,1,-1
 552 1003 l 1,2,-1
 392 1111 l 1,3,-1
 383 1111 l 1,4,-1
 246 1001 l 1,5,-1
 208 1031 l 1,6,-1
 373 1207 l 1,7,-1
 427 1220 l 1,0,-1
236 733 m 1,8,9
 155 641 155 641 155 460 c 0,10,11
 155 259 155 259 247 146 c 0,12,13
 294 89 294 89 347 90 c 0,14,15
 403 92 403 92 446 139 c 1,16,17
 530 236 530 236 530 424 c 0,18,19
 530 623 530 623 441 730 c 1,20,21
 396 782 396 782 339 784 c 0,22,23
 284 785 284 785 236 733 c 1,8,9
85 79 m 0,24,25
 14 183 14 183 14 340 c 0,26,27
 14 494 14 494 67 620 c 128,-1,28
 120 746 120 746 210 821 c 0,29,30
 301 897 301 897 411 897 c 0,31,32
 522 897 522 897 598 795 c 0,33,34
 675 692 675 692 675 546 c 0,35,36
 675 399 675 399 629 274 c 0,37,38
 583 148 583 148 491.5 61 c 128,-1,39
 400 -26 400 -26 278 -26 c 0,40,41
 157 -26 157 -26 85 79 c 0,24,25
EndSplineSet
Colour: ffff
EndChar

